{
copyright = "Copyright (c) 2015, Cadson Demak (info@cadsondemak.com)";
customParameters = (
{
name = vendorID;
value = CDK;
},
{
name = description;
value = "Copyright (c) 2015, Cadson Demak (info@cadsondemak.com)";
},
{
name = license;

glyphs = (
{
glyphname = A;
lastChange = "2015-12-01 05:23:24 +0000";
layers = (
{
layerId = "DE721516-52ED-4FB4-A3DE-9EDE92CA8211";
name = Light;
paths = (
{
closed = 1;
nodes = (
"193 0 LINE",
"193 14 LINE",
"179 14 LINE SMOOTH",
"156 14 OFFCURVE",
"119 26 OFFCURVE",
"119 45 CURVE SMOOTH",
"119 47 OFFCURVE",
"123 59 OFFCURVE",
"124 61 CURVE",
"338 641 LINE",
"553 61 LINE",
"554 59 OFFCURVE",
"558 47 OFFCURVE",
"558 45 CURVE SMOOTH",
"558 26 OFFCURVE",
"519 14 OFFCURVE",
"496 14 CURVE SMOOTH",
"484 14 LINE",
"484 0 LINE",
"671 0 LINE",
"671 14 LINE",
"657 14 LINE SMOOTH",
"632 14 OFFCURVE",
"596 29 OFFCURVE",
"589 48 CURVE SMOOTH",
"348 707 LINE",
"325 690 LINE",
"88 48 LINE SMOOTH",
"81 29 OFFCURVE",
"45 16 OFFCURVE",
"20 14 CURVE",
"6 14 LINE",
"6 0 LINE"
);
},
{
closed = 1;
nodes = (
"495 232 LINE",
"495 256 LINE",
"180 256 LINE SMOOTH",
"180 256 OFFCURVE",
"180 232 OFFCURVE",
"180 232 CURVE"
);
}
);
width = 677;
}
);
leftKerningGroup = A;
note = A;
rightKerningGroup = A;
unicode = 0041;
},
{
glyphname = Aacute;
lastChange = "2015-12-01 05:23:21 +0000";
layers = (
{
layerId = "DE721516-52ED-4FB4-A3DE-9EDE92CA8211";
name = Light;
paths = (
{
closed = 1;
nodes = (
"193 0 LINE",
"193 14 LINE",
"179 14 LINE SMOOTH",
"156 14 OFFCURVE",
"119 26 OFFCURVE",
"119 45 CURVE SMOOTH",
"119 47 OFFCURVE",
"123 59 OFFCURVE",
"124 61 CURVE",
"338 641 LINE",
"553 61 LINE",
"554 59 OFFCURVE",
"558 47 OFFCURVE",
"558 45 CURVE SMOOTH",
"558 26 OFFCURVE",
"519 14 OFFCURVE",
"496 14 CURVE SMOOTH",
"484 14 LINE",
"484 0 LINE",
"671 0 LINE",
"671 14 LINE",
"657 14 LINE SMOOTH",
"632 14 OFFCURVE",
"596 29 OFFCURVE",
"589 48 CURVE SMOOTH",
"348 707 LINE",
"325 690 LINE",
"88 48 LINE SMOOTH",
"81 29 OFFCURVE",
"45 16 OFFCURVE",
"20 14 CURVE",
"6 14 LINE",
"6 0 LINE"
);
},
{
closed = 1;
nodes = (
"495 232 LINE",
"495 256 LINE",
"180 256 LINE SMOOTH",
"180 256 OFFCURVE",
"180 232 OFFCURVE",
"180 232 CURVE"
);
},
{
closed = 1;
nodes = (
"397 860 LINE SMOOTH",
"408 866 OFFCURVE",
"413 875 OFFCURVE",
"413 883 CURVE SMOOTH",
"413 892 OFFCURVE",
"406 897 OFFCURVE",
"399 897 CURVE SMOOTH",
"389 897 OFFCURVE",
"381 891 OFFCURVE",
"373 885 CURVE",
"266 798 LINE",
"273 788 LINE"
);
}
);
width = 677;
}
);
leftKerningGroup = A;
note = Aacute;
rightKerningGroup = A;
unicode = 00C1;
},
{
glyphname = Abreve;
lastChange = "2015-12-01 05:23:23 +0000";
layers = (
{
layerId = "DE721516-52ED-4FB4-A3DE-9EDE92CA8211";
name = Light;
paths = (
{
closed = 1;
nodes = (
"193 0 LINE",
"193 14 LINE",
"179 14 LINE SMOOTH",
"156 14 OFFCURVE",
"119 26 OFFCURVE",
"119 45 CURVE SMOOTH",
"119 47 OFFCURVE",
"123 59 OFFCURVE",
"124 61 CURVE",
"338 641 LINE",
"553 61 LINE",
"554 59 OFFCURVE",
"558 47 OFFCURVE",
"558 45 CURVE SMOOTH",
"558 26 OFFCURVE",
"519 14 OFFCURVE",
"496 14 CURVE SMOOTH",
"484 14 LINE",
"484 0 LINE",
"671 0 LINE",
"671 14 LINE",
"657 14 LINE SMOOTH",
"632 14 OFFCURVE",
"596 29 OFFCURVE",
"589 48 CURVE SMOOTH",
"348 707 LINE",
"325 690 LINE",
"88 48 LINE SMOOTH",
"81 29 OFFCURVE",
"45 16 OFFCURVE",
"20 14 CURVE",
"6 14 LINE",
"6 0 LINE"
);
},
{
closed = 1;
nodes = (
"495 232 LINE",
"495 256 LINE",
"180 256 LINE SMOOTH",
"180 256 OFFCURVE",
"180 232 OFFCURVE",
"180 232 CURVE"
);
},
{
closed = 1;
nodes = (
"409 781 OFFCURVE",
"461 816 OFFCURVE",
"467 894 CURVE",
"442 894 LINE",
"433 815 OFFCURVE",
"377 806 OFFCURVE",
"338 806 CURVE SMOOTH",
"299 806 OFFCURVE",
"243 815 OFFCURVE",
"234 894 CURVE",
"209 894 LINE",
"214 816 OFFCURVE",
"267 781 OFFCURVE",
"338 781 CURVE SMOOTH"
);
}
);
width = 677;
}
);
leftKerningGroup = A;
note = Abreve;
rightKerningGroup = A;
unicode = 0102;
},
{
glyphname = Abreveacute;
lastChange = "2015-12-01 05:23:24 +0000";
layers = (
{
layerId = "DE721516-52ED-4FB4-A3DE-9EDE92CA8211";
name = Light;
paths = (
{
closed = 1;
nodes = (
"193 0 LINE",
"193 14 LINE",
"179 14 LINE SMOOTH",
"156 14 OFFCURVE",
"119 26 OFFCURVE",
"119 45 CURVE SMOOTH",
"119 47 OFFCURVE",
"123 59 OFFCURVE",
"124 61 CURVE",
"338 641 LINE",
"553 61 LINE",
"554 59 OFFCURVE",
"558 47 OFFCURVE",
"558 45 CURVE SMOOTH",
"558 26 OFFCURVE",
"519 14 OFFCURVE",
"496 14 CURVE SMOOTH",
"484 14 LINE",
"484 0 LINE",
"671 0 LINE",
"671 14 LINE",
"657 14 LINE SMOOTH",
"632 14 OFFCURVE",
"596 29 OFFCURVE",
"589 48 CURVE SMOOTH",
"348 707 LINE",
"325 690 LINE",
"88 48 LINE SMOOTH",
"81 29 OFFCURVE",
"45 16 OFFCURVE",
"20 14 CURVE",
"6 14 LINE",
"6 0 LINE"
);
},
{
closed = 1;
nodes = (
"495 232 LINE",
"495 256 LINE",
"180 256 LINE SMOOTH",
"180 256 OFFCURVE",
"180 232 OFFCURVE",
"180 232 CURVE"
);
},
{
closed = 1;
nodes = (
"409 781 OFFCURVE",
"461 816 OFFCURVE",
"467 894 CURVE",
"442 894 LINE",
"433 815 OFFCURVE",
"377 806 OFFCURVE",
"338 806 CURVE SMOOTH",
"299 806 OFFCURVE",
"243 815 OFFCURVE",
"234 894 CURVE",
"209 894 LINE",
"214 816 OFFCURVE",
"267 781 OFFCURVE",
"338 781 CURVE SMOOTH"
);
},
{
closed = 1;
nodes = (
"437 956 LINE SMOOTH",
"448 962 OFFCURVE",
"454 971 OFFCURVE",
"454 979 CURVE SMOOTH",
"454 988 OFFCURVE",
"446 993 OFFCURVE",
"438 993 CURVE SMOOTH",
"428 993 OFFCURVE",
"418 987 OFFCURVE",
"411 981 CURVE SMOOTH",
"306 893 LINE",
"313 883 LINE"
);
}
);
width = 677;
}
);
leftKerningGroup = A;
note = Abreveacute;
rightKerningGroup = A;
unicode = 1EAE;
},
{
glyphname = Abrevedotbelow;
lastChange = "2015-12-01 05:23:23 +0000";
layers = (
{
layerId = "DE721516-52ED-4FB4-A3DE-9EDE92CA8211";
name = Light;
paths = (
{
closed = 1;
nodes = (
"193 0 LINE",
"193 14 LINE",
"179 14 LINE SMOOTH",
"156 14 OFFCURVE",
"119 26 OFFCURVE",
"119 45 CURVE SMOOTH",
"119 47 OFFCURVE",
"123 59 OFFCURVE",
"124 61 CURVE",
"338 641 LINE",
"553 61 LINE",
"554 59 OFFCURVE",
"558 47 OFFCURVE",
"558 45 CURVE SMOOTH",
"558 26 OFFCURVE",
"519 14 OFFCURVE",
"496 14 CURVE SMOOTH",
"484 14 LINE",
"484 0 LINE",
"671 0 LINE",
"671 14 LINE",
"657 14 LINE SMOOTH",
"632 14 OFFCURVE",
"596 29 OFFCURVE",
"589 48 CURVE SMOOTH",
"348 707 LINE",
"325 690 LINE",
"88 48 LINE SMOOTH",
"81 29 OFFCURVE",
"45 16 OFFCURVE",
"20 14 CURVE",
"6 14 LINE",
"6 0 LINE"
);
},
{
closed = 1;
nodes = (
"355 -124 OFFCURVE",
"367 -113 OFFCURVE",
"367 -94 CURVE SMOOTH",
"367 -75 OFFCURVE",
"355 -64 OFFCURVE",
"338 -64 CURVE SMOOTH",
"321 -64 OFFCURVE",
"309 -75 OFFCURVE",
"309 -94 CURVE SMOOTH",
"309 -113 OFFCURVE",
"321 -124 OFFCURVE",
"338 -124 CURVE SMOOTH"
);
},
{
closed = 1;
nodes = (
"495 232 LINE",
"495 256 LINE",
"180 256 LINE SMOOTH",
"180 256 OFFCURVE",
"180 232 OFFCURVE",
"180 232 CURVE"
);
},
{
closed = 1;
nodes = (
"409 781 OFFCURVE",
"461 816 OFFCURVE",
"467 894 CURVE",
"442 894 LINE",
"433 815 OFFCURVE",
"377 806 OFFCURVE",
"338 806 CURVE SMOOTH",
"299 806 OFFCURVE",
"243 815 OFFCURVE",
"234 894 CURVE",
"209 894 LINE",
"214 816 OFFCURVE",
"267 781 OFFCURVE",
"338 781 CURVE SMOOTH"
);
}
);
width = 677;
}
);
leftKerningGroup = A;
note = Abrevedotbelow;
rightKerningGroup = A;
unicode = 1EB6;
},
{
glyphname = Abrevegrave;
lastChange = "2015-12-01 05:23:23 +0000";
layers = (
{
layerId = "DE721516-52ED-4FB4-A3DE-9EDE92CA8211";
name = Light;
paths = (
{
closed = 1;
nodes = (
"193 0 LINE",
"193 14 LINE",
"179 14 LINE SMOOTH",
"156 14 OFFCURVE",
"119 26 OFFCURVE",
"119 45 CURVE SMOOTH",
"119 47 OFFCURVE",
"123 59 OFFCURVE",
"124 61 CURVE",
"338 641 LINE",
"553 61 LINE",
"554 59 OFFCURVE",
"558 47 OFFCURVE",
"558 45 CURVE SMOOTH",
"558 26 OFFCURVE",
"519 14 OFFCURVE",
"496 14 CURVE SMOOTH",
"484 14 LINE",
"484 0 LINE",
"671 0 LINE",
"671 14 LINE",
"657 14 LINE SMOOTH",
"632 14 OFFCURVE",
"596 29 OFFCURVE",
"589 48 CURVE SMOOTH",
"348 707 LINE",
"325 690 LINE",
"88 48 LINE SMOOTH",
"81 29 OFFCURVE",
"45 16 OFFCURVE",
"20 14 CURVE",
"6 14 LINE",
"6 0 LINE"
);
},
{
closed = 1;
nodes = (
"495 232 LINE",
"495 256 LINE",
"180 256 LINE SMOOTH",
"180 256 OFFCURVE",
"180 232 OFFCURVE",
"180 232 CURVE"
);
},
{
closed = 1;
nodes = (
"409 781 OFFCURVE",
"461 816 OFFCURVE",
"467 894 CURVE",
"442 894 LINE",
"433 815 OFFCURVE",
"377 806 OFFCURVE",
"338 806 CURVE SMOOTH",
"299 806 OFFCURVE",
"243 815 OFFCURVE",
"234 894 CURVE",
"209 894 LINE",
"214 816 OFFCURVE",
"267 781 OFFCURVE",
"338 781 CURVE SMOOTH"
);
},
{
closed = 1;
nodes = (
"356 893 LINE",
"250 981 LINE SMOOTH",
"243 987 OFFCURVE",
"233 993 OFFCURVE",
"223 993 CURVE SMOOTH",
"215 993 OFFCURVE",
"208 988 OFFCURVE",
"208 979 CURVE SMOOTH",
"208 972 OFFCURVE",
"213 963 OFFCURVE",
"224 956 CURVE SMOOTH",
"348 883 LINE"
);
}
);
width = 677;
}
);
leftKerningGroup = A;
note = Abrevegrave;
rightKerningGroup = A;
unicode = 1EB0;
},
{
glyphname = Abrevehookabove;
lastChange = "2015-12-01 05:23:22 +0000";
layers = (
{
layerId = "DE721516-52ED-4FB4-A3DE-9EDE92CA8211";
name = Light;
paths = (
{
closed = 1;
nodes = (
"193 0 LINE",
"193 14 LINE",
"179 14 LINE SMOOTH",
"156 14 OFFCURVE",
"119 26 OFFCURVE",
"119 45 CURVE SMOOTH",
"119 47 OFFCURVE",
"123 59 OFFCURVE",
"124 61 CURVE",
"338 641 LINE",
"553 61 LINE",
"554 59 OFFCURVE",
"558 47 OFFCURVE",
"558 45 CURVE SMOOTH",
"558 26 OFFCURVE",
"519 14 OFFCURVE",
"496 14 CURVE SMOOTH",
"484 14 LINE",
"484 0 LINE",
"671 0 LINE",
"671 14 LINE",
"657 14 LINE SMOOTH",
"632 14 OFFCURVE",
"596 29 OFFCURVE",
"589 48 CURVE SMOOTH",
"348 707 LINE",
"325 690 LINE",
"88 48 LINE SMOOTH",
"81 29 OFFCURVE",
"45 16 OFFCURVE",
"20 14 CURVE",
"6 14 LINE",
"6 0 LINE"
);
},
{
closed = 1;
nodes = (
"495 232 LINE",
"495 256 LINE",
"180 256 LINE SMOOTH",
"180 256 OFFCURVE",
"180 232 OFFCURVE",
"180 232 CURVE"
);
},
{
closed = 1;
nodes = (
"409 781 OFFCURVE",
"461 816 OFFCURVE",
"467 894 CURVE",
"442 894 LINE",
"433 815 OFFCURVE",
"377 806 OFFCURVE",
"338 806 CURVE SMOOTH",
"299 806 OFFCURVE",
"243 815 OFFCURVE",
"234 894 CURVE",
"209 894 LINE",
"214 816 OFFCURVE",
"267 781 OFFCURVE",
"338 781 CURVE SMOOTH"
);
},
{
closed = 1;
nodes = (
"367 877 LINE",
"351 879 OFFCURVE",
"333 884 OFFCURVE",
"333 900 CURVE SMOOTH",
"333 925 OFFCURVE",
"403 940 OFFCURVE",
"403 978 CURVE SMOOTH",
"403 1008 OFFCURVE",
"373 1021 OFFCURVE",
"341 1021 CURVE SMOOTH",
"309 1021 OFFCURVE",
"275 1009 OFFCURVE",
"275 986 CURVE SMOOTH",
"275 977 OFFCURVE",
"282 972 OFFCURVE",
"289 972 CURVE SMOOTH",
"301 972 OFFCURVE",
"304 980 OFFCURVE",
"306 988 CURVE SMOOTH",
"308 997 OFFCURVE",
"314 1004 OFFCURVE",
"342 1006 CURVE SMOOTH",
"365 1006 OFFCURVE",
"381 993 OFFCURVE",
"381 980 CURVE SMOOTH",
"381 946 OFFCURVE",
"311 937 OFFCURVE",
"311 902 CURVE SMOOTH",
"311 882 OFFCURVE",
"323 865 OFFCURVE",
"360 865 CURVE"
);
}
);
width = 677;
}
);
leftKerningGroup = A;
note = Abrevehookabove;
rightKerningGroup = A;
unicode = 1EB2;
},
{
glyphname = Abrevetilde;
lastChange = "2015-12-01 05:23:23 +0000";
layers = (
{
layerId = "DE721516-52ED-4FB4-A3DE-9EDE92CA8211";
name = Light;
paths = (
{
closed = 1;
nodes = (
"193 0 LINE",
"193 14 LINE",
"179 14 LINE SMOOTH",
"156 14 OFFCURVE",
"119 26 OFFCURVE",
"119 45 CURVE SMOOTH",
"119 47 OFFCURVE",
"123 59 OFFCURVE",
"124 61 CURVE",
"338 641 LINE",
"553 61 LINE",
"554 59 OFFCURVE",
"558 47 OFFCURVE",
"558 45 CURVE SMOOTH",
"558 26 OFFCURVE",
"519 14 OFFCURVE",
"496 14 CURVE SMOOTH",
"484 14 LINE",
"484 0 LINE",
"671 0 LINE",
"671 14 LINE",
"657 14 LINE SMOOTH",
"632 14 OFFCURVE",
"596 29 OFFCURVE",
"589 48 CURVE SMOOTH",
"348 707 LINE",
"325 690 LINE",
"88 48 LINE SMOOTH",
"81 29 OFFCURVE",
"45 16 OFFCURVE",
"20 14 CURVE",
"6 14 LINE",
"6 0 LINE"
);
},
{
closed = 1;
nodes = (
"495 232 LINE",
"495 256 LINE",
"180 256 LINE SMOOTH",
"180 256 OFFCURVE",
"180 232 OFFCURVE",
"180 232 CURVE"
);
},
{
closed = 1;
nodes = (
"409 781 OFFCURVE",
"461 816 OFFCURVE",
"467 894 CURVE",
"442 894 LINE",
"433 815 OFFCURVE",
"377 806 OFFCURVE",
"338 806 CURVE SMOOTH",
"299 806 OFFCURVE",
"243 815 OFFCURVE",
"234 894 CURVE",
"209 894 LINE",
"214 816 OFFCURVE",
"267 781 OFFCURVE",
"338 781 CURVE SMOOTH"
);
},
{
closed = 1;
nodes = (
"226 975 OFFCURVE",
"245 999 OFFCURVE",
"274 999 CURVE SMOOTH",
"315 999 OFFCURVE",
"359 939 OFFCURVE",
"402 939 CURVE SMOOTH",
"443 939 OFFCURVE",
"469 966 OFFCURVE",
"478 1022 CURVE",
"463 1029 LINE",
"453 989 OFFCURVE",
"437 963 OFFCURVE",
"405 963 CURVE SMOOTH",
"366 963 OFFCURVE",
"319 1022 OFFCURVE",
"276 1022 CURVE SMOOTH",
"240 1022 OFFCURVE",
"209 1000 OFFCURVE",
"202 945 CURVE",
"216 937 LINE"
);
}
);
width = 677;
}
);
leftKerningGroup = A;
note = Abrevetilde;
rightKerningGroup = A;
unicode = 1EB4;
},
{
glyphname = Acaron;
lastChange = "2015-12-01 05:23:22 +0000";
layers = (
{
layerId = "DE721516-52ED-4FB4-A3DE-9EDE92CA8211";
name = Light;
paths = (
{
closed = 1;
nodes = (
"193 0 LINE",
"193 14 LINE",
"179 14 LINE SMOOTH",
"156 14 OFFCURVE",
"119 26 OFFCURVE",
"119 45 CURVE SMOOTH",
"119 47 OFFCURVE",
"123 59 OFFCURVE",
"124 61 CURVE",
"338 641 LINE",
"553 61 LINE",
"554 59 OFFCURVE",
"558 47 OFFCURVE",
"558 45 CURVE SMOOTH",
"558 26 OFFCURVE",
"519 14 OFFCURVE",
"496 14 CURVE SMOOTH",
"484 14 LINE",
"484 0 LINE",
"671 0 LINE",
"671 14 LINE",
"657 14 LINE SMOOTH",
"632 14 OFFCURVE",
"596 29 OFFCURVE",
"589 48 CURVE SMOOTH",
"348 707 LINE",
"325 690 LINE",
"88 48 LINE SMOOTH",
"81 29 OFFCURVE",
"45 16 OFFCURVE",
"20 14 CURVE",
"6 14 LINE",
"6 0 LINE"
);
},
{
closed = 1;
nodes = (
"495 232 LINE",
"495 256 LINE",
"180 256 LINE SMOOTH",
"180 256 OFFCURVE",
"180 232 OFFCURVE",
"180 232 CURVE"
);
},
{
closed = 1;
nodes = (
"350 787 LINE",
"451 883 LINE",
"437 899 LINE",
"349 824 LINE",
"345 821 OFFCURVE",
"341 819 OFFCURVE",
"338 819 CURVE SMOOTH",
"335 819 OFFCURVE",
"331 821 OFFCURVE",
"327 824 CURVE",
"239 899 LINE",
"225 883 LINE",
"326 787 LINE"
);
}
);
width = 677;
}
);
leftKerningGroup = A;
note = Acaron;
rightKerningGroup = A;
unicode = 01CD;
},
{
glyphname = Acircumflex;
lastChange = "2015-12-01 05:23:22 +0000";
layers = (
{
layerId = "DE721516-52ED-4FB4-A3DE-9EDE92CA8211";
name = Light;
paths = (
{
closed = 1;
nodes = (
"193 0 LINE",
"193 14 LINE",
"179 14 LINE SMOOTH",
"156 14 OFFCURVE",
"119 26 OFFCURVE",
"119 45 CURVE SMOOTH",
"119 47 OFFCURVE",
"123 59 OFFCURVE",
"124 61 CURVE",
"338 641 LINE",
"553 61 LINE",
"554 59 OFFCURVE",
"558 47 OFFCURVE",
"558 45 CURVE SMOOTH",
"558 26 OFFCURVE",
"519 14 OFFCURVE",
"496 14 CURVE SMOOTH",
"484 14 LINE",
"484 0 LINE",
"671 0 LINE",
"671 14 LINE",
"657 14 LINE SMOOTH",
"632 14 OFFCURVE",
"596 29 OFFCURVE",
"589 48 CURVE SMOOTH",
"348 707 LINE",
"325 690 LINE",
"88 48 LINE SMOOTH",
"81 29 OFFCURVE",
"45 16 OFFCURVE",
"20 14 CURVE",
"6 14 LINE",
"6 0 LINE"
);
},
{
closed = 1;
nodes = (
"495 232 LINE",
"495 256 LINE",
"180 256 LINE SMOOTH",
"180 256 OFFCURVE",
"180 232 OFFCURVE",
"180 232 CURVE"
);
},
{
closed = 1;
nodes = (
"327 862 LINE",
"331 865 OFFCURVE",
"335 867 OFFCURVE",
"338 867 CURVE SMOOTH",
"341 867 OFFCURVE",
"345 865 OFFCURVE",
"349 862 CURVE",
"437 787 LINE",
"451 803 LINE",
"350 899 LINE",
"326 899 LINE",
"225 803 LINE",
"239 787 LINE"
);
}
);
width = 677;
}
);
leftKerningGroup = A;
note = Acircumflex;
rightKerningGroup = A;
unicode = 00C2;
},
{
glyphname = Acircumflexacute;
lastChange = "2015-12-01 05:23:24 +0000";
layers = (
{
layerId = "DE721516-52ED-4FB4-A3DE-9EDE92CA8211";
name = Light;
paths = (
{
closed = 1;
nodes = (
"193 0 LINE",
"193 14 LINE",
"179 14 LINE SMOOTH",
"156 14 OFFCURVE",
"119 26 OFFCURVE",
"119 45 CURVE SMOOTH",
"119 47 OFFCURVE",
"123 59 OFFCURVE",
"124 61 CURVE",
"338 641 LINE",
"553 61 LINE",
"554 59 OFFCURVE",
"558 47 OFFCURVE",
"558 45 CURVE SMOOTH",
"558 26 OFFCURVE",
"519 14 OFFCURVE",
"496 14 CURVE SMOOTH",
"484 14 LINE",
"484 0 LINE",
"671 0 LINE",
"671 14 LINE",
"657 14 LINE SMOOTH",
"632 14 OFFCURVE",
"596 29 OFFCURVE",
"589 48 CURVE SMOOTH",
"348 707 LINE",
"325 690 LINE",
"88 48 LINE SMOOTH",
"81 29 OFFCURVE",
"45 16 OFFCURVE",
"20 14 CURVE",
"6 14 LINE",
"6 0 LINE"
);
},
{
closed = 1;
nodes = (
"495 232 LINE",
"495 256 LINE",
"180 256 LINE SMOOTH",
"180 256 OFFCURVE",
"180 232 OFFCURVE",
"180 232 CURVE"
);
},
{
closed = 1;
nodes = (
"327 862 LINE",
"331 865 OFFCURVE",
"335 867 OFFCURVE",
"338 867 CURVE SMOOTH",
"341 867 OFFCURVE",
"345 865 OFFCURVE",
"349 862 CURVE",
"437 787 LINE",
"451 803 LINE",
"350 899 LINE",
"326 899 LINE",
"225 803 LINE",
"239 787 LINE"
);
},
{
closed = 1;
nodes = (
"555 951 LINE SMOOTH",
"566 957 OFFCURVE",
"571 967 OFFCURVE",
"571 974 CURVE SMOOTH",
"571 983 OFFCURVE",
"564 988 OFFCURVE",
"556 988 CURVE SMOOTH",
"546 988 OFFCURVE",
"536 982 OFFCURVE",
"529 976 CURVE SMOOTH",
"423 888 LINE",
"431 878 LINE"
);
}
);
width = 677;
}
);
leftKerningGroup = A;
note = Acircumflexacute;
rightKerningGroup = A;
unicode = 1EA4;
},
{
glyphname = Acircumflexdotbelow;
lastChange = "2015-12-01 05:23:21 +0000";
layers = (
{
layerId = "DE721516-52ED-4FB4-A3DE-9EDE92CA8211";
name = Light;
paths = (
{
closed = 1;
nodes = (
"193 0 LINE",
"193 14 LINE",
"179 14 LINE SMOOTH",
"156 14 OFFCURVE",
"119 26 OFFCURVE",
"119 45 CURVE SMOOTH",
"119 47 OFFCURVE",
"123 59 OFFCURVE",
"124 61 CURVE",
"338 641 LINE",
"553 61 LINE",
"554 59 OFFCURVE",
"558 47 OFFCURVE",
"558 45 CURVE SMOOTH",
"558 26 OFFCURVE",
"519 14 OFFCURVE",
"496 14 CURVE SMOOTH",
"484 14 LINE",
"484 0 LINE",
"671 0 LINE",
"671 14 LINE",
"657 14 LINE SMOOTH",
"632 14 OFFCURVE",
"596 29 OFFCURVE",
"589 48 CURVE SMOOTH",
"348 707 LINE",
"325 690 LINE",
"88 48 LINE SMOOTH",
"81 29 OFFCURVE",
"45 16 OFFCURVE",
"20 14 CURVE",
"6 14 LINE",
"6 0 LINE"
);
},
{
closed = 1;
nodes = (
"354 -124 OFFCURVE",
"366 -113 OFFCURVE",
"366 -94 CURVE SMOOTH",
"366 -75 OFFCURVE",
"354 -64 OFFCURVE",
"337 -64 CURVE SMOOTH",
"320 -64 OFFCURVE",
"308 -75 OFFCURVE",
"308 -94 CURVE SMOOTH",
"308 -113 OFFCURVE",
"320 -124 OFFCURVE",
"337 -124 CURVE SMOOTH"
);
},
{
closed = 1;
nodes = (
"495 232 LINE",
"495 256 LINE",
"180 256 LINE SMOOTH",
"180 256 OFFCURVE",
"180 232 OFFCURVE",
"180 232 CURVE"
);
},
{
closed = 1;
nodes = (
"327 862 LINE",
"331 865 OFFCURVE",
"335 867 OFFCURVE",
"338 867 CURVE SMOOTH",
"341 867 OFFCURVE",
"345 865 OFFCURVE",
"349 862 CURVE",
"437 787 LINE",
"451 803 LINE",
"350 899 LINE",
"326 899 LINE",
"225 803 LINE",
"239 787 LINE"
);
}
);
width = 677;
}
);
leftKerningGroup = A;
note = Acircumflexdotbelow;
rightKerningGroup = A;
unicode = 1EAC;
},
{
glyphname = Acircumflexgrave;
lastChange = "2015-12-01 05:23:23 +0000";
layers = (
{
layerId = "DE721516-52ED-4FB4-A3DE-9EDE92CA8211";
name = Light;
paths = (
{
closed = 1;
nodes = (
"193 0 LINE",
"193 14 LINE",
"179 14 LINE SMOOTH",
"156 14 OFFCURVE",
"119 26 OFFCURVE",
"119 45 CURVE SMOOTH",
"119 47 OFFCURVE",
"123 59 OFFCURVE",
"124 61 CURVE",
"338 641 LINE",
"553 61 LINE",
"554 59 OFFCURVE",
"558 47 OFFCURVE",
"558 45 CURVE SMOOTH",
"558 26 OFFCURVE",
"519 14 OFFCURVE",
"496 14 CURVE SMOOTH",
"484 14 LINE",
"484 0 LINE",
"671 0 LINE",
"671 14 LINE",
"657 14 LINE SMOOTH",
"632 14 OFFCURVE",
"596 29 OFFCURVE",
"589 48 CURVE SMOOTH",
"348 707 LINE",
"325 690 LINE",
"88 48 LINE SMOOTH",
"81 29 OFFCURVE",
"45 16 OFFCURVE",
"20 14 CURVE",
"6 14 LINE",
"6 0 LINE"
);
},
{
closed = 1;
nodes = (
"495 232 LINE",
"495 256 LINE",
"180 256 LINE SMOOTH",
"180 256 OFFCURVE",
"180 232 OFFCURVE",
"180 232 CURVE"
);
},
{
closed = 1;
nodes = (
"265 888 LINE",
"159 976 LINE SMOOTH",
"152 982 OFFCURVE",
"142 988 OFFCURVE",
"132 988 CURVE SMOOTH",
"124 988 OFFCURVE",
"117 983 OFFCURVE",
"117 974 CURVE SMOOTH",
"117 967 OFFCURVE",
"122 958 OFFCURVE",
"133 951 CURVE SMOOTH",
"257 878 LINE"
);
},
{
closed = 1;
nodes = (
"327 862 LINE",
"331 865 OFFCURVE",
"335 867 OFFCURVE",
"338 867 CURVE SMOOTH",
"341 867 OFFCURVE",
"345 865 OFFCURVE",
"349 862 CURVE",
"437 787 LINE",
"451 803 LINE",
"350 899 LINE",
"326 899 LINE",
"225 803 LINE",
"239 787 LINE"
);
}
);
width = 677;
}
);
leftKerningGroup = A;
note = Acircumflexgrave;
rightKerningGroup = A;
unicode = 1EA6;
},
{
glyphname = Acircumflexhookabove;
lastChange = "2015-12-01 05:23:21 +0000";
layers = (
{
layerId = "DE721516-52ED-4FB4-A3DE-9EDE92CA8211";
name = Light;
paths = (
{
closed = 1;
nodes = (
"193 0 LINE",
"193 14 LINE",
"179 14 LINE SMOOTH",
"156 14 OFFCURVE",
"119 26 OFFCURVE",
"119 45 CURVE SMOOTH",
"119 47 OFFCURVE",
"123 59 OFFCURVE",
"124 61 CURVE",
"338 641 LINE",
"553 61 LINE",
"554 59 OFFCURVE",
"558 47 OFFCURVE",
"558 45 CURVE SMOOTH",
"558 26 OFFCURVE",
"519 14 OFFCURVE",
"496 14 CURVE SMOOTH",
"484 14 LINE",
"484 0 LINE",
"671 0 LINE",
"671 14 LINE",
"657 14 LINE SMOOTH",
"632 14 OFFCURVE",
"596 29 OFFCURVE",
"589 48 CURVE SMOOTH",
"348 707 LINE",
"325 690 LINE",
"88 48 LINE SMOOTH",
"81 29 OFFCURVE",
"45 16 OFFCURVE",
"20 14 CURVE",
"6 14 LINE",
"6 0 LINE"
);
},
{
closed = 1;
nodes = (
"495 232 LINE",
"495 256 LINE",
"180 256 LINE SMOOTH",
"180 256 OFFCURVE",
"180 232 OFFCURVE",
"180 232 CURVE"
);
},
{
closed = 1;
nodes = (
"327 862 LINE",
"331 865 OFFCURVE",
"335 867 OFFCURVE",
"338 867 CURVE SMOOTH",
"341 867 OFFCURVE",
"345 865 OFFCURVE",
"349 862 CURVE",
"437 787 LINE",
"451 803 LINE",
"350 899 LINE",
"326 899 LINE",
"225 803 LINE",
"239 787 LINE"
);
},
{
closed = 1;
nodes = (
"480 872 LINE",
"464 874 OFFCURVE",
"446 879 OFFCURVE",
"446 895 CURVE SMOOTH",
"446 920 OFFCURVE",
"516 935 OFFCURVE",
"516 973 CURVE SMOOTH",
"516 1003 OFFCURVE",
"486 1016 OFFCURVE",
"454 1016 CURVE SMOOTH",
"422 1016 OFFCURVE",
"388 1004 OFFCURVE",
"388 981 CURVE SMOOTH",
"388 972 OFFCURVE",
"395 967 OFFCURVE",
"402 967 CURVE SMOOTH",
"414 967 OFFCURVE",
"417 975 OFFCURVE",
"419 983 CURVE SMOOTH",
"421 992 OFFCURVE",
"427 999 OFFCURVE",
"455 1001 CURVE SMOOTH",
"478 1001 OFFCURVE",
"494 988 OFFCURVE",
"494 975 CURVE SMOOTH",
"494 941 OFFCURVE",
"424 932 OFFCURVE",
"424 897 CURVE SMOOTH",
"424 877 OFFCURVE",
"436 860 OFFCURVE",
"473 860 CURVE"
);
}
);
width = 677;
}
);
leftKerningGroup = A;
note = Acircumflexhookabove;
rightKerningGroup = A;
unicode = 1EA8;
},
{
glyphname = Acircumflextilde;
lastChange = "2015-12-01 05:23:22 +0000";
layers = (
{
layerId = "DE721516-52ED-4FB4-A3DE-9EDE92CA8211";
name = Light;
paths = (
{
closed = 1;
nodes = (
"193 0 LINE",
"193 14 LINE",
"179 14 LINE SMOOTH",
"156 14 OFFCURVE",
"119 26 OFFCURVE",
"119 45 CURVE SMOOTH",
"119 47 OFFCURVE",
"123 59 OFFCURVE",
"124 61 CURVE",
"338 641 LINE",
"553 61 LINE",
"554 59 OFFCURVE",
"558 47 OFFCURVE",
"558 45 CURVE SMOOTH",
"558 26 OFFCURVE",
"519 14 OFFCURVE",
"496 14 CURVE SMOOTH",
"484 14 LINE",
"484 0 LINE",
"671 0 LINE",
"671 14 LINE",
"657 14 LINE SMOOTH",
"632 14 OFFCURVE",
"596 29 OFFCURVE",
"589 48 CURVE SMOOTH",
"348 707 LINE",
"325 690 LINE",
"88 48 LINE SMOOTH",
"81 29 OFFCURVE",
"45 16 OFFCURVE",
"20 14 CURVE",
"6 14 LINE",
"6 0 LINE"
);
},
{
closed = 1;
nodes = (
"495 232 LINE",
"495 256 LINE",
"180 256 LINE SMOOTH",
"180 256 OFFCURVE",
"180 232 OFFCURVE",
"180 232 CURVE"
);
},
{
closed = 1;
nodes = (
"327 862 LINE",
"331 865 OFFCURVE",
"335 867 OFFCURVE",
"338 867 CURVE SMOOTH",
"341 867 OFFCURVE",
"345 865 OFFCURVE",
"349 862 CURVE",
"437 787 LINE",
"451 803 LINE",
"350 899 LINE",
"326 899 LINE",
"225 803 LINE",
"239 787 LINE"
);
},
{
closed = 1;
nodes = (
"228 970 OFFCURVE",
"247 994 OFFCURVE",
"276 994 CURVE SMOOTH",
"317 994 OFFCURVE",
"361 934 OFFCURVE",
"404 934 CURVE SMOOTH",
"445 934 OFFCURVE",
"471 961 OFFCURVE",
"480 1017 CURVE",
"465 1024 LINE",
"455 984 OFFCURVE",
"439 958 OFFCURVE",
"407 958 CURVE SMOOTH",
"368 958 OFFCURVE",
"321 1017 OFFCURVE",
"278 1017 CURVE SMOOTH",
"242 1017 OFFCURVE",
"211 995 OFFCURVE",
"204 940 CURVE",
"218 932 LINE"
);
}
);
width = 677;
}
);
leftKerningGroup = A;
note = Acircumflextilde;
rightKerningGroup = A;
unicode = 1EAA;
},
{
glyphname = Adieresis;
lastChange = "2015-12-01 05:23:24 +0000";
layers = (
{
layerId = "DE721516-52ED-4FB4-A3DE-9EDE92CA8211";
name = Light;
paths = (
{
closed = 1;
nodes = (
"193 0 LINE",
"193 14 LINE",
"179 14 LINE SMOOTH",
"156 14 OFFCURVE",
"119 26 OFFCURVE",
"119 45 CURVE SMOOTH",
"119 47 OFFCURVE",
"123 59 OFFCURVE",
"124 61 CURVE",
"338 641 LINE",
"553 61 LINE",
"554 59 OFFCURVE",
"558 47 OFFCURVE",
"558 45 CURVE SMOOTH",
"558 26 OFFCURVE",
"519 14 OFFCURVE",
"496 14 CURVE SMOOTH",
"484 14 LINE",
"484 0 LINE",
"671 0 LINE",
"671 14 LINE",
"657 14 LINE SMOOTH",
"632 14 OFFCURVE",
"596 29 OFFCURVE",
"589 48 CURVE SMOOTH",
"348 707 LINE",
"325 690 LINE",
"88 48 LINE SMOOTH",
"81 29 OFFCURVE",
"45 16 OFFCURVE",
"20 14 CURVE",
"6 14 LINE",
"6 0 LINE"
);
},
{
closed = 1;
nodes = (
"495 232 LINE",
"495 256 LINE",
"180 256 LINE SMOOTH",
"180 256 OFFCURVE",
"180 232 OFFCURVE",
"180 232 CURVE"
);
},
{
closed = 1;
nodes = (
"257 785 OFFCURVE",
"269 796 OFFCURVE",
"269 815 CURVE SMOOTH",
"269 834 OFFCURVE",
"257 845 OFFCURVE",
"240 845 CURVE SMOOTH",
"223 845 OFFCURVE",
"211 834 OFFCURVE",
"211 815 CURVE SMOOTH",
"211 796 OFFCURVE",
"223 785 OFFCURVE",
"240 785 CURVE SMOOTH"
);
},
{
closed = 1;
nodes = (
"453 785 OFFCURVE",
"465 796 OFFCURVE",
"465 815 CURVE SMOOTH",
"465 834 OFFCURVE",
"453 845 OFFCURVE",
"436 845 CURVE SMOOTH",
"419 845 OFFCURVE",
"407 834 OFFCURVE",
"407 815 CURVE SMOOTH",
"407 796 OFFCURVE",
"419 785 OFFCURVE",
"436 785 CURVE SMOOTH"
);
}
);
width = 677;
}
);
leftKerningGroup = A;
note = Adieresis;
rightKerningGroup = A;
unicode = 00C4;
},
{
glyphname = Adotbelow;
lastChange = "2015-12-01 05:23:22 +0000";
layers = (
{
layerId = "DE721516-52ED-4FB4-A3DE-9EDE92CA8211";
name = Light;
paths = (
{
closed = 1;
nodes = (
"193 0 LINE",
"193 14 LINE",
"179 14 LINE SMOOTH",
"156 14 OFFCURVE",
"119 26 OFFCURVE",
"119 45 CURVE SMOOTH",
"119 47 OFFCURVE",
"123 59 OFFCURVE",
"124 61 CURVE",
"338 641 LINE",
"553 61 LINE",
"554 59 OFFCURVE",
"558 47 OFFCURVE",
"558 45 CURVE SMOOTH",
"558 26 OFFCURVE",
"519 14 OFFCURVE",
"496 14 CURVE SMOOTH",
"484 14 LINE",
"484 0 LINE",
"671 0 LINE",
"671 14 LINE",
"657 14 LINE SMOOTH",
"632 14 OFFCURVE",
"596 29 OFFCURVE",
"589 48 CURVE SMOOTH",
"348 707 LINE",
"325 690 LINE",
"88 48 LINE SMOOTH",
"81 29 OFFCURVE",
"45 16 OFFCURVE",
"20 14 CURVE",
"6 14 LINE",
"6 0 LINE"
);
},
{
closed = 1;
nodes = (
"355 -124 OFFCURVE",
"367 -113 OFFCURVE",
"367 -94 CURVE SMOOTH",
"367 -75 OFFCURVE",
"355 -64 OFFCURVE",
"338 -64 CURVE SMOOTH",
"321 -64 OFFCURVE",
"309 -75 OFFCURVE",
"309 -94 CURVE SMOOTH",
"309 -113 OFFCURVE",
"321 -124 OFFCURVE",
"338 -124 CURVE SMOOTH"
);
},
{
closed = 1;
nodes = (
"495 232 LINE",
"495 256 LINE",
"180 256 LINE SMOOTH",
"180 256 OFFCURVE",
"180 232 OFFCURVE",
"180 232 CURVE"
);
}
);
width = 677;
}
);
leftKerningGroup = A;
note = Adotbelow;
rightKerningGroup = A;
unicode = 1EA0;
},
{
glyphname = Agrave;
lastChange = "2015-12-01 05:23:23 +0000";
layers = (
{
layerId = "DE721516-52ED-4FB4-A3DE-9EDE92CA8211";
name = Light;
paths = (
{
closed = 1;
nodes = (
"193 0 LINE",
"193 14 LINE",
"179 14 LINE SMOOTH",
"156 14 OFFCURVE",
"119 26 OFFCURVE",
"119 45 CURVE SMOOTH",
"119 47 OFFCURVE",
"123 59 OFFCURVE",
"124 61 CURVE",
"338 641 LINE",
"553 61 LINE",
"554 59 OFFCURVE",
"558 47 OFFCURVE",
"558 45 CURVE SMOOTH",
"558 26 OFFCURVE",
"519 14 OFFCURVE",
"496 14 CURVE SMOOTH",
"484 14 LINE",
"484 0 LINE",
"671 0 LINE",
"671 14 LINE",
"657 14 LINE SMOOTH",
"632 14 OFFCURVE",
"596 29 OFFCURVE",
"589 48 CURVE SMOOTH",
"348 707 LINE",
"325 690 LINE",
"88 48 LINE SMOOTH",
"81 29 OFFCURVE",
"45 16 OFFCURVE",
"20 14 CURVE",
"6 14 LINE",
"6 0 LINE"
);
},
{
closed = 1;
nodes = (
"495 232 LINE",
"495 256 LINE",
"180 256 LINE SMOOTH",
"180 256 OFFCURVE",
"180 232 OFFCURVE",
"180 232 CURVE"
);
},
{
closed = 1;
nodes = (
"411 798 LINE",
"304 885 LINE",
"296 891 OFFCURVE",
"288 897 OFFCURVE",
"278 897 CURVE SMOOTH",
"271 897 OFFCURVE",
"264 892 OFFCURVE",
"264 883 CURVE SMOOTH",
"264 875 OFFCURVE",
"269 866 OFFCURVE",
"280 860 CURVE SMOOTH",
"404 788 LINE"
);
}
);
width = 677;
}
);
leftKerningGroup = A;
note = Agrave;
rightKerningGroup = A;
unicode = 00C0;
},
{
glyphname = Ahookabove;
lastChange = "2015-12-01 05:23:22 +0000";
layers = (
{
layerId = "DE721516-52ED-4FB4-A3DE-9EDE92CA8211";
name = Light;
paths = (
{
closed = 1;
nodes = (
"193 0 LINE",
"193 14 LINE",
"179 14 LINE SMOOTH",
"156 14 OFFCURVE",
"119 26 OFFCURVE",
"119 45 CURVE SMOOTH",
"119 47 OFFCURVE",
"123 59 OFFCURVE",
"124 61 CURVE",
"338 641 LINE",
"553 61 LINE",
"554 59 OFFCURVE",
"558 47 OFFCURVE",
"558 45 CURVE SMOOTH",
"558 26 OFFCURVE",
"519 14 OFFCURVE",
"496 14 CURVE SMOOTH",
"484 14 LINE",
"484 0 LINE",
"671 0 LINE",
"671 14 LINE",
"657 14 LINE SMOOTH",
"632 14 OFFCURVE",
"596 29 OFFCURVE",
"589 48 CURVE SMOOTH",
"348 707 LINE",
"325 690 LINE",
"88 48 LINE SMOOTH",
"81 29 OFFCURVE",
"45 16 OFFCURVE",
"20 14 CURVE",
"6 14 LINE",
"6 0 LINE"
);
},
{
closed = 1;
nodes = (
"495 232 LINE",
"495 256 LINE",
"180 256 LINE SMOOTH",
"180 256 OFFCURVE",
"180 232 OFFCURVE",
"180 232 CURVE"
);
},
{
closed = 1;
nodes = (
"374 794 LINE",
"357 799 OFFCURVE",
"347 802 OFFCURVE",
"347 821 CURVE SMOOTH",
"347 851 OFFCURVE",
"423 869 OFFCURVE",
"423 915 CURVE SMOOTH",
"423 951 OFFCURVE",
"392 966 OFFCURVE",
"353 966 CURVE SMOOTH",
"313 966 OFFCURVE",
"283 949 OFFCURVE",
"283 924 CURVE SMOOTH",
"283 910 OFFCURVE",
"288 905 OFFCURVE",
"297 905 CURVE SMOOTH",
"309 905 OFFCURVE",
"311 910 OFFCURVE",
"316 927 CURVE",
"321 942 OFFCURVE",
"339 947 OFFCURVE",
"355 947 CURVE SMOOTH",
"383 947 OFFCURVE",
"392 933 OFFCURVE",
"392 917 CURVE SMOOTH",
"392 876 OFFCURVE",
"317 863 OFFCURVE",
"317 821 CURVE SMOOTH",
"317 797 OFFCURVE",
"335 779 OFFCURVE",
"367 779 CURVE"
);
}
);
width = 677;
}
);
leftKerningGroup = A;
note = Ahookabove;
rightKerningGroup = A;
unicode = 1EA2;
},
{
glyphname = Amacron;
lastChange = "2015-12-01 05:23:22 +0000";
layers = (
{
layerId = "DE721516-52ED-4FB4-A3DE-9EDE92CA8211";
name = Light;
paths = (
{
closed = 1;
nodes = (
"193 0 LINE",
"193 14 LINE",
"179 14 LINE SMOOTH",
"156 14 OFFCURVE",
"119 26 OFFCURVE",
"119 45 CURVE SMOOTH",
"119 47 OFFCURVE",
"123 59 OFFCURVE",
"124 61 CURVE",
"338 641 LINE",
"553 61 LINE",
"554 59 OFFCURVE",
"558 47 OFFCURVE",
"558 45 CURVE SMOOTH",
"558 26 OFFCURVE",
"519 14 OFFCURVE",
"496 14 CURVE SMOOTH",
"484 14 LINE",
"484 0 LINE",
"671 0 LINE",
"671 14 LINE",
"657 14 LINE SMOOTH",
"632 14 OFFCURVE",
"596 29 OFFCURVE",
"589 48 CURVE SMOOTH",
"348 707 LINE",
"325 690 LINE",
"88 48 LINE SMOOTH",
"81 29 OFFCURVE",
"45 16 OFFCURVE",
"20 14 CURVE",
"6 14 LINE",
"6 0 LINE"
);
},
{
closed = 1;
nodes = (
"495 232 LINE",
"495 256 LINE",
"180 256 LINE SMOOTH",
"180 256 OFFCURVE",
"180 232 OFFCURVE",
"180 232 CURVE"
);
},
{
closed = 1;
nodes = (
"474 787 LINE",
"474 809 LINE",
"200 809 LINE",
"200 787 LINE"
);
}
);
width = 677;
}
);
leftKerningGroup = A;
note = Amacron;
rightKerningGroup = A;
unicode = 0100;
},
{
glyphname = Aogonek;
lastChange = "2015-12-01 05:23:24 +0000";
layers = (
{
layerId = "DE721516-52ED-4FB4-A3DE-9EDE92CA8211";
name = Light;
paths = (
{
closed = 1;
nodes = (
"193 0 LINE",
"193 14 LINE",
"179 14 LINE SMOOTH",
"156 14 OFFCURVE",
"119 26 OFFCURVE",
"119 45 CURVE SMOOTH",
"119 47 OFFCURVE",
"123 59 OFFCURVE",
"124 61 CURVE",
"338 641 LINE",
"553 61 LINE",
"554 59 OFFCURVE",
"558 47 OFFCURVE",
"558 45 CURVE SMOOTH",
"558 26 OFFCURVE",
"519 14 OFFCURVE",
"496 14 CURVE SMOOTH",
"484 14 LINE",
"484 0 LINE",
"671 0 LINE",
"671 14 LINE",
"657 14 LINE SMOOTH",
"632 14 OFFCURVE",
"596 29 OFFCURVE",
"589 48 CURVE SMOOTH",
"348 707 LINE",
"325 690 LINE",
"88 48 LINE SMOOTH",
"81 29 OFFCURVE",
"45 16 OFFCURVE",
"20 14 CURVE",
"6 14 LINE",
"6 0 LINE"
);
},
{
closed = 1;
nodes = (
"616 -166 OFFCURVE",
"629 -163 OFFCURVE",
"651 -157 CURVE",
"651 -141 LINE",
"635 -146 OFFCURVE",
"621 -148 OFFCURVE",
"608 -148 CURVE SMOOTH",
"577 -148 OFFCURVE",
"548 -135 OFFCURVE",
"548 -97 CURVE SMOOTH",
"548 -57 OFFCURVE",
"578 -20 OFFCURVE",
"619 0 CURVE",
"593 0 LINE",
"549 -20 OFFCURVE",
"521 -54 OFFCURVE",
"521 -98 CURVE SMOOTH",
"521 -128 OFFCURVE",
"539 -166 OFFCURVE",
"595 -166 CURVE SMOOTH"
);
},
{
closed = 1;
nodes = (
"495 232 LINE",
"495 256 LINE",
"180 256 LINE SMOOTH",
"180 256 OFFCURVE",
"180 232 OFFCURVE",
"180 232 CURVE"
);
}
);
width = 677;
}
);
leftKerningGroup = A;
note = Aogonek;
rightKerningGroup = A;
unicode = 0104;
},
{
glyphname = Aring;
lastChange = "2015-12-01 05:23:24 +0000";
layers = (
{
layerId = "DE721516-52ED-4FB4-A3DE-9EDE92CA8211";
name = Light;
paths = (
{
closed = 1;
nodes = (
"193 0 LINE",
"193 14 LINE",
"179 14 LINE SMOOTH",
"156 14 OFFCURVE",
"119 26 OFFCURVE",
"119 45 CURVE SMOOTH",
"119 47 OFFCURVE",
"123 59 OFFCURVE",
"124 61 CURVE",
"338 641 LINE",
"553 61 LINE",
"554 59 OFFCURVE",
"558 47 OFFCURVE",
"558 45 CURVE SMOOTH",
"558 26 OFFCURVE",
"519 14 OFFCURVE",
"496 14 CURVE SMOOTH",
"484 14 LINE",
"484 0 LINE",
"671 0 LINE",
"671 14 LINE",
"657 14 LINE SMOOTH",
"632 14 OFFCURVE",
"596 29 OFFCURVE",
"589 48 CURVE SMOOTH",
"348 707 LINE",
"325 690 LINE",
"88 48 LINE SMOOTH",
"81 29 OFFCURVE",
"45 16 OFFCURVE",
"20 14 CURVE",
"6 14 LINE",
"6 0 LINE"
);
},
{
closed = 1;
nodes = (
"495 232 LINE",
"495 256 LINE",
"180 256 LINE SMOOTH",
"180 256 OFFCURVE",
"180 232 OFFCURVE",
"180 232 CURVE"
);
},
{
closed = 1;
nodes = (
"382 764 OFFCURVE",
"415 794 OFFCURVE",
"415 838 CURVE SMOOTH",
"415 882 OFFCURVE",
"382 912 OFFCURVE",
"338 912 CURVE SMOOTH",
"294 912 OFFCURVE",
"261 882 OFFCURVE",
"261 838 CURVE SMOOTH",
"261 794 OFFCURVE",
"294 764 OFFCURVE",
"338 764 CURVE SMOOTH"
);
},
{
closed = 1;
nodes = (
"307 783 OFFCURVE",
"285 804 OFFCURVE",
"285 838 CURVE SMOOTH",
"285 872 OFFCURVE",
"307 893 OFFCURVE",
"338 893 CURVE SMOOTH",
"369 893 OFFCURVE",
"391 872 OFFCURVE",
"391 838 CURVE SMOOTH",
"391 804 OFFCURVE",
"369 783 OFFCURVE",
"338 783 CURVE SMOOTH"
);
}
);
width = 677;
}
);
leftKerningGroup = A;
note = Aring;
rightKerningGroup = A;
unicode = 00C5;
},
{
glyphname = Aringacute;
lastChange = "2015-12-01 05:23:22 +0000";
layers = (
{
layerId = "DE721516-52ED-4FB4-A3DE-9EDE92CA8211";
name = Light;
paths = (
{
closed = 1;
nodes = (
"193 0 LINE",
"193 14 LINE",
"179 14 LINE SMOOTH",
"156 14 OFFCURVE",
"119 26 OFFCURVE",
"119 45 CURVE SMOOTH",
"119 47 OFFCURVE",
"123 59 OFFCURVE",
"124 61 CURVE",
"338 641 LINE",
"553 61 LINE",
"554 59 OFFCURVE",
"558 47 OFFCURVE",
"558 45 CURVE SMOOTH",
"558 26 OFFCURVE",
"519 14 OFFCURVE",
"496 14 CURVE SMOOTH",
"484 14 LINE",
"484 0 LINE",
"671 0 LINE",
"671 14 LINE",
"657 14 LINE SMOOTH",
"632 14 OFFCURVE",
"596 29 OFFCURVE",
"589 48 CURVE SMOOTH",
"348 707 LINE",
"325 690 LINE",
"88 48 LINE SMOOTH",
"81 29 OFFCURVE",
"45 16 OFFCURVE",
"20 14 CURVE",
"6 14 LINE",
"6 0 LINE"
);
},
{
closed = 1;
nodes = (
"495 232 LINE",
"495 256 LINE",
"180 256 LINE SMOOTH",
"180 256 OFFCURVE",
"180 232 OFFCURVE",
"180 232 CURVE"
);
},
{
closed = 1;
nodes = (
"382 764 OFFCURVE",
"415 794 OFFCURVE",
"415 838 CURVE SMOOTH",
"415 882 OFFCURVE",
"382 912 OFFCURVE",
"338 912 CURVE SMOOTH",
"294 912 OFFCURVE",
"261 882 OFFCURVE",
"261 838 CURVE SMOOTH",
"261 794 OFFCURVE",
"294 764 OFFCURVE",
"338 764 CURVE SMOOTH"
);
},
{
closed = 1;
nodes = (
"307 783 OFFCURVE",
"285 804 OFFCURVE",
"285 838 CURVE SMOOTH",
"285 872 OFFCURVE",
"307 893 OFFCURVE",
"338 893 CURVE SMOOTH",
"369 893 OFFCURVE",
"391 872 OFFCURVE",
"391 838 CURVE SMOOTH",
"391 804 OFFCURVE",
"369 783 OFFCURVE",
"338 783 CURVE SMOOTH"
);
},
{
closed = 1;
nodes = (
"396 1036 LINE SMOOTH",
"407 1042 OFFCURVE",
"412 1051 OFFCURVE",
"412 1059 CURVE SMOOTH",
"412 1068 OFFCURVE",
"405 1073 OFFCURVE",
"398 1073 CURVE SMOOTH",
"388 1073 OFFCURVE",
"380 1067 OFFCURVE",
"372 1061 CURVE",
"265 974 LINE",
"272 964 LINE"
);
}
);
width = 677;
}
);
leftKerningGroup = A;
note = Aringacute;
rightKerningGroup = A;
unicode = 01FA;
},
{
glyphname = Atilde;
lastChange = "2015-12-01 05:23:23 +0000";
layers = (
{
layerId = "DE721516-52ED-4FB4-A3DE-9EDE92CA8211";
name = Light;
paths = (
{
closed = 1;
nodes = (
"193 0 LINE",
"193 14 LINE",
"179 14 LINE SMOOTH",
"156 14 OFFCURVE",
"119 26 OFFCURVE",
"119 45 CURVE SMOOTH",
"119 47 OFFCURVE",
"123 59 OFFCURVE",
"124 61 CURVE",
"338 641 LINE",
"553 61 LINE",
"554 59 OFFCURVE",
"558 47 OFFCURVE",
"558 45 CURVE SMOOTH",
"558 26 OFFCURVE",
"519 14 OFFCURVE",
"496 14 CURVE SMOOTH",
"484 14 LINE",
"484 0 LINE",
"671 0 LINE",
"671 14 LINE",
"657 14 LINE SMOOTH",
"632 14 OFFCURVE",
"596 29 OFFCURVE",
"589 48 CURVE SMOOTH",
"348 707 LINE",
"325 690 LINE",
"88 48 LINE SMOOTH",
"81 29 OFFCURVE",
"45 16 OFFCURVE",
"20 14 CURVE",
"6 14 LINE",
"6 0 LINE"
);
},
{
closed = 1;
nodes = (
"495 232 LINE",
"495 256 LINE",
"180 256 LINE SMOOTH",
"180 256 OFFCURVE",
"180 232 OFFCURVE",
"180 232 CURVE"
);
},
{
closed = 1;
nodes = (
"224 824 OFFCURVE",
"243 848 OFFCURVE",
"272 848 CURVE SMOOTH",
"313 848 OFFCURVE",
"357 788 OFFCURVE",
"400 788 CURVE SMOOTH",
"441 788 OFFCURVE",
"467 815 OFFCURVE",
"476 871 CURVE",
"461 878 LINE",
"451 838 OFFCURVE",
"435 812 OFFCURVE",
"403 812 CURVE SMOOTH",
"364 812 OFFCURVE",
"317 871 OFFCURVE",
"274 871 CURVE SMOOTH",
"238 871 OFFCURVE",
"207 849 OFFCURVE",
"200 794 CURVE",
"214 786 LINE"
);
}
);
width = 677;
}
);
leftKerningGroup = A;
note = Atilde;
rightKerningGroup = A;
unicode = 00C3;
},
{
glyphname = AE;
lastChange = "2015-12-01 05:23:23 +0000";
layers = (
{
layerId = "DE721516-52ED-4FB4-A3DE-9EDE92CA8211";
name = Light;
paths = (
{
closed = 1;
nodes = (
"195 0 LINE",
"195 14 LINE",
"181 14 LINE SMOOTH",
"160 14 OFFCURVE",
"120 27 OFFCURVE",
"120 41 CURVE SMOOTH",
"120 42 OFFCURVE",
"120 43 OFFCURVE",
"121 45 CURVE",
"234 232 LINE",
"507 232 LINE",
"507 47 LINE SMOOTH",
"507 23 OFFCURVE",
"480 14 OFFCURVE",
"453 14 CURVE SMOOTH",
"436 14 LINE",
"436 0 LINE",
"873 0 LINE",
"887 166 LINE",
"874 166 LINE",
"871 123 OFFCURVE",
"854 24 OFFCURVE",
"796 24 CURVE SMOOTH",
"539 24 LINE",
"539 361 LINE",
"726 361 LINE SMOOTH",
"770 361 OFFCURVE",
"773 312 OFFCURVE",
"777 258 CURVE",
"791 258 LINE",
"791 488 LINE",
"777 488 LINE",
"773 434 OFFCURVE",
"770 385 OFFCURVE",
"726 385 CURVE SMOOTH",
"539 385 LINE",
"539 676 LINE",
"791 676 LINE SMOOTH",
"851 676 OFFCURVE",
"858 589 OFFCURVE",
"860 546 CURVE",
"873 546 LINE",
"873 700 LINE",
"428 700 LINE",
"428 686 LINE",
"457 686 LINE SMOOTH",
"466 686 OFFCURVE",
"472 683 OFFCURVE",
"472 676 CURVE SMOOTH",
"472 673 OFFCURVE",
"471 668 OFFCURVE",
"468 663 CURVE SMOOTH",
"90 48 LINE SMOOTH",
"80 31 OFFCURVE",
"47 16 OFFCURVE",
"22 14 CURVE",
"8 14 LINE",
"8 0 LINE"
);
},
{
closed = 1;
nodes = (
"507 673 LINE",
"507 256 LINE",
"248 256 LINE"
);
}
);
width = 927;
}
);
leftKerningGroup = A;
note = AE;
unicode = 00C6;
},
{
glyphname = AEacute;
lastChange = "2015-12-01 05:23:22 +0000";
layers = (
{
layerId = "DE721516-52ED-4FB4-A3DE-9EDE92CA8211";
name = Light;
paths = (
{
closed = 1;
nodes = (
"195 0 LINE",
"195 14 LINE",
"181 14 LINE SMOOTH",
"160 14 OFFCURVE",
"120 27 OFFCURVE",
"120 41 CURVE SMOOTH",
"120 42 OFFCURVE",
"120 43 OFFCURVE",
"121 45 CURVE",
"234 232 LINE",
"507 232 LINE",
"507 47 LINE SMOOTH",
"507 23 OFFCURVE",
"480 14 OFFCURVE",
"453 14 CURVE SMOOTH",
"436 14 LINE",
"436 0 LINE",
"873 0 LINE",
"887 166 LINE",
"874 166 LINE",
"871 123 OFFCURVE",
"854 24 OFFCURVE",
"796 24 CURVE SMOOTH",
"539 24 LINE",
"539 361 LINE",
"726 361 LINE SMOOTH",
"770 361 OFFCURVE",
"773 312 OFFCURVE",
"777 258 CURVE",
"791 258 LINE",
"791 488 LINE",
"777 488 LINE",
"773 434 OFFCURVE",
"770 385 OFFCURVE",
"726 385 CURVE SMOOTH",
"539 385 LINE",
"539 676 LINE",
"791 676 LINE SMOOTH",
"851 676 OFFCURVE",
"858 589 OFFCURVE",
"860 546 CURVE",
"873 546 LINE",
"873 700 LINE",
"428 700 LINE",
"428 686 LINE",
"457 686 LINE SMOOTH",
"466 686 OFFCURVE",
"472 683 OFFCURVE",
"472 676 CURVE SMOOTH",
"472 673 OFFCURVE",
"471 668 OFFCURVE",
"468 663 CURVE SMOOTH",
"90 48 LINE SMOOTH",
"80 31 OFFCURVE",
"47 16 OFFCURVE",
"22 14 CURVE",
"8 14 LINE",
"8 0 LINE"
);
},
{
closed = 1;
nodes = (
"507 673 LINE",
"507 256 LINE",
"248 256 LINE"
);
},
{
closed = 1;
nodes = (
"761 860 LINE SMOOTH",
"772 866 OFFCURVE",
"777 875 OFFCURVE",
"777 883 CURVE SMOOTH",
"777 892 OFFCURVE",
"770 897 OFFCURVE",
"763 897 CURVE SMOOTH",
"753 897 OFFCURVE",
"745 891 OFFCURVE",
"737 885 CURVE",
"630 798 LINE",
"637 788 LINE"
);
}
);
width = 927;
}
);
leftKerningGroup = A;
note = AEacute;
unicode = 01FC;
},
{
glyphname = B;
lastChange = "2015-12-01 05:23:22 +0000";
layers = (
{
layerId = "DE721516-52ED-4FB4-A3DE-9EDE92CA8211";
name = Light;
paths = (
{
closed = 1;
nodes = (
"314 0 LINE SMOOTH",
"438 0 OFFCURVE",
"519 65 OFFCURVE",
"519 186 CURVE SMOOTH",
"519 262 OFFCURVE",
"493 348 OFFCURVE",
"354 367 CURVE",
"354 371 LINE",
"432 393 OFFCURVE",
"476 459 OFFCURVE",
"476 534 CURVE SMOOTH",
"476 643 OFFCURVE",
"400 700 OFFCURVE",
"288 700 CURVE SMOOTH",
"23 700 LINE",
"23 686 LINE",
"50 686 LINE SMOOTH",
"89 686 OFFCURVE",
"111 677 OFFCURVE",
"111 653 CURVE SMOOTH",
"111 47 LINE SMOOTH",
"111 23 OFFCURVE",
"89 14 OFFCURVE",
"50 14 CURVE SMOOTH",
"23 14 LINE",
"23 0 LINE"
);
},
{
closed = 1;
nodes = (
"143 354 LINE",
"285 354 LINE SMOOTH",
"428 354 OFFCURVE",
"491 294 OFFCURVE",
"491 186 CURVE SMOOTH",
"491 83 OFFCURVE",
"425 24 OFFCURVE",
"282 24 CURVE SMOOTH",
"143 24 LINE"
);
},
{
closed = 1;
nodes = (
"143 676 LINE",
"260 676 LINE SMOOTH",
"385 676 OFFCURVE",
"447 635 OFFCURVE",
"447 536 CURVE SMOOTH",
"447 444 OFFCURVE",
"377 378 OFFCURVE",
"275 378 CURVE SMOOTH",
"143 378 LINE"
);
}
);
width = 553;
}
);
note = B;
unicode = 0042;
},
{
glyphname = C;
lastChange = "2015-12-01 05:23:17 +0000";
layers = (
{
layerId = "DE721516-52ED-4FB4-A3DE-9EDE92CA8211";
name = Light;
paths = (
{
closed = 1;
nodes = (
"474 -10 OFFCURVE",
"577 50 OFFCURVE",
"601 169 CURVE",
"579 169 LINE",
"552 61 OFFCURVE",
"445 14 OFFCURVE",
"361 14 CURVE SMOOTH",
"164 14 OFFCURVE",
"81 156 OFFCURVE",
"81 350 CURVE SMOOTH",
"81 546 OFFCURVE",
"174 686 OFFCURVE",
"367 686 CURVE SMOOTH",
"484 686 OFFCURVE",
"565 622 OFFCURVE",
"574 531 CURVE",
"587 531 LINE",
"587 705 LINE",
"567 705 LINE",
"567 663 LINE SMOOTH",
"567 649 OFFCURVE",
"563 644 OFFCURVE",
"558 644 CURVE SMOOTH",
"555 644 OFFCURVE",
"552 647 OFFCURVE",
"549 649 CURVE",
"525 668 OFFCURVE",
"461 710 OFFCURVE",
"367 710 CURVE SMOOTH",
"174 710 OFFCURVE",
"50 583 OFFCURVE",
"50 350 CURVE SMOOTH",
"50 117 OFFCURVE",
"163 -10 OFFCURVE",
"352 -10 CURVE SMOOTH"
);
}
);
width = 631;
}
);
leftKerningGroup = C;
note = C;
unicode = 0043;
},
{
glyphname = Cacute;
lastChange = "2015-12-01 05:23:23 +0000";
layers = (
{
layerId = "DE721516-52ED-4FB4-A3DE-9EDE92CA8211";
name = Light;
paths = (
{
closed = 1;
nodes = (
"474 -10 OFFCURVE",
"577 50 OFFCURVE",
"601 169 CURVE",
"579 169 LINE",
"552 61 OFFCURVE",
"445 14 OFFCURVE",
"361 14 CURVE SMOOTH",
"164 14 OFFCURVE",
"81 156 OFFCURVE",
"81 350 CURVE SMOOTH",
"81 546 OFFCURVE",
"174 686 OFFCURVE",
"367 686 CURVE SMOOTH",
"484 686 OFFCURVE",
"565 622 OFFCURVE",
"574 531 CURVE",
"587 531 LINE",
"587 705 LINE",
"567 705 LINE",
"567 663 LINE SMOOTH",
"567 649 OFFCURVE",
"563 644 OFFCURVE",
"558 644 CURVE SMOOTH",
"555 644 OFFCURVE",
"552 647 OFFCURVE",
"549 649 CURVE",
"525 668 OFFCURVE",
"461 710 OFFCURVE",
"367 710 CURVE SMOOTH",
"174 710 OFFCURVE",
"50 583 OFFCURVE",
"50 350 CURVE SMOOTH",
"50 117 OFFCURVE",
"163 -10 OFFCURVE",
"352 -10 CURVE SMOOTH"
);
},
{
closed = 1;
nodes = (
"404 860 LINE SMOOTH",
"415 866 OFFCURVE",
"420 875 OFFCURVE",
"420 883 CURVE SMOOTH",
"420 892 OFFCURVE",
"413 897 OFFCURVE",
"406 897 CURVE SMOOTH",
"396 897 OFFCURVE",
"388 891 OFFCURVE",
"380 885 CURVE",
"273 798 LINE",
"280 788 LINE"
);
}
);
width = 631;
}
);
leftKerningGroup = C;
note = Cacute;
unicode = 0106;
},
{
glyphname = Ccaron;
lastChange = "2015-12-01 05:23:22 +0000";
layers = (
{
layerId = "DE721516-52ED-4FB4-A3DE-9EDE92CA8211";
name = Light;
paths = (
{
closed = 1;
nodes = (
"474 -10 OFFCURVE",
"577 50 OFFCURVE",
"601 169 CURVE",
"579 169 LINE",
"552 61 OFFCURVE",
"445 14 OFFCURVE",
"361 14 CURVE SMOOTH",
"164 14 OFFCURVE",
"81 156 OFFCURVE",
"81 350 CURVE SMOOTH",
"81 546 OFFCURVE",
"174 686 OFFCURVE",
"367 686 CURVE SMOOTH",
"484 686 OFFCURVE",
"565 622 OFFCURVE",
"574 531 CURVE",
"587 531 LINE",
"587 705 LINE",
"567 705 LINE",
"567 663 LINE SMOOTH",
"567 649 OFFCURVE",
"563 644 OFFCURVE",
"558 644 CURVE SMOOTH",
"555 644 OFFCURVE",
"552 647 OFFCURVE",
"549 649 CURVE",
"525 668 OFFCURVE",
"461 710 OFFCURVE",
"367 710 CURVE SMOOTH",
"174 710 OFFCURVE",
"50 583 OFFCURVE",
"50 350 CURVE SMOOTH",
"50 117 OFFCURVE",
"163 -10 OFFCURVE",
"352 -10 CURVE SMOOTH"
);
},
{
closed = 1;
nodes = (
"358 787 LINE",
"459 883 LINE",
"445 899 LINE",
"357 824 LINE",
"353 821 OFFCURVE",
"349 819 OFFCURVE",
"346 819 CURVE SMOOTH",
"343 819 OFFCURVE",
"339 821 OFFCURVE",
"335 824 CURVE",
"247 899 LINE",
"233 883 LINE",
"334 787 LINE"
);
}
);
width = 631;
}
);
leftKerningGroup = C;
note = Ccaron;
unicode = 010C;
},
{
glyphname = Ccedilla;
lastChange = "2015-12-01 05:23:22 +0000";
layers = (
{
layerId = "DE721516-52ED-4FB4-A3DE-9EDE92CA8211";
name = Light;
paths = (
{
closed = 1;
nodes = (
"474 -10 OFFCURVE",
"577 50 OFFCURVE",
"601 169 CURVE",
"579 169 LINE",
"552 61 OFFCURVE",
"445 14 OFFCURVE",
"361 14 CURVE SMOOTH",
"164 14 OFFCURVE",
"81 156 OFFCURVE",
"81 350 CURVE SMOOTH",
"81 546 OFFCURVE",
"174 686 OFFCURVE",
"367 686 CURVE SMOOTH",
"484 686 OFFCURVE",
"565 622 OFFCURVE",
"574 531 CURVE",
"587 531 LINE",
"587 705 LINE",
"567 705 LINE",
"567 663 LINE SMOOTH",
"567 649 OFFCURVE",
"563 644 OFFCURVE",
"558 644 CURVE SMOOTH",
"555 644 OFFCURVE",
"552 647 OFFCURVE",
"549 649 CURVE",
"525 668 OFFCURVE",
"461 710 OFFCURVE",
"367 710 CURVE SMOOTH",
"174 710 OFFCURVE",
"50 583 OFFCURVE",
"50 350 CURVE SMOOTH",
"50 117 OFFCURVE",
"163 -10 OFFCURVE",
"352 -10 CURVE SMOOTH"
);
},
{
closed = 1;
nodes = (
"372 -186 OFFCURVE",
"413 -167 OFFCURVE",
"413 -121 CURVE SMOOTH",
"413 -85 OFFCURVE",
"380 -67 OFFCURVE",
"344 -67 CURVE SMOOTH",
"336 -67 OFFCURVE",
"328 -67 OFFCURVE",
"321 -68 CURVE",
"352 0 LINE",
"324 0 LINE",
"286 -79 LINE",
"294 -89 LINE",
"303 -88 OFFCURVE",
"316 -87 OFFCURVE",
"330 -87 CURVE SMOOTH",
"357 -87 OFFCURVE",
"385 -93 OFFCURVE",
"385 -119 CURVE SMOOTH",
"385 -153 OFFCURVE",
"359 -166 OFFCURVE",
"320 -166 CURVE SMOOTH",
"305 -166 OFFCURVE",
"288 -165 OFFCURVE",
"271 -162 CURVE",
"262 -180 LINE",
"280 -184 OFFCURVE",
"300 -186 OFFCURVE",
"317 -186 CURVE SMOOTH"
);
}
);
width = 631;
}
);
leftKerningGroup = C;
note = Ccedilla;
unicode = 00C7;
},
{
glyphname = Ccircumflex;
lastChange = "2015-12-01 05:23:23 +0000";
layers = (
{
layerId = "DE721516-52ED-4FB4-A3DE-9EDE92CA8211";
name = Light;
paths = (
{
closed = 1;
nodes = (
"474 -10 OFFCURVE",
"577 50 OFFCURVE",
"601 169 CURVE",
"579 169 LINE",
"552 61 OFFCURVE",
"445 14 OFFCURVE",
"361 14 CURVE SMOOTH",
"164 14 OFFCURVE",
"81 156 OFFCURVE",
"81 350 CURVE SMOOTH",
"81 546 OFFCURVE",
"174 686 OFFCURVE",
"367 686 CURVE SMOOTH",
"484 686 OFFCURVE",
"565 622 OFFCURVE",
"574 531 CURVE",
"587 531 LINE",
"587 705 LINE",
"567 705 LINE",
"567 663 LINE SMOOTH",
"567 649 OFFCURVE",
"563 644 OFFCURVE",
"558 644 CURVE SMOOTH",
"555 644 OFFCURVE",
"552 647 OFFCURVE",
"549 649 CURVE",
"525 668 OFFCURVE",
"461 710 OFFCURVE",
"367 710 CURVE SMOOTH",
"174 710 OFFCURVE",
"50 583 OFFCURVE",
"50 350 CURVE SMOOTH",
"50 117 OFFCURVE",
"163 -10 OFFCURVE",
"352 -10 CURVE SMOOTH"
);
},
{
closed = 1;
nodes = (
"334 862 LINE",
"338 865 OFFCURVE",
"342 867 OFFCURVE",
"345 867 CURVE SMOOTH",
"348 867 OFFCURVE",
"352 865 OFFCURVE",
"356 862 CURVE",
"444 787 LINE",
"458 803 LINE",
"357 899 LINE",
"333 899 LINE",
"232 803 LINE",
"246 787 LINE"
);
}
);
width = 631;
}
);
leftKerningGroup = C;
note = Ccircumflex;
unicode = 0108;
},
{
glyphname = Cdotaccent;
lastChange = "2015-12-01 05:23:22 +0000";
layers = (
{
layerId = "DE721516-52ED-4FB4-A3DE-9EDE92CA8211";
name = Light;
paths = (
{
closed = 1;
nodes = (
"474 -10 OFFCURVE",
"577 50 OFFCURVE",
"601 169 CURVE",
"579 169 LINE",
"552 61 OFFCURVE",
"445 14 OFFCURVE",
"361 14 CURVE SMOOTH",
"164 14 OFFCURVE",
"81 156 OFFCURVE",
"81 350 CURVE SMOOTH",
"81 546 OFFCURVE",
"174 686 OFFCURVE",
"367 686 CURVE SMOOTH",
"484 686 OFFCURVE",
"565 622 OFFCURVE",
"574 531 CURVE",
"587 531 LINE",
"587 705 LINE",
"567 705 LINE",
"567 663 LINE SMOOTH",
"567 649 OFFCURVE",
"563 644 OFFCURVE",
"558 644 CURVE SMOOTH",
"555 644 OFFCURVE",
"552 647 OFFCURVE",
"549 649 CURVE",
"525 668 OFFCURVE",
"461 710 OFFCURVE",
"367 710 CURVE SMOOTH",
"174 710 OFFCURVE",
"50 583 OFFCURVE",
"50 350 CURVE SMOOTH",
"50 117 OFFCURVE",
"163 -10 OFFCURVE",
"352 -10 CURVE SMOOTH"
);
},
{
closed = 1;
nodes = (
"387 759 OFFCURVE",
"399 770 OFFCURVE",
"399 789 CURVE SMOOTH",
"399 808 OFFCURVE",
"387 819 OFFCURVE",
"370 819 CURVE SMOOTH",
"353 819 OFFCURVE",
"341 808 OFFCURVE",
"341 789 CURVE SMOOTH",
"341 770 OFFCURVE",
"353 759 OFFCURVE",
"370 759 CURVE SMOOTH"
);
}
);
width = 631;
}
);
leftKerningGroup = C;
note = Cdotaccent;
unicode = 010A;
},
{
glyphname = D;
lastChange = "2015-12-01 05:23:23 +0000";
layers = (
{
layerId = "DE721516-52ED-4FB4-A3DE-9EDE92CA8211";
name = Light;
paths = (
{
closed = 1;
nodes = (
"305 0 LINE SMOOTH",
"490 0 OFFCURVE",
"589 127 OFFCURVE",
"589 350 CURVE SMOOTH",
"589 573 OFFCURVE",
"491 700 OFFCURVE",
"306 700 CURVE SMOOTH",
"23 700 LINE",
"23 686 LINE",
"50 686 LINE SMOOTH",
"89 686 OFFCURVE",
"111 677 OFFCURVE",
"111 653 CURVE SMOOTH",
"111 47 LINE SMOOTH",
"111 23 OFFCURVE",
"89 14 OFFCURVE",
"50 14 CURVE SMOOTH",
"23 14 LINE",
"23 0 LINE"
);
},
{
closed = 1;
nodes = (
"143 678 LINE",
"305 678 LINE SMOOTH",
"479 678 OFFCURVE",
"558 546 OFFCURVE",
"558 350 CURVE SMOOTH",
"558 154 OFFCURVE",
"479 22 OFFCURVE",
"303 22 CURVE SMOOTH",
"143 22 LINE"
);
}
);
width = 629;
}
);
note = D;
rightKerningGroup = D;
unicode = 0044;
},
{
glyphname = Eth;
lastChange = "2015-12-01 05:23:34 +0000";
layers = (
{
layerId = "DE721516-52ED-4FB4-A3DE-9EDE92CA8211";
name = Light;
paths = (
{
closed = 1;
nodes = (
"305 0 LINE SMOOTH",
"490 0 OFFCURVE",
"589 127 OFFCURVE",
"589 350 CURVE SMOOTH",
"589 573 OFFCURVE",
"491 700 OFFCURVE",
"306 700 CURVE SMOOTH",
"23 700 LINE",
"23 686 LINE",
"50 686 LINE SMOOTH",
"89 686 OFFCURVE",
"111 677 OFFCURVE",
"111 653 CURVE SMOOTH",
"111 47 LINE SMOOTH",
"111 23 OFFCURVE",
"89 14 OFFCURVE",
"50 14 CURVE SMOOTH",
"23 14 LINE",
"23 0 LINE"
);
},
{
closed = 1;
nodes = (
"143 678 LINE",
"305 678 LINE SMOOTH",
"479 678 OFFCURVE",
"558 546 OFFCURVE",
"558 350 CURVE SMOOTH",
"558 154 OFFCURVE",
"479 22 OFFCURVE",
"303 22 CURVE SMOOTH",
"143 22 LINE"
);
},
{
closed = 1;
nodes = (
"370 349 LINE",
"370 371 LINE",
"37 371 LINE",
"37 349 LINE"
);
}
);
width = 629;
}
);
note = Eth;
rightKerningGroup = D;
unicode = 00D0;
},
{
glyphname = Dcaron;
lastChange = "2015-12-01 05:23:24 +0000";
layers = (
{
layerId = "DE721516-52ED-4FB4-A3DE-9EDE92CA8211";
name = Light;
paths = (
{
closed = 1;
nodes = (
"305 0 LINE SMOOTH",
"490 0 OFFCURVE",
"589 127 OFFCURVE",
"589 350 CURVE SMOOTH",
"589 573 OFFCURVE",
"491 700 OFFCURVE",
"306 700 CURVE SMOOTH",
"23 700 LINE",
"23 686 LINE",
"50 686 LINE SMOOTH",
"89 686 OFFCURVE",
"111 677 OFFCURVE",
"111 653 CURVE SMOOTH",
"111 47 LINE SMOOTH",
"111 23 OFFCURVE",
"89 14 OFFCURVE",
"50 14 CURVE SMOOTH",
"23 14 LINE",
"23 0 LINE"
);
},
{
closed = 1;
nodes = (
"143 678 LINE",
"305 678 LINE SMOOTH",
"479 678 OFFCURVE",
"558 546 OFFCURVE",
"558 350 CURVE SMOOTH",
"558 154 OFFCURVE",
"479 22 OFFCURVE",
"303 22 CURVE SMOOTH",
"143 22 LINE"
);
},
{
closed = 1;
nodes = (
"326 815 LINE",
"427 911 LINE",
"413 927 LINE",
"325 852 LINE",
"321 849 OFFCURVE",
"317 847 OFFCURVE",
"314 847 CURVE SMOOTH",
"311 847 OFFCURVE",
"307 849 OFFCURVE",
"303 852 CURVE",
"215 927 LINE",
"201 911 LINE",
"302 815 LINE"
);
}
);
width = 629;
}
);
note = Dcaron;
rightKerningGroup = D;
unicode = 010E;
},
{
glyphname = Dcroat;
lastChange = "2015-12-01 05:24:29 +0000";
layers = (
{
layerId = "DE721516-52ED-4FB4-A3DE-9EDE92CA8211";
name = Light;
paths = (
{
closed = 1;
nodes = (
"305 0 LINE SMOOTH",
"490 0 OFFCURVE",
"589 127 OFFCURVE",
"589 350 CURVE SMOOTH",
"589 573 OFFCURVE",
"491 700 OFFCURVE",
"306 700 CURVE SMOOTH",
"23 700 LINE",
"23 686 LINE",
"50 686 LINE SMOOTH",
"89 686 OFFCURVE",
"111 677 OFFCURVE",
"111 653 CURVE SMOOTH",
"111 47 LINE SMOOTH",
"111 23 OFFCURVE",
"89 14 OFFCURVE",
"50 14 CURVE SMOOTH",
"23 14 LINE",
"23 0 LINE"
);
},
{
closed = 1;
nodes = (
"143 678 LINE",
"305 678 LINE SMOOTH",
"479 678 OFFCURVE",
"558 546 OFFCURVE",
"558 350 CURVE SMOOTH",
"558 154 OFFCURVE",
"479 22 OFFCURVE",
"303 22 CURVE SMOOTH",
"143 22 LINE"
);
},
{
closed = 1;
nodes = (
"370 349 LINE",
"370 371 LINE",
"37 371 LINE",
"37 349 LINE"
);
}
);
width = 629;
}
);
note = Dcroat;
rightKerningGroup = D;
unicode = 0110;
},
{
glyphname = Ddotbelow;
lastChange = "2015-12-01 05:24:32 +0000";
layers = (
{
layerId = "DE721516-52ED-4FB4-A3DE-9EDE92CA8211";
name = Light;
paths = (
{
closed = 1;
nodes = (
"305 0 LINE SMOOTH",
"490 0 OFFCURVE",
"589 127 OFFCURVE",
"589 350 CURVE SMOOTH",
"589 573 OFFCURVE",
"491 700 OFFCURVE",
"306 700 CURVE SMOOTH",
"23 700 LINE",
"23 686 LINE",
"50 686 LINE SMOOTH",
"89 686 OFFCURVE",
"111 677 OFFCURVE",
"111 653 CURVE SMOOTH",
"111 47 LINE SMOOTH",
"111 23 OFFCURVE",
"89 14 OFFCURVE",
"50 14 CURVE SMOOTH",
"23 14 LINE",
"23 0 LINE"
);
},
{
closed = 1;
nodes = (
"143 678 LINE",
"305 678 LINE SMOOTH",
"479 678 OFFCURVE",
"558 546 OFFCURVE",
"558 350 CURVE SMOOTH",
"558 154 OFFCURVE",
"479 22 OFFCURVE",
"303 22 CURVE SMOOTH",
"143 22 LINE"
);
},
{
closed = 1;
nodes = (
"271 -113 OFFCURVE",
"283 -124 OFFCURVE",
"300 -124 CURVE SMOOTH",
"317 -124 OFFCURVE",
"329 -113 OFFCURVE",
"329 -94 CURVE SMOOTH",
"329 -75 OFFCURVE",
"317 -64 OFFCURVE",
"300 -64 CURVE SMOOTH",
"283 -64 OFFCURVE",
"271 -75 OFFCURVE",
"271 -94 CURVE SMOOTH"
);
}
);
width = 629;
}
);
note = Ddotbelow;
rightKerningGroup = D;
unicode = 1E0C;
},
{
glyphname = Dlinebelow;
lastChange = "2015-12-01 05:47:37 +0000";
layers = (
{
layerId = "DE721516-52ED-4FB4-A3DE-9EDE92CA8211";
name = Light;
paths = (
{
closed = 1;
nodes = (
"305 0 LINE SMOOTH",
"490 0 OFFCURVE",
"589 127 OFFCURVE",
"589 350 CURVE SMOOTH",
"589 573 OFFCURVE",
"491 700 OFFCURVE",
"306 700 CURVE SMOOTH",
"23 700 LINE",
"23 686 LINE",
"50 686 LINE SMOOTH",
"89 686 OFFCURVE",
"111 677 OFFCURVE",
"111 653 CURVE SMOOTH",
"111 47 LINE SMOOTH",
"111 23 OFFCURVE",
"89 14 OFFCURVE",
"50 14 CURVE SMOOTH",
"23 14 LINE",
"23 0 LINE"
);
},
{
closed = 1;
nodes = (
"143 678 LINE",
"305 678 LINE SMOOTH",
"479 678 OFFCURVE",
"558 546 OFFCURVE",
"558 350 CURVE SMOOTH",
"558 154 OFFCURVE",
"479 22 OFFCURVE",
"303 22 CURVE SMOOTH",
"143 22 LINE"
);
},
{
closed = 1;
nodes = (
"435 -98 LINE",
"435 -76 LINE",
"161 -76 LINE",
"161 -98 LINE"
);
}
);
width = 629;
}
);
note = Dlinebelow;
rightKerningGroup = D;
unicode = 1E0E;
},
{
glyphname = E;
lastChange = "2015-12-01 05:23:23 +0000";
layers = (
{
layerId = "DE721516-52ED-4FB4-A3DE-9EDE92CA8211";
name = Light;
paths = (
{
closed = 1;
nodes = (
"504 0 LINE",
"518 166 LINE",
"505 166 LINE",
"502 123 OFFCURVE",
"485 24 OFFCURVE",
"427 24 CURVE SMOOTH",
"140 24 LINE",
"140 676 LINE",
"422 676 LINE SMOOTH",
"482 676 OFFCURVE",
"489 589 OFFCURVE",
"491 546 CURVE",
"504 546 LINE",
"504 700 LINE",
"20 700 LINE",
"20 686 LINE",
"47 686 LINE SMOOTH",
"86 686 OFFCURVE",
"108 677 OFFCURVE",
"108 653 CURVE SMOOTH",
"108 47 LINE SMOOTH",
"108 23 OFFCURVE",
"86 14 OFFCURVE",
"47 14 CURVE SMOOTH",
"20 14 LINE",
"20 0 LINE"
);
},
{
closed = 1;
nodes = (
"418 258 LINE",
"418 488 LINE",
"404 488 LINE",
"400 434 OFFCURVE",
"397 385 OFFCURVE",
"353 385 CURVE SMOOTH",
"128 385 LINE",
"128 361 LINE",
"353 361 LINE SMOOTH",
"397 361 OFFCURVE",
"400 312 OFFCURVE",
"404 258 CURVE"
);
}
);
width = 558;
}
);
note = E;
unicode = 0045;
},
{
glyphname = Eacute;
lastChange = "2015-12-01 05:23:22 +0000";
layers = (
{
layerId = "DE721516-52ED-4FB4-A3DE-9EDE92CA8211";
name = Light;
paths = (
{
closed = 1;
nodes = (
"504 0 LINE",
"518 166 LINE",
"505 166 LINE",
"502 123 OFFCURVE",
"485 24 OFFCURVE",
"427 24 CURVE SMOOTH",
"140 24 LINE",
"140 676 LINE",
"422 676 LINE SMOOTH",
"482 676 OFFCURVE",
"489 589 OFFCURVE",
"491 546 CURVE",
"504 546 LINE",
"504 700 LINE",
"20 700 LINE",
"20 686 LINE",
"47 686 LINE SMOOTH",
"86 686 OFFCURVE",
"108 677 OFFCURVE",
"108 653 CURVE SMOOTH",
"108 47 LINE SMOOTH",
"108 23 OFFCURVE",
"86 14 OFFCURVE",
"47 14 CURVE SMOOTH",
"20 14 LINE",
"20 0 LINE"
);
},
{
closed = 1;
nodes = (
"418 258 LINE",
"418 488 LINE",
"404 488 LINE",
"400 434 OFFCURVE",
"397 385 OFFCURVE",
"353 385 CURVE SMOOTH",
"128 385 LINE",
"128 361 LINE",
"353 361 LINE SMOOTH",
"397 361 OFFCURVE",
"400 312 OFFCURVE",
"404 258 CURVE"
);
},
{
closed = 1;
nodes = (
"353 860 LINE SMOOTH",
"364 866 OFFCURVE",
"369 875 OFFCURVE",
"369 883 CURVE SMOOTH",
"369 892 OFFCURVE",
"362 897 OFFCURVE",
"355 897 CURVE SMOOTH",
"345 897 OFFCURVE",
"337 891 OFFCURVE",
"329 885 CURVE",
"222 798 LINE",
"229 788 LINE"
);
}
);
width = 558;
}
);
note = Eacute;
unicode = 00C9;
},
{
glyphname = Ebreve;
lastChange = "2015-12-01 05:23:23 +0000";
layers = (
{
layerId = "DE721516-52ED-4FB4-A3DE-9EDE92CA8211";
name = Light;
paths = (
{
closed = 1;
nodes = (
"504 0 LINE",
"518 166 LINE",
"505 166 LINE",
"502 123 OFFCURVE",
"485 24 OFFCURVE",
"427 24 CURVE SMOOTH",
"140 24 LINE",
"140 676 LINE",
"422 676 LINE SMOOTH",
"482 676 OFFCURVE",
"489 589 OFFCURVE",
"491 546 CURVE",
"504 546 LINE",
"504 700 LINE",
"20 700 LINE",
"20 686 LINE",
"47 686 LINE SMOOTH",
"86 686 OFFCURVE",
"108 677 OFFCURVE",
"108 653 CURVE SMOOTH",
"108 47 LINE SMOOTH",
"108 23 OFFCURVE",
"86 14 OFFCURVE",
"47 14 CURVE SMOOTH",
"20 14 LINE",
"20 0 LINE"
);
},
{
closed = 1;
nodes = (
"418 258 LINE",
"418 488 LINE",
"404 488 LINE",
"400 434 OFFCURVE",
"397 385 OFFCURVE",
"353 385 CURVE SMOOTH",
"128 385 LINE",
"128 361 LINE",
"353 361 LINE SMOOTH",
"397 361 OFFCURVE",
"400 312 OFFCURVE",
"404 258 CURVE"
);
},
{
closed = 1;
nodes = (
"365 776 OFFCURVE",
"417 811 OFFCURVE",
"423 889 CURVE",
"398 889 LINE",
"389 810 OFFCURVE",
"333 801 OFFCURVE",
"294 801 CURVE SMOOTH",
"255 801 OFFCURVE",
"199 810 OFFCURVE",
"190 889 CURVE",
"165 889 LINE",
"170 811 OFFCURVE",
"223 776 OFFCURVE",
"294 776 CURVE SMOOTH"
);
}
);
width = 558;
}
);
note = Ebreve;
unicode = 0114;
},
{
glyphname = Ecaron;
lastChange = "2015-12-01 05:23:24 +0000";
layers = (
{
layerId = "DE721516-52ED-4FB4-A3DE-9EDE92CA8211";
name = Light;
paths = (
{
closed = 1;
nodes = (
"504 0 LINE",
"518 166 LINE",
"505 166 LINE",
"502 123 OFFCURVE",
"485 24 OFFCURVE",
"427 24 CURVE SMOOTH",
"140 24 LINE",
"140 676 LINE",
"422 676 LINE SMOOTH",
"482 676 OFFCURVE",
"489 589 OFFCURVE",
"491 546 CURVE",
"504 546 LINE",
"504 700 LINE",
"20 700 LINE",
"20 686 LINE",
"47 686 LINE SMOOTH",
"86 686 OFFCURVE",
"108 677 OFFCURVE",
"108 653 CURVE SMOOTH",
"108 47 LINE SMOOTH",
"108 23 OFFCURVE",
"86 14 OFFCURVE",
"47 14 CURVE SMOOTH",
"20 14 LINE",
"20 0 LINE"
);
},
{
closed = 1;
nodes = (
"418 258 LINE",
"418 488 LINE",
"404 488 LINE",
"400 434 OFFCURVE",
"397 385 OFFCURVE",
"353 385 CURVE SMOOTH",
"128 385 LINE",
"128 361 LINE",
"353 361 LINE SMOOTH",
"397 361 OFFCURVE",
"400 312 OFFCURVE",
"404 258 CURVE"
);
},
{
closed = 1;
nodes = (
"306 787 LINE",
"407 883 LINE",
"393 899 LINE",
"305 824 LINE",
"301 821 OFFCURVE",
"297 819 OFFCURVE",
"294 819 CURVE SMOOTH",
"291 819 OFFCURVE",
"287 821 OFFCURVE",
"283 824 CURVE",
"195 899 LINE",
"181 883 LINE",
"282 787 LINE"
);
}
);
width = 558;
}
);
note = Ecaron;
unicode = 011A;
},
{
glyphname = Ecircumflex;
lastChange = "2015-12-01 05:23:22 +0000";
layers = (
{
layerId = "DE721516-52ED-4FB4-A3DE-9EDE92CA8211";
name = Light;
paths = (
{
closed = 1;
nodes = (
"504 0 LINE",
"518 166 LINE",
"505 166 LINE",
"502 123 OFFCURVE",
"485 24 OFFCURVE",
"427 24 CURVE SMOOTH",
"140 24 LINE",
"140 676 LINE",
"422 676 LINE SMOOTH",
"482 676 OFFCURVE",
"489 589 OFFCURVE",
"491 546 CURVE",
"504 546 LINE",
"504 700 LINE",
"20 700 LINE",
"20 686 LINE",
"47 686 LINE SMOOTH",
"86 686 OFFCURVE",
"108 677 OFFCURVE",
"108 653 CURVE SMOOTH",
"108 47 LINE SMOOTH",
"108 23 OFFCURVE",
"86 14 OFFCURVE",
"47 14 CURVE SMOOTH",
"20 14 LINE",
"20 0 LINE"
);
},
{
closed = 1;
nodes = (
"418 258 LINE",
"418 488 LINE",
"404 488 LINE",
"400 434 OFFCURVE",
"397 385 OFFCURVE",
"353 385 CURVE SMOOTH",
"128 385 LINE",
"128 361 LINE",
"353 361 LINE SMOOTH",
"397 361 OFFCURVE",
"400 312 OFFCURVE",
"404 258 CURVE"
);
},
{
closed = 1;
nodes = (
"283 862 LINE",
"287 865 OFFCURVE",
"291 867 OFFCURVE",
"294 867 CURVE SMOOTH",
"297 867 OFFCURVE",
"301 865 OFFCURVE",
"305 862 CURVE",
"393 787 LINE",
"407 803 LINE",
"306 899 LINE",
"282 899 LINE",
"181 803 LINE",
"195 787 LINE"
);
}
);
width = 558;
}
);
note = Ecircumflex;
unicode = 00CA;
},
{
glyphname = Ecircumflexacute;
lastChange = "2015-12-01 05:23:22 +0000";
layers = (
{
layerId = "DE721516-52ED-4FB4-A3DE-9EDE92CA8211";
name = Light;
paths = (
{
closed = 1;
nodes = (
"504 0 LINE",
"518 166 LINE",
"505 166 LINE",
"502 123 OFFCURVE",
"485 24 OFFCURVE",
"427 24 CURVE SMOOTH",
"140 24 LINE",
"140 676 LINE",
"422 676 LINE SMOOTH",
"482 676 OFFCURVE",
"489 589 OFFCURVE",
"491 546 CURVE",
"504 546 LINE",
"504 700 LINE",
"20 700 LINE",
"20 686 LINE",
"47 686 LINE SMOOTH",
"86 686 OFFCURVE",
"108 677 OFFCURVE",
"108 653 CURVE SMOOTH",
"108 47 LINE SMOOTH",
"108 23 OFFCURVE",
"86 14 OFFCURVE",
"47 14 CURVE SMOOTH",
"20 14 LINE",
"20 0 LINE"
);
},
{
closed = 1;
nodes = (
"418 258 LINE",
"418 488 LINE",
"404 488 LINE",
"400 434 OFFCURVE",
"397 385 OFFCURVE",
"353 385 CURVE SMOOTH",
"128 385 LINE",
"128 361 LINE",
"353 361 LINE SMOOTH",
"397 361 OFFCURVE",
"400 312 OFFCURVE",
"404 258 CURVE"
);
},
{
closed = 1;
nodes = (
"284 862 LINE",
"288 865 OFFCURVE",
"292 867 OFFCURVE",
"295 867 CURVE SMOOTH",
"298 867 OFFCURVE",
"302 865 OFFCURVE",
"306 862 CURVE",
"394 787 LINE",
"408 803 LINE",
"307 899 LINE",
"283 899 LINE",
"182 803 LINE",
"196 787 LINE"
);
},
{
closed = 1;
nodes = (
"512 951 LINE SMOOTH",
"523 957 OFFCURVE",
"528 967 OFFCURVE",
"528 974 CURVE SMOOTH",
"528 983 OFFCURVE",
"521 988 OFFCURVE",
"513 988 CURVE SMOOTH",
"503 988 OFFCURVE",
"493 982 OFFCURVE",
"486 976 CURVE SMOOTH",
"380 888 LINE",
"388 878 LINE"
);
}
);
width = 558;
}
);
note = Ecircumflexacute;
unicode = 1EBE;
},
{
glyphname = Ecircumflexdotbelow;
lastChange = "2015-12-01 05:23:24 +0000";
layers = (
{
layerId = "DE721516-52ED-4FB4-A3DE-9EDE92CA8211";
name = Light;
paths = (
{
closed = 1;
nodes = (
"504 0 LINE",
"518 166 LINE",
"505 166 LINE",
"502 123 OFFCURVE",
"485 24 OFFCURVE",
"427 24 CURVE SMOOTH",
"140 24 LINE",
"140 676 LINE",
"422 676 LINE SMOOTH",
"482 676 OFFCURVE",
"489 589 OFFCURVE",
"491 546 CURVE",
"504 546 LINE",
"504 700 LINE",
"20 700 LINE",
"20 686 LINE",
"47 686 LINE SMOOTH",
"86 686 OFFCURVE",
"108 677 OFFCURVE",
"108 653 CURVE SMOOTH",
"108 47 LINE SMOOTH",
"108 23 OFFCURVE",
"86 14 OFFCURVE",
"47 14 CURVE SMOOTH",
"20 14 LINE",
"20 0 LINE"
);
},
{
closed = 1;
nodes = (
"315 -124 OFFCURVE",
"327 -113 OFFCURVE",
"327 -94 CURVE SMOOTH",
"327 -75 OFFCURVE",
"315 -64 OFFCURVE",
"298 -64 CURVE SMOOTH",
"281 -64 OFFCURVE",
"269 -75 OFFCURVE",
"269 -94 CURVE SMOOTH",
"269 -113 OFFCURVE",
"281 -124 OFFCURVE",
"298 -124 CURVE SMOOTH"
);
},
{
closed = 1;
nodes = (
"418 258 LINE",
"418 488 LINE",
"404 488 LINE",
"400 434 OFFCURVE",
"397 385 OFFCURVE",
"353 385 CURVE SMOOTH",
"128 385 LINE",
"128 361 LINE",
"353 361 LINE SMOOTH",
"397 361 OFFCURVE",
"400 312 OFFCURVE",
"404 258 CURVE"
);
},
{
closed = 1;
nodes = (
"284 862 LINE",
"288 865 OFFCURVE",
"292 867 OFFCURVE",
"295 867 CURVE SMOOTH",
"298 867 OFFCURVE",
"302 865 OFFCURVE",
"306 862 CURVE",
"394 787 LINE",
"408 803 LINE",
"307 899 LINE",
"283 899 LINE",
"182 803 LINE",
"196 787 LINE"
);
}
);
width = 558;
}
);
note = Ecircumflexdotbelow;
unicode = 1EC6;
},
{
glyphname = Ecircumflexgrave;
lastChange = "2015-12-01 05:23:22 +0000";
layers = (
{
layerId = "DE721516-52ED-4FB4-A3DE-9EDE92CA8211";
name = Light;
paths = (
{
closed = 1;
nodes = (
"504 0 LINE",
"518 166 LINE",
"505 166 LINE",
"502 123 OFFCURVE",
"485 24 OFFCURVE",
"427 24 CURVE SMOOTH",
"140 24 LINE",
"140 676 LINE",
"422 676 LINE SMOOTH",
"482 676 OFFCURVE",
"489 589 OFFCURVE",
"491 546 CURVE",
"504 546 LINE",
"504 700 LINE",
"20 700 LINE",
"20 686 LINE",
"47 686 LINE SMOOTH",
"86 686 OFFCURVE",
"108 677 OFFCURVE",
"108 653 CURVE SMOOTH",
"108 47 LINE SMOOTH",
"108 23 OFFCURVE",
"86 14 OFFCURVE",
"47 14 CURVE SMOOTH",
"20 14 LINE",
"20 0 LINE"
);
},
{
closed = 1;
nodes = (
"418 258 LINE",
"418 488 LINE",
"404 488 LINE",
"400 434 OFFCURVE",
"397 385 OFFCURVE",
"353 385 CURVE SMOOTH",
"128 385 LINE",
"128 361 LINE",
"353 361 LINE SMOOTH",
"397 361 OFFCURVE",
"400 312 OFFCURVE",
"404 258 CURVE"
);
},
{
closed = 1;
nodes = (
"222 888 LINE",
"116 976 LINE SMOOTH",
"109 982 OFFCURVE",
"99 988 OFFCURVE",
"89 988 CURVE SMOOTH",
"81 988 OFFCURVE",
"74 983 OFFCURVE",
"74 974 CURVE SMOOTH",
"74 967 OFFCURVE",
"79 958 OFFCURVE",
"90 951 CURVE SMOOTH",
"214 878 LINE"
);
},
{
closed = 1;
nodes = (
"284 862 LINE",
"288 865 OFFCURVE",
"292 867 OFFCURVE",
"295 867 CURVE SMOOTH",
"298 867 OFFCURVE",
"302 865 OFFCURVE",
"306 862 CURVE",
"394 787 LINE",
"408 803 LINE",
"307 899 LINE",
"283 899 LINE",
"182 803 LINE",
"196 787 LINE"
);
}
);
width = 558;
}
);
note = Ecircumflexgrave;
unicode = 1EC0;
},
{
glyphname = Ecircumflexhookabove;
lastChange = "2015-12-01 05:23:24 +0000";
layers = (
{
layerId = "DE721516-52ED-4FB4-A3DE-9EDE92CA8211";
name = Light;
paths = (
{
closed = 1;
nodes = (
"504 0 LINE",
"518 166 LINE",
"505 166 LINE",
"502 123 OFFCURVE",
"485 24 OFFCURVE",
"427 24 CURVE SMOOTH",
"140 24 LINE",
"140 676 LINE",
"422 676 LINE SMOOTH",
"482 676 OFFCURVE",
"489 589 OFFCURVE",
"491 546 CURVE",
"504 546 LINE",
"504 700 LINE",
"20 700 LINE",
"20 686 LINE",
"47 686 LINE SMOOTH",
"86 686 OFFCURVE",
"108 677 OFFCURVE",
"108 653 CURVE SMOOTH",
"108 47 LINE SMOOTH",
"108 23 OFFCURVE",
"86 14 OFFCURVE",
"47 14 CURVE SMOOTH",
"20 14 LINE",
"20 0 LINE"
);
},
{
closed = 1;
nodes = (
"418 258 LINE",
"418 488 LINE",
"404 488 LINE",
"400 434 OFFCURVE",
"397 385 OFFCURVE",
"353 385 CURVE SMOOTH",
"128 385 LINE",
"128 361 LINE",
"353 361 LINE SMOOTH",
"397 361 OFFCURVE",
"400 312 OFFCURVE",
"404 258 CURVE"
);
},
{
closed = 1;
nodes = (
"284 862 LINE",
"288 865 OFFCURVE",
"292 867 OFFCURVE",
"295 867 CURVE SMOOTH",
"298 867 OFFCURVE",
"302 865 OFFCURVE",
"306 862 CURVE",
"394 787 LINE",
"408 803 LINE",
"307 899 LINE",
"283 899 LINE",
"182 803 LINE",
"196 787 LINE"
);
},
{
closed = 1;
nodes = (
"437 872 LINE",
"421 874 OFFCURVE",
"403 879 OFFCURVE",
"403 895 CURVE SMOOTH",
"403 920 OFFCURVE",
"473 935 OFFCURVE",
"473 973 CURVE SMOOTH",
"473 1003 OFFCURVE",
"443 1016 OFFCURVE",
"411 1016 CURVE SMOOTH",
"379 1016 OFFCURVE",
"345 1004 OFFCURVE",
"345 981 CURVE SMOOTH",
"345 972 OFFCURVE",
"352 967 OFFCURVE",
"359 967 CURVE SMOOTH",
"371 967 OFFCURVE",
"374 975 OFFCURVE",
"376 983 CURVE SMOOTH",
"378 992 OFFCURVE",
"384 999 OFFCURVE",
"412 1001 CURVE SMOOTH",
"435 1001 OFFCURVE",
"451 988 OFFCURVE",
"451 975 CURVE SMOOTH",
"451 941 OFFCURVE",
"381 932 OFFCURVE",
"381 897 CURVE SMOOTH",
"381 877 OFFCURVE",
"393 860 OFFCURVE",
"430 860 CURVE"
);
}
);
width = 558;
}
);
note = Ecircumflexhookabove;
unicode = 1EC2;
},
{
glyphname = Ecircumflextilde;
lastChange = "2015-12-01 05:23:23 +0000";
layers = (
{
layerId = "DE721516-52ED-4FB4-A3DE-9EDE92CA8211";
name = Light;
paths = (
{
closed = 1;
nodes = (
"504 0 LINE",
"518 166 LINE",
"505 166 LINE",
"502 123 OFFCURVE",
"485 24 OFFCURVE",
"427 24 CURVE SMOOTH",
"140 24 LINE",
"140 676 LINE",
"422 676 LINE SMOOTH",
"482 676 OFFCURVE",
"489 589 OFFCURVE",
"491 546 CURVE",
"504 546 LINE",
"504 700 LINE",
"20 700 LINE",
"20 686 LINE",
"47 686 LINE SMOOTH",
"86 686 OFFCURVE",
"108 677 OFFCURVE",
"108 653 CURVE SMOOTH",
"108 47 LINE SMOOTH",
"108 23 OFFCURVE",
"86 14 OFFCURVE",
"47 14 CURVE SMOOTH",
"20 14 LINE",
"20 0 LINE"
);
},
{
closed = 1;
nodes = (
"418 258 LINE",
"418 488 LINE",
"404 488 LINE",
"400 434 OFFCURVE",
"397 385 OFFCURVE",
"353 385 CURVE SMOOTH",
"128 385 LINE",
"128 361 LINE",
"353 361 LINE SMOOTH",
"397 361 OFFCURVE",
"400 312 OFFCURVE",
"404 258 CURVE"
);
},
{
closed = 1;
nodes = (
"284 862 LINE",
"288 865 OFFCURVE",
"292 867 OFFCURVE",
"295 867 CURVE SMOOTH",
"298 867 OFFCURVE",
"302 865 OFFCURVE",
"306 862 CURVE",
"394 787 LINE",
"408 803 LINE",
"307 899 LINE",
"283 899 LINE",
"182 803 LINE",
"196 787 LINE"
);
},
{
closed = 1;
nodes = (
"185 970 OFFCURVE",
"204 994 OFFCURVE",
"233 994 CURVE SMOOTH",
"274 994 OFFCURVE",
"318 934 OFFCURVE",
"361 934 CURVE SMOOTH",
"402 934 OFFCURVE",
"428 961 OFFCURVE",
"437 1017 CURVE",
"422 1024 LINE",
"412 984 OFFCURVE",
"396 958 OFFCURVE",
"364 958 CURVE SMOOTH",
"325 958 OFFCURVE",
"278 1017 OFFCURVE",
"235 1017 CURVE SMOOTH",
"199 1017 OFFCURVE",
"168 995 OFFCURVE",
"161 940 CURVE",
"175 932 LINE"
);
}
);
width = 558;
}
);
note = Ecircumflextilde;
unicode = 1EC4;
},
{
glyphname = Edieresis;
lastChange = "2015-12-01 05:23:23 +0000";
layers = (
{
layerId = "DE721516-52ED-4FB4-A3DE-9EDE92CA8211";
name = Light;
paths = (
{
closed = 1;
nodes = (
"504 0 LINE",
"518 166 LINE",
"505 166 LINE",
"502 123 OFFCURVE",
"485 24 OFFCURVE",
"427 24 CURVE SMOOTH",
"140 24 LINE",
"140 676 LINE",
"422 676 LINE SMOOTH",
"482 676 OFFCURVE",
"489 589 OFFCURVE",
"491 546 CURVE",
"504 546 LINE",
"504 700 LINE",
"20 700 LINE",
"20 686 LINE",
"47 686 LINE SMOOTH",
"86 686 OFFCURVE",
"108 677 OFFCURVE",
"108 653 CURVE SMOOTH",
"108 47 LINE SMOOTH",
"108 23 OFFCURVE",
"86 14 OFFCURVE",
"47 14 CURVE SMOOTH",
"20 14 LINE",
"20 0 LINE"
);
},
{
closed = 1;
nodes = (
"418 258 LINE",
"418 488 LINE",
"404 488 LINE",
"400 434 OFFCURVE",
"397 385 OFFCURVE",
"353 385 CURVE SMOOTH",
"128 385 LINE",
"128 361 LINE",
"353 361 LINE SMOOTH",
"397 361 OFFCURVE",
"400 312 OFFCURVE",
"404 258 CURVE"
);
},
{
closed = 1;
nodes = (
"213 785 OFFCURVE",
"225 796 OFFCURVE",
"225 815 CURVE SMOOTH",
"225 834 OFFCURVE",
"213 845 OFFCURVE",
"196 845 CURVE SMOOTH",
"179 845 OFFCURVE",
"167 834 OFFCURVE",
"167 815 CURVE SMOOTH",
"167 796 OFFCURVE",
"179 785 OFFCURVE",
"196 785 CURVE SMOOTH"
);
},
{
closed = 1;
nodes = (
"409 785 OFFCURVE",
"421 796 OFFCURVE",
"421 815 CURVE SMOOTH",
"421 834 OFFCURVE",
"409 845 OFFCURVE",
"392 845 CURVE SMOOTH",
"375 845 OFFCURVE",
"363 834 OFFCURVE",
"363 815 CURVE SMOOTH",
"363 796 OFFCURVE",
"375 785 OFFCURVE",
"392 785 CURVE SMOOTH"
);
}
);
width = 558;
}
);
note = Edieresis;
unicode = 00CB;
},
{
glyphname = Edotaccent;
lastChange = "2015-12-01 05:23:22 +0000";
layers = (
{
layerId = "DE721516-52ED-4FB4-A3DE-9EDE92CA8211";
name = Light;
paths = (
{
closed = 1;
nodes = (
"504 0 LINE",
"518 166 LINE",
"505 166 LINE",
"502 123 OFFCURVE",
"485 24 OFFCURVE",
"427 24 CURVE SMOOTH",
"140 24 LINE",
"140 676 LINE",
"422 676 LINE SMOOTH",
"482 676 OFFCURVE",
"489 589 OFFCURVE",
"491 546 CURVE",
"504 546 LINE",
"504 700 LINE",
"20 700 LINE",
"20 686 LINE",
"47 686 LINE SMOOTH",
"86 686 OFFCURVE",
"108 677 OFFCURVE",
"108 653 CURVE SMOOTH",
"108 47 LINE SMOOTH",
"108 23 OFFCURVE",
"86 14 OFFCURVE",
"47 14 CURVE SMOOTH",
"20 14 LINE",
"20 0 LINE"
);
},
{
closed = 1;
nodes = (
"418 258 LINE",
"418 488 LINE",
"404 488 LINE",
"400 434 OFFCURVE",
"397 385 OFFCURVE",
"353 385 CURVE SMOOTH",
"128 385 LINE",
"128 361 LINE",
"353 361 LINE SMOOTH",
"397 361 OFFCURVE",
"400 312 OFFCURVE",
"404 258 CURVE"
);
},
{
closed = 1;
nodes = (
"311 759 OFFCURVE",
"323 770 OFFCURVE",
"323 789 CURVE SMOOTH",
"323 808 OFFCURVE",
"311 819 OFFCURVE",
"294 819 CURVE SMOOTH",
"277 819 OFFCURVE",
"265 808 OFFCURVE",
"265 789 CURVE SMOOTH",
"265 770 OFFCURVE",
"277 759 OFFCURVE",
"294 759 CURVE SMOOTH"
);
}
);
width = 558;
}
);
note = Edotaccent;
unicode = 0116;
},
{
glyphname = Edotbelow;
lastChange = "2015-12-01 05:23:24 +0000";
layers = (
{
layerId = "DE721516-52ED-4FB4-A3DE-9EDE92CA8211";
name = Light;
paths = (
{
closed = 1;
nodes = (
"504 0 LINE",
"518 166 LINE",
"505 166 LINE",
"502 123 OFFCURVE",
"485 24 OFFCURVE",
"427 24 CURVE SMOOTH",
"140 24 LINE",
"140 676 LINE",
"422 676 LINE SMOOTH",
"482 676 OFFCURVE",
"489 589 OFFCURVE",
"491 546 CURVE",
"504 546 LINE",
"504 700 LINE",
"20 700 LINE",
"20 686 LINE",
"47 686 LINE SMOOTH",
"86 686 OFFCURVE",
"108 677 OFFCURVE",
"108 653 CURVE SMOOTH",
"108 47 LINE SMOOTH",
"108 23 OFFCURVE",
"86 14 OFFCURVE",
"47 14 CURVE SMOOTH",
"20 14 LINE",
"20 0 LINE"
);
},
{
closed = 1;
nodes = (
"315 -124 OFFCURVE",
"327 -113 OFFCURVE",
"327 -94 CURVE SMOOTH",
"327 -75 OFFCURVE",
"315 -64 OFFCURVE",
"298 -64 CURVE SMOOTH",
"281 -64 OFFCURVE",
"269 -75 OFFCURVE",
"269 -94 CURVE SMOOTH",
"269 -113 OFFCURVE",
"281 -124 OFFCURVE",
"298 -124 CURVE SMOOTH"
);
},
{
closed = 1;
nodes = (
"418 258 LINE",
"418 488 LINE",
"404 488 LINE",
"400 434 OFFCURVE",
"397 385 OFFCURVE",
"353 385 CURVE SMOOTH",
"128 385 LINE",
"128 361 LINE",
"353 361 LINE SMOOTH",
"397 361 OFFCURVE",
"400 312 OFFCURVE",
"404 258 CURVE"
);
}
);
width = 558;
}
);
note = Edotbelow;
unicode = 1EB8;
},
{
glyphname = Egrave;
lastChange = "2015-12-01 05:23:22 +0000";
layers = (
{
layerId = "DE721516-52ED-4FB4-A3DE-9EDE92CA8211";
name = Light;
paths = (
{
closed = 1;
nodes = (
"504 0 LINE",
"518 166 LINE",
"505 166 LINE",
"502 123 OFFCURVE",
"485 24 OFFCURVE",
"427 24 CURVE SMOOTH",
"140 24 LINE",
"140 676 LINE",
"422 676 LINE SMOOTH",
"482 676 OFFCURVE",
"489 589 OFFCURVE",
"491 546 CURVE",
"504 546 LINE",
"504 700 LINE",
"20 700 LINE",
"20 686 LINE",
"47 686 LINE SMOOTH",
"86 686 OFFCURVE",
"108 677 OFFCURVE",
"108 653 CURVE SMOOTH",
"108 47 LINE SMOOTH",
"108 23 OFFCURVE",
"86 14 OFFCURVE",
"47 14 CURVE SMOOTH",
"20 14 LINE",
"20 0 LINE"
);
},
{
closed = 1;
nodes = (
"418 258 LINE",
"418 488 LINE",
"404 488 LINE",
"400 434 OFFCURVE",
"397 385 OFFCURVE",
"353 385 CURVE SMOOTH",
"128 385 LINE",
"128 361 LINE",
"353 361 LINE SMOOTH",
"397 361 OFFCURVE",
"400 312 OFFCURVE",
"404 258 CURVE"
);
},
{
closed = 1;
nodes = (
"367 798 LINE",
"260 885 LINE",
"252 891 OFFCURVE",
"244 897 OFFCURVE",
"234 897 CURVE SMOOTH",
"227 897 OFFCURVE",
"220 892 OFFCURVE",
"220 883 CURVE SMOOTH",
"220 875 OFFCURVE",
"225 866 OFFCURVE",
"236 860 CURVE SMOOTH",
"360 788 LINE"
);
}
);
width = 558;
}
);
note = Egrave;
unicode = 00C8;
},
{
glyphname = Ehookabove;
lastChange = "2015-12-01 05:23:21 +0000";
layers = (
{
layerId = "DE721516-52ED-4FB4-A3DE-9EDE92CA8211";
name = Light;
paths = (
{
closed = 1;
nodes = (
"504 0 LINE",
"518 166 LINE",
"505 166 LINE",
"502 123 OFFCURVE",
"485 24 OFFCURVE",
"427 24 CURVE SMOOTH",
"140 24 LINE",
"140 676 LINE",
"422 676 LINE SMOOTH",
"482 676 OFFCURVE",
"489 589 OFFCURVE",
"491 546 CURVE",
"504 546 LINE",
"504 700 LINE",
"20 700 LINE",
"20 686 LINE",
"47 686 LINE SMOOTH",
"86 686 OFFCURVE",
"108 677 OFFCURVE",
"108 653 CURVE SMOOTH",
"108 47 LINE SMOOTH",
"108 23 OFFCURVE",
"86 14 OFFCURVE",
"47 14 CURVE SMOOTH",
"20 14 LINE",
"20 0 LINE"
);
},
{
closed = 1;
nodes = (
"418 258 LINE",
"418 488 LINE",
"404 488 LINE",
"400 434 OFFCURVE",
"397 385 OFFCURVE",
"353 385 CURVE SMOOTH",
"128 385 LINE",
"128 361 LINE",
"353 361 LINE SMOOTH",
"397 361 OFFCURVE",
"400 312 OFFCURVE",
"404 258 CURVE"
);
},
{
closed = 1;
nodes = (
"319 794 LINE",
"302 799 OFFCURVE",
"292 802 OFFCURVE",
"292 821 CURVE SMOOTH",
"292 851 OFFCURVE",
"368 869 OFFCURVE",
"368 915 CURVE SMOOTH",
"368 951 OFFCURVE",
"337 966 OFFCURVE",
"298 966 CURVE SMOOTH",
"258 966 OFFCURVE",
"228 949 OFFCURVE",
"228 924 CURVE SMOOTH",
"228 910 OFFCURVE",
"233 905 OFFCURVE",
"242 905 CURVE SMOOTH",
"254 905 OFFCURVE",
"256 910 OFFCURVE",
"261 927 CURVE",
"266 942 OFFCURVE",
"284 947 OFFCURVE",
"300 947 CURVE SMOOTH",
"328 947 OFFCURVE",
"337 933 OFFCURVE",
"337 917 CURVE SMOOTH",
"337 876 OFFCURVE",
"262 863 OFFCURVE",
"262 821 CURVE SMOOTH",
"262 797 OFFCURVE",
"280 779 OFFCURVE",
"312 779 CURVE"
);
}
);
width = 558;
}
);
note = Ehookabove;
unicode = 1EBA;
},
{
glyphname = Emacron;
lastChange = "2015-12-01 05:23:21 +0000";
layers = (
{
layerId = "DE721516-52ED-4FB4-A3DE-9EDE92CA8211";
name = Light;
paths = (
{
closed = 1;
nodes = (
"504 0 LINE",
"518 166 LINE",
"505 166 LINE",
"502 123 OFFCURVE",
"485 24 OFFCURVE",
"427 24 CURVE SMOOTH",
"140 24 LINE",
"140 676 LINE",
"422 676 LINE SMOOTH",
"482 676 OFFCURVE",
"489 589 OFFCURVE",
"491 546 CURVE",
"504 546 LINE",
"504 700 LINE",
"20 700 LINE",
"20 686 LINE",
"47 686 LINE SMOOTH",
"86 686 OFFCURVE",
"108 677 OFFCURVE",
"108 653 CURVE SMOOTH",
"108 47 LINE SMOOTH",
"108 23 OFFCURVE",
"86 14 OFFCURVE",
"47 14 CURVE SMOOTH",
"20 14 LINE",
"20 0 LINE"
);
},
{
closed = 1;
nodes = (
"418 258 LINE",
"418 488 LINE",
"404 488 LINE",
"400 434 OFFCURVE",
"397 385 OFFCURVE",
"353 385 CURVE SMOOTH",
"128 385 LINE",
"128 361 LINE",
"353 361 LINE SMOOTH",
"397 361 OFFCURVE",
"400 312 OFFCURVE",
"404 258 CURVE"
);
},
{
closed = 1;
nodes = (
"430 787 LINE",
"430 809 LINE",
"156 809 LINE",
"156 787 LINE"
);
}
);
width = 558;
}
);
note = Emacron;
unicode = 0112;
},
{
glyphname = Eogonek;
lastChange = "2015-12-01 05:23:23 +0000";
layers = (
{
layerId = "DE721516-52ED-4FB4-A3DE-9EDE92CA8211";
name = Light;
paths = (
{
closed = 1;
nodes = (
"504 0 LINE",
"518 166 LINE",
"505 166 LINE",
"502 123 OFFCURVE",
"485 24 OFFCURVE",
"427 24 CURVE SMOOTH",
"140 24 LINE",
"140 676 LINE",
"422 676 LINE SMOOTH",
"482 676 OFFCURVE",
"489 589 OFFCURVE",
"491 546 CURVE",
"504 546 LINE",
"504 700 LINE",
"20 700 LINE",
"20 686 LINE",
"47 686 LINE SMOOTH",
"86 686 OFFCURVE",
"108 677 OFFCURVE",
"108 653 CURVE SMOOTH",
"108 47 LINE SMOOTH",
"108 23 OFFCURVE",
"86 14 OFFCURVE",
"47 14 CURVE SMOOTH",
"20 14 LINE",
"20 0 LINE"
);
},
{
closed = 1;
nodes = (
"448 -166 OFFCURVE",
"461 -163 OFFCURVE",
"483 -157 CURVE",
"483 -141 LINE",
"467 -146 OFFCURVE",
"453 -148 OFFCURVE",
"440 -148 CURVE SMOOTH",
"409 -148 OFFCURVE",
"380 -135 OFFCURVE",
"380 -97 CURVE SMOOTH",
"380 -57 OFFCURVE",
"410 -20 OFFCURVE",
"451 0 CURVE",
"425 0 LINE",
"381 -20 OFFCURVE",
"353 -54 OFFCURVE",
"353 -98 CURVE SMOOTH",
"353 -128 OFFCURVE",
"371 -166 OFFCURVE",
"427 -166 CURVE SMOOTH"
);
},
{
closed = 1;
nodes = (
"418 258 LINE",
"418 488 LINE",
"404 488 LINE",
"400 434 OFFCURVE",
"397 385 OFFCURVE",
"353 385 CURVE SMOOTH",
"128 385 LINE",
"128 361 LINE",
"353 361 LINE SMOOTH",
"397 361 OFFCURVE",
"400 312 OFFCURVE",
"404 258 CURVE"
);
}
);
width = 558;
}
);
note = Eogonek;
unicode = 0118;
},
{
glyphname = Etilde;
lastChange = "2015-12-01 05:23:23 +0000";
layers = (
{
layerId = "DE721516-52ED-4FB4-A3DE-9EDE92CA8211";
name = Light;
paths = (
{
closed = 1;
nodes = (
"504 0 LINE",
"518 166 LINE",
"505 166 LINE",
"502 123 OFFCURVE",
"485 24 OFFCURVE",
"427 24 CURVE SMOOTH",
"140 24 LINE",
"140 676 LINE",
"422 676 LINE SMOOTH",
"482 676 OFFCURVE",
"489 589 OFFCURVE",
"491 546 CURVE",
"504 546 LINE",
"504 700 LINE",
"20 700 LINE",
"20 686 LINE",
"47 686 LINE SMOOTH",
"86 686 OFFCURVE",
"108 677 OFFCURVE",
"108 653 CURVE SMOOTH",
"108 47 LINE SMOOTH",
"108 23 OFFCURVE",
"86 14 OFFCURVE",
"47 14 CURVE SMOOTH",
"20 14 LINE",
"20 0 LINE"
);
},
{
closed = 1;
nodes = (
"418 258 LINE",
"418 488 LINE",
"404 488 LINE",
"400 434 OFFCURVE",
"397 385 OFFCURVE",
"353 385 CURVE SMOOTH",
"128 385 LINE",
"128 361 LINE",
"353 361 LINE SMOOTH",
"397 361 OFFCURVE",
"400 312 OFFCURVE",
"404 258 CURVE"
);
},
{
closed = 1;
nodes = (
"174 823 OFFCURVE",
"193 847 OFFCURVE",
"222 847 CURVE SMOOTH",
"263 847 OFFCURVE",
"307 787 OFFCURVE",
"350 787 CURVE SMOOTH",
"391 787 OFFCURVE",
"417 814 OFFCURVE",
"426 870 CURVE",
"411 877 LINE",
"401 837 OFFCURVE",
"385 811 OFFCURVE",
"353 811 CURVE SMOOTH",
"314 811 OFFCURVE",
"267 870 OFFCURVE",
"224 870 CURVE SMOOTH",
"188 870 OFFCURVE",
"157 848 OFFCURVE",
"150 793 CURVE",
"164 785 LINE"
);
}
);
width = 558;
}
);
note = Etilde;
unicode = 1EBC;
},
{
glyphname = F;
lastChange = "2015-12-01 05:23:23 +0000";
layers = (
{
layerId = "DE721516-52ED-4FB4-A3DE-9EDE92CA8211";
name = Light;
paths = (
{
closed = 1;
nodes = (
"228 0 LINE",
"228 14 LINE",
"201 14 LINE SMOOTH",
"162 14 OFFCURVE",
"140 23 OFFCURVE",
"140 47 CURVE SMOOTH",
"140 676 LINE",
"422 676 LINE SMOOTH",
"482 676 OFFCURVE",
"489 589 OFFCURVE",
"491 546 CURVE",
"504 546 LINE",
"504 700 LINE",
"20 700 LINE",
"20 686 LINE",
"47 686 LINE SMOOTH",
"86 686 OFFCURVE",
"108 677 OFFCURVE",
"108 653 CURVE SMOOTH",
"108 47 LINE SMOOTH",
"108 23 OFFCURVE",
"86 14 OFFCURVE",
"47 14 CURVE SMOOTH",
"20 14 LINE",
"20 0 LINE"
);
},
{
closed = 1;
nodes = (
"393 235 LINE",
"393 465 LINE",
"379 465 LINE",
"375 411 OFFCURVE",
"372 362 OFFCURVE",
"328 362 CURVE SMOOTH",
"129 362 LINE",
"129 338 LINE",
"328 338 LINE SMOOTH",
"372 338 OFFCURVE",
"375 289 OFFCURVE",
"379 235 CURVE"
);
}
);
width = 517;
}
);
note = F;
unicode = 0046;
},
{
glyphname = G;
lastChange = "2015-12-01 05:23:18 +0000";
layers = (
{
layerId = "DE721516-52ED-4FB4-A3DE-9EDE92CA8211";
name = Light;
paths = (
{
closed = 1;
nodes = (
"495 -10 OFFCURVE",
"562 34 OFFCURVE",
"601 72 CURVE",
"601 288 LINE SMOOTH",
"601 332 OFFCURVE",
"623 339 OFFCURVE",
"658 339 CURVE",
"658 353 LINE",
"468 353 LINE",
"468 339 LINE",
"522 335 OFFCURVE",
"571 332 OFFCURVE",
"571 288 CURVE SMOOTH",
"571 82 LINE",
"514 26 OFFCURVE",
"417 14 OFFCURVE",
"361 14 CURVE SMOOTH",
"164 14 OFFCURVE",
"81 156 OFFCURVE",
"81 350 CURVE SMOOTH",
"81 546 OFFCURVE",
"174 686 OFFCURVE",
"367 686 CURVE SMOOTH",
"484 686 OFFCURVE",
"565 622 OFFCURVE",
"574 531 CURVE",
"587 531 LINE",
"587 705 LINE",
"567 705 LINE",
"567 663 LINE SMOOTH",
"567 649 OFFCURVE",
"563 644 OFFCURVE",
"558 644 CURVE SMOOTH",
"555 644 OFFCURVE",
"552 647 OFFCURVE",
"549 649 CURVE",
"525 668 OFFCURVE",
"461 710 OFFCURVE",
"367 710 CURVE SMOOTH",
"174 710 OFFCURVE",
"50 583 OFFCURVE",
"50 350 CURVE SMOOTH",
"50 117 OFFCURVE",
"163 -10 OFFCURVE",
"352 -10 CURVE SMOOTH"
);
}
);
width = 668;
}
);
leftKerningGroup = G;
note = G;
unicode = 0047;
},
{
glyphname = Gbreve;
lastChange = "2015-12-01 05:23:23 +0000";
layers = (
{
layerId = "DE721516-52ED-4FB4-A3DE-9EDE92CA8211";
name = Light;
paths = (
{
closed = 1;
nodes = (
"495 -10 OFFCURVE",
"562 34 OFFCURVE",
"601 72 CURVE",
"601 288 LINE SMOOTH",
"601 332 OFFCURVE",
"623 339 OFFCURVE",
"658 339 CURVE",
"658 353 LINE",
"468 353 LINE",
"468 339 LINE",
"522 335 OFFCURVE",
"571 332 OFFCURVE",
"571 288 CURVE SMOOTH",
"571 82 LINE",
"514 26 OFFCURVE",
"417 14 OFFCURVE",
"361 14 CURVE SMOOTH",
"164 14 OFFCURVE",
"81 156 OFFCURVE",
"81 350 CURVE SMOOTH",
"81 546 OFFCURVE",
"174 686 OFFCURVE",
"367 686 CURVE SMOOTH",
"484 686 OFFCURVE",
"565 622 OFFCURVE",
"574 531 CURVE",
"587 531 LINE",
"587 705 LINE",
"567 705 LINE",
"567 663 LINE SMOOTH",
"567 649 OFFCURVE",
"563 644 OFFCURVE",
"558 644 CURVE SMOOTH",
"555 644 OFFCURVE",
"552 647 OFFCURVE",
"549 649 CURVE",
"525 668 OFFCURVE",
"461 710 OFFCURVE",
"367 710 CURVE SMOOTH",
"174 710 OFFCURVE",
"50 583 OFFCURVE",
"50 350 CURVE SMOOTH",
"50 117 OFFCURVE",
"163 -10 OFFCURVE",
"352 -10 CURVE SMOOTH"
);
},
{
closed = 1;
nodes = (
"429 804 OFFCURVE",
"481 839 OFFCURVE",
"487 917 CURVE",
"462 917 LINE",
"453 838 OFFCURVE",
"397 829 OFFCURVE",
"358 829 CURVE SMOOTH",
"319 829 OFFCURVE",
"263 838 OFFCURVE",
"254 917 CURVE",
"229 917 LINE",
"234 839 OFFCURVE",
"287 804 OFFCURVE",
"358 804 CURVE SMOOTH"
);
}
);
width = 668;
}
);
leftKerningGroup = G;
note = Gbreve;
unicode = 011E;
},
{
glyphname = Gcaron;
lastChange = "2015-12-01 05:23:24 +0000";
layers = (
{
layerId = "DE721516-52ED-4FB4-A3DE-9EDE92CA8211";
name = Light;
paths = (
{
closed = 1;
nodes = (
"495 -10 OFFCURVE",
"562 34 OFFCURVE",
"601 72 CURVE",
"601 288 LINE SMOOTH",
"601 332 OFFCURVE",
"623 339 OFFCURVE",
"658 339 CURVE",
"658 353 LINE",
"468 353 LINE",
"468 339 LINE",
"522 335 OFFCURVE",
"571 332 OFFCURVE",
"571 288 CURVE SMOOTH",
"571 82 LINE",
"514 26 OFFCURVE",
"417 14 OFFCURVE",
"361 14 CURVE SMOOTH",
"164 14 OFFCURVE",
"81 156 OFFCURVE",
"81 350 CURVE SMOOTH",
"81 546 OFFCURVE",
"174 686 OFFCURVE",
"367 686 CURVE SMOOTH",
"484 686 OFFCURVE",
"565 622 OFFCURVE",
"574 531 CURVE",
"587 531 LINE",
"587 705 LINE",
"567 705 LINE",
"567 663 LINE SMOOTH",
"567 649 OFFCURVE",
"563 644 OFFCURVE",
"558 644 CURVE SMOOTH",
"555 644 OFFCURVE",
"552 647 OFFCURVE",
"549 649 CURVE",
"525 668 OFFCURVE",
"461 710 OFFCURVE",
"367 710 CURVE SMOOTH",
"174 710 OFFCURVE",
"50 583 OFFCURVE",
"50 350 CURVE SMOOTH",
"50 117 OFFCURVE",
"163 -10 OFFCURVE",
"352 -10 CURVE SMOOTH"
);
},
{
closed = 1;
nodes = (
"390 787 LINE",
"491 883 LINE",
"477 899 LINE",
"389 824 LINE",
"385 821 OFFCURVE",
"381 819 OFFCURVE",
"378 819 CURVE SMOOTH",
"375 819 OFFCURVE",
"371 821 OFFCURVE",
"367 824 CURVE",
"279 899 LINE",
"265 883 LINE",
"366 787 LINE"
);
}
);
width = 668;
}
);
leftKerningGroup = G;
note = Gcaron;
unicode = 01E6;
},
{
glyphname = Gcircumflex;
lastChange = "2015-12-01 05:23:22 +0000";
layers = (
{
layerId = "DE721516-52ED-4FB4-A3DE-9EDE92CA8211";
name = Light;
paths = (
{
closed = 1;
nodes = (
"495 -10 OFFCURVE",
"562 34 OFFCURVE",
"601 72 CURVE",
"601 288 LINE SMOOTH",
"601 332 OFFCURVE",
"623 339 OFFCURVE",
"658 339 CURVE",
"658 353 LINE",
"468 353 LINE",
"468 339 LINE",
"522 335 OFFCURVE",
"571 332 OFFCURVE",
"571 288 CURVE SMOOTH",
"571 82 LINE",
"514 26 OFFCURVE",
"417 14 OFFCURVE",
"361 14 CURVE SMOOTH",
"164 14 OFFCURVE",
"81 156 OFFCURVE",
"81 350 CURVE SMOOTH",
"81 546 OFFCURVE",
"174 686 OFFCURVE",
"367 686 CURVE SMOOTH",
"484 686 OFFCURVE",
"565 622 OFFCURVE",
"574 531 CURVE",
"587 531 LINE",
"587 705 LINE",
"567 705 LINE",
"567 663 LINE SMOOTH",
"567 649 OFFCURVE",
"563 644 OFFCURVE",
"558 644 CURVE SMOOTH",
"555 644 OFFCURVE",
"552 647 OFFCURVE",
"549 649 CURVE",
"525 668 OFFCURVE",
"461 710 OFFCURVE",
"367 710 CURVE SMOOTH",
"174 710 OFFCURVE",
"50 583 OFFCURVE",
"50 350 CURVE SMOOTH",
"50 117 OFFCURVE",
"163 -10 OFFCURVE",
"352 -10 CURVE SMOOTH"
);
},
{
closed = 1;
nodes = (
"354 890 LINE",
"358 893 OFFCURVE",
"362 895 OFFCURVE",
"365 895 CURVE SMOOTH",
"368 895 OFFCURVE",
"372 893 OFFCURVE",
"376 890 CURVE",
"464 815 LINE",
"478 831 LINE",
"377 927 LINE",
"353 927 LINE",
"252 831 LINE",
"266 815 LINE"
);
}
);
width = 668;
}
);
leftKerningGroup = G;
note = Gcircumflex;
unicode = 011C;
},
{
glyphname = Gcommaaccent;
lastChange = "2015-12-01 05:23:22 +0000";
layers = (
{
layerId = "DE721516-52ED-4FB4-A3DE-9EDE92CA8211";
name = Light;
paths = (
{
closed = 1;
nodes = (
"495 -10 OFFCURVE",
"562 34 OFFCURVE",
"601 72 CURVE",
"601 288 LINE SMOOTH",
"601 332 OFFCURVE",
"623 339 OFFCURVE",
"658 339 CURVE",
"658 353 LINE",
"468 353 LINE",
"468 339 LINE",
"522 335 OFFCURVE",
"571 332 OFFCURVE",
"571 288 CURVE SMOOTH",
"571 82 LINE",
"514 26 OFFCURVE",
"417 14 OFFCURVE",
"361 14 CURVE SMOOTH",
"164 14 OFFCURVE",
"81 156 OFFCURVE",
"81 350 CURVE SMOOTH",
"81 546 OFFCURVE",
"174 686 OFFCURVE",
"367 686 CURVE SMOOTH",
"484 686 OFFCURVE",
"565 622 OFFCURVE",
"574 531 CURVE",
"587 531 LINE",
"587 705 LINE",
"567 705 LINE",
"567 663 LINE SMOOTH",
"567 649 OFFCURVE",
"563 644 OFFCURVE",
"558 644 CURVE SMOOTH",
"555 644 OFFCURVE",
"552 647 OFFCURVE",
"549 649 CURVE",
"525 668 OFFCURVE",
"461 710 OFFCURVE",
"367 710 CURVE SMOOTH",
"174 710 OFFCURVE",
"50 583 OFFCURVE",
"50 350 CURVE SMOOTH",
"50 117 OFFCURVE",
"163 -10 OFFCURVE",
"352 -10 CURVE SMOOTH"
);
},
{
closed = 1;
nodes = (
"382 -194 OFFCURVE",
"402 -150 OFFCURVE",
"402 -102 CURVE SMOOTH",
"402 -67 OFFCURVE",
"387 -61 OFFCURVE",
"373 -61 CURVE SMOOTH",
"356 -61 OFFCURVE",
"347 -72 OFFCURVE",
"347 -90 CURVE SMOOTH",
"347 -116 OFFCURVE",
"374 -116 OFFCURVE",
"374 -144 CURVE SMOOTH",
"374 -174 OFFCURVE",
"348 -202 OFFCURVE",
"327 -222 CURVE",
"335 -232 LINE"
);
}
);
width = 668;
}
);
leftKerningGroup = G;
note = Gcommaaccent;
unicode = 0122;
},
{
glyphname = Gdotaccent;
lastChange = "2015-12-01 05:23:23 +0000";
layers = (
{
layerId = "DE721516-52ED-4FB4-A3DE-9EDE92CA8211";
name = Light;
paths = (
{
closed = 1;
nodes = (
"495 -10 OFFCURVE",
"562 34 OFFCURVE",
"601 72 CURVE",
"601 288 LINE SMOOTH",
"601 332 OFFCURVE",
"623 339 OFFCURVE",
"658 339 CURVE",
"658 353 LINE",
"468 353 LINE",
"468 339 LINE",
"522 335 OFFCURVE",
"571 332 OFFCURVE",
"571 288 CURVE SMOOTH",
"571 82 LINE",
"514 26 OFFCURVE",
"417 14 OFFCURVE",
"361 14 CURVE SMOOTH",
"164 14 OFFCURVE",
"81 156 OFFCURVE",
"81 350 CURVE SMOOTH",
"81 546 OFFCURVE",
"174 686 OFFCURVE",
"367 686 CURVE SMOOTH",
"484 686 OFFCURVE",
"565 622 OFFCURVE",
"574 531 CURVE",
"587 531 LINE",
"587 705 LINE",
"567 705 LINE",
"567 663 LINE SMOOTH",
"567 649 OFFCURVE",
"563 644 OFFCURVE",
"558 644 CURVE SMOOTH",
"555 644 OFFCURVE",
"552 647 OFFCURVE",
"549 649 CURVE",
"525 668 OFFCURVE",
"461 710 OFFCURVE",
"367 710 CURVE SMOOTH",
"174 710 OFFCURVE",
"50 583 OFFCURVE",
"50 350 CURVE SMOOTH",
"50 117 OFFCURVE",
"163 -10 OFFCURVE",
"352 -10 CURVE SMOOTH"
);
},
{
closed = 1;
nodes = (
"387 787 OFFCURVE",
"399 798 OFFCURVE",
"399 817 CURVE SMOOTH",
"399 836 OFFCURVE",
"387 847 OFFCURVE",
"370 847 CURVE SMOOTH",
"353 847 OFFCURVE",
"341 836 OFFCURVE",
"341 817 CURVE SMOOTH",
"341 798 OFFCURVE",
"353 787 OFFCURVE",
"370 787 CURVE SMOOTH"
);
}
);
width = 668;
}
);
leftKerningGroup = G;
note = Gdotaccent;
unicode = 0120;
},
{
glyphname = Gmacron;
lastChange = "2015-12-01 05:23:23 +0000";
layers = (
{
layerId = "DE721516-52ED-4FB4-A3DE-9EDE92CA8211";
name = Light;
paths = (
{
closed = 1;
nodes = (
"495 -10 OFFCURVE",
"562 34 OFFCURVE",
"601 72 CURVE",
"601 288 LINE SMOOTH",
"601 332 OFFCURVE",
"623 339 OFFCURVE",
"658 339 CURVE",
"658 353 LINE",
"468 353 LINE",
"468 339 LINE",
"522 335 OFFCURVE",
"571 332 OFFCURVE",
"571 288 CURVE SMOOTH",
"571 82 LINE",
"514 26 OFFCURVE",
"417 14 OFFCURVE",
"361 14 CURVE SMOOTH",
"164 14 OFFCURVE",
"81 156 OFFCURVE",
"81 350 CURVE SMOOTH",
"81 546 OFFCURVE",
"174 686 OFFCURVE",
"367 686 CURVE SMOOTH",
"484 686 OFFCURVE",
"565 622 OFFCURVE",
"574 531 CURVE",
"587 531 LINE",
"587 705 LINE",
"567 705 LINE",
"567 663 LINE SMOOTH",
"567 649 OFFCURVE",
"563 644 OFFCURVE",
"558 644 CURVE SMOOTH",
"555 644 OFFCURVE",
"552 647 OFFCURVE",
"549 649 CURVE",
"525 668 OFFCURVE",
"461 710 OFFCURVE",
"367 710 CURVE SMOOTH",
"174 710 OFFCURVE",
"50 583 OFFCURVE",
"50 350 CURVE SMOOTH",
"50 117 OFFCURVE",
"163 -10 OFFCURVE",
"352 -10 CURVE SMOOTH"
);
},
{
closed = 1;
nodes = (
"501 785 LINE",
"501 807 LINE",
"227 807 LINE",
"227 785 LINE"
);
}
);
width = 668;
}
);
leftKerningGroup = G;
note = Gmacron;
unicode = 1E20;
},
{
glyphname = H;
lastChange = "2015-12-01 05:23:22 +0000";
layers = (
{
layerId = "DE721516-52ED-4FB4-A3DE-9EDE92CA8211";
name = Light;
paths = (
{
closed = 1;
nodes = (
"694 0 LINE",
"694 14 LINE",
"667 14 LINE SMOOTH",
"628 14 OFFCURVE",
"606 23 OFFCURVE",
"606 47 CURVE SMOOTH",
"606 653 LINE SMOOTH",
"606 677 OFFCURVE",
"628 686 OFFCURVE",
"667 686 CURVE SMOOTH",
"694 686 LINE",
"694 700 LINE",
"486 700 LINE",
"486 686 LINE",
"513 686 LINE SMOOTH",
"552 686 OFFCURVE",
"574 677 OFFCURVE",
"574 653 CURVE SMOOTH",
"574 47 LINE SMOOTH",
"574 23 OFFCURVE",
"552 14 OFFCURVE",
"513 14 CURVE SMOOTH",
"486 14 LINE",
"486 0 LINE"
);
},
{
closed = 1;
nodes = (
"238 0 LINE",
"238 14 LINE",
"211 14 LINE SMOOTH",
"172 14 OFFCURVE",
"150 23 OFFCURVE",
"150 47 CURVE SMOOTH",
"150 653 LINE SMOOTH",
"150 677 OFFCURVE",
"172 686 OFFCURVE",
"211 686 CURVE SMOOTH",
"238 686 LINE",
"238 700 LINE",
"30 700 LINE",
"30 686 LINE",
"57 686 LINE SMOOTH",
"96 686 OFFCURVE",
"118 677 OFFCURVE",
"118 653 CURVE SMOOTH",
"118 47 LINE SMOOTH",
"118 23 OFFCURVE",
"96 14 OFFCURVE",
"57 14 CURVE SMOOTH",
"30 14 LINE",
"30 0 LINE"
);
},
{
closed = 1;
nodes = (
"593 365 LINE",
"593 389 LINE",
"133 389 LINE",
"133 365 LINE"
);
}
);
width = 724;
}
);
note = H;
unicode = 0048;
},
{
glyphname = Hbar;
lastChange = "2015-12-01 05:23:22 +0000";
layers = (
{
layerId = "DE721516-52ED-4FB4-A3DE-9EDE92CA8211";
name = Light;
paths = (
{
closed = 1;
nodes = (
"694 0 LINE",
"694 14 LINE",
"667 14 LINE SMOOTH",
"628 14 OFFCURVE",
"606 23 OFFCURVE",
"606 47 CURVE SMOOTH",
"606 653 LINE SMOOTH",
"606 677 OFFCURVE",
"628 686 OFFCURVE",
"667 686 CURVE SMOOTH",
"694 686 LINE",
"694 700 LINE",
"486 700 LINE",
"486 686 LINE",
"513 686 LINE SMOOTH",
"552 686 OFFCURVE",
"574 677 OFFCURVE",
"574 653 CURVE SMOOTH",
"574 47 LINE SMOOTH",
"574 23 OFFCURVE",
"552 14 OFFCURVE",
"513 14 CURVE SMOOTH",
"486 14 LINE",
"486 0 LINE"
);
},
{
closed = 1;
nodes = (
"238 0 LINE",
"238 14 LINE",
"211 14 LINE SMOOTH",
"172 14 OFFCURVE",
"150 23 OFFCURVE",
"150 47 CURVE SMOOTH",
"150 653 LINE SMOOTH",
"150 677 OFFCURVE",
"172 686 OFFCURVE",
"211 686 CURVE SMOOTH",
"238 686 LINE",
"238 700 LINE",
"30 700 LINE",
"30 686 LINE",
"57 686 LINE SMOOTH",
"96 686 OFFCURVE",
"118 677 OFFCURVE",
"118 653 CURVE SMOOTH",
"118 47 LINE SMOOTH",
"118 23 OFFCURVE",
"96 14 OFFCURVE",
"57 14 CURVE SMOOTH",
"30 14 LINE",
"30 0 LINE"
);
},
{
closed = 1;
nodes = (
"593 365 LINE",
"593 389 LINE",
"133 389 LINE",
"133 365 LINE"
);
},
{
closed = 1;
nodes = (
"656 519 LINE",
"656 543 LINE",
"49 543 LINE",
"49 519 LINE"
);
}
);
width = 724;
}
);
note = Hbar;
unicode = 0126;
},
{
glyphname = Hbrevebelow;
lastChange = "2015-12-01 05:23:23 +0000";
layers = (
{
layerId = "DE721516-52ED-4FB4-A3DE-9EDE92CA8211";
name = Light;
paths = (
{
closed = 1;
nodes = (
"694 0 LINE",
"694 14 LINE",
"667 14 LINE SMOOTH",
"628 14 OFFCURVE",
"606 23 OFFCURVE",
"606 47 CURVE SMOOTH",
"606 653 LINE SMOOTH",
"606 677 OFFCURVE",
"628 686 OFFCURVE",
"667 686 CURVE SMOOTH",
"694 686 LINE",
"694 700 LINE",
"486 700 LINE",
"486 686 LINE",
"513 686 LINE SMOOTH",
"552 686 OFFCURVE",
"574 677 OFFCURVE",
"574 653 CURVE SMOOTH",
"574 47 LINE SMOOTH",
"574 23 OFFCURVE",
"552 14 OFFCURVE",
"513 14 CURVE SMOOTH",
"486 14 LINE",
"486 0 LINE"
);
},
{
closed = 1;
nodes = (
"433 -165 OFFCURVE",
"485 -130 OFFCURVE",
"491 -52 CURVE",
"466 -52 LINE",
"457 -131 OFFCURVE",
"401 -140 OFFCURVE",
"362 -140 CURVE SMOOTH",
"323 -140 OFFCURVE",
"267 -131 OFFCURVE",
"258 -52 CURVE",
"233 -52 LINE",
"238 -130 OFFCURVE",
"291 -165 OFFCURVE",
"362 -165 CURVE SMOOTH"
);
},
{
closed = 1;
nodes = (
"238 0 LINE",
"238 14 LINE",
"211 14 LINE SMOOTH",
"172 14 OFFCURVE",
"150 23 OFFCURVE",
"150 47 CURVE SMOOTH",
"150 653 LINE SMOOTH",
"150 677 OFFCURVE",
"172 686 OFFCURVE",
"211 686 CURVE SMOOTH",
"238 686 LINE",
"238 700 LINE",
"30 700 LINE",
"30 686 LINE",
"57 686 LINE SMOOTH",
"96 686 OFFCURVE",
"118 677 OFFCURVE",
"118 653 CURVE SMOOTH",
"118 47 LINE SMOOTH",
"118 23 OFFCURVE",
"96 14 OFFCURVE",
"57 14 CURVE SMOOTH",
"30 14 LINE",
"30 0 LINE"
);
},
{
closed = 1;
nodes = (
"593 365 LINE",
"593 389 LINE",
"133 389 LINE",
"133 365 LINE"
);
}
);
width = 724;
}
);
note = Hbrevebelow;
unicode = 1E2A;
},
{
glyphname = Hcircumflex;
lastChange = "2015-12-01 05:23:23 +0000";
layers = (
{
layerId = "DE721516-52ED-4FB4-A3DE-9EDE92CA8211";
name = Light;
paths = (
{
closed = 1;
nodes = (
"694 0 LINE",
"694 14 LINE",
"667 14 LINE SMOOTH",
"628 14 OFFCURVE",
"606 23 OFFCURVE",
"606 47 CURVE SMOOTH",
"606 653 LINE SMOOTH",
"606 677 OFFCURVE",
"628 686 OFFCURVE",
"667 686 CURVE SMOOTH",
"694 686 LINE",
"694 700 LINE",
"486 700 LINE",
"486 686 LINE",
"513 686 LINE SMOOTH",
"552 686 OFFCURVE",
"574 677 OFFCURVE",
"574 653 CURVE SMOOTH",
"574 47 LINE SMOOTH",
"574 23 OFFCURVE",
"552 14 OFFCURVE",
"513 14 CURVE SMOOTH",
"486 14 LINE",
"486 0 LINE"
);
},
{
closed = 1;
nodes = (
"238 0 LINE",
"238 14 LINE",
"211 14 LINE SMOOTH",
"172 14 OFFCURVE",
"150 23 OFFCURVE",
"150 47 CURVE SMOOTH",
"150 653 LINE SMOOTH",
"150 677 OFFCURVE",
"172 686 OFFCURVE",
"211 686 CURVE SMOOTH",
"238 686 LINE",
"238 700 LINE",
"30 700 LINE",
"30 686 LINE",
"57 686 LINE SMOOTH",
"96 686 OFFCURVE",
"118 677 OFFCURVE",
"118 653 CURVE SMOOTH",
"118 47 LINE SMOOTH",
"118 23 OFFCURVE",
"96 14 OFFCURVE",
"57 14 CURVE SMOOTH",
"30 14 LINE",
"30 0 LINE"
);
},
{
closed = 1;
nodes = (
"593 365 LINE",
"593 389 LINE",
"133 389 LINE",
"133 365 LINE"
);
},
{
closed = 1;
nodes = (
"351 862 LINE",
"355 865 OFFCURVE",
"359 867 OFFCURVE",
"362 867 CURVE SMOOTH",
"365 867 OFFCURVE",
"369 865 OFFCURVE",
"373 862 CURVE",
"461 787 LINE",
"475 803 LINE",
"374 899 LINE",
"350 899 LINE",
"249 803 LINE",
"263 787 LINE"
);
}
);
width = 724;
}
);
note = Hcircumflex;
unicode = 0124;
},
{
glyphname = Hdotbelow;
lastChange = "2015-12-01 05:47:58 +0000";
layers = (
{
layerId = "DE721516-52ED-4FB4-A3DE-9EDE92CA8211";
name = Light;
paths = (
{
closed = 1;
nodes = (
"694 0 LINE",
"694 14 LINE",
"667 14 LINE SMOOTH",
"628 14 OFFCURVE",
"606 23 OFFCURVE",
"606 47 CURVE SMOOTH",
"606 653 LINE SMOOTH",
"606 677 OFFCURVE",
"628 686 OFFCURVE",
"667 686 CURVE SMOOTH",
"694 686 LINE",
"694 700 LINE",
"486 700 LINE",
"486 686 LINE",
"513 686 LINE SMOOTH",
"552 686 OFFCURVE",
"574 677 OFFCURVE",
"574 653 CURVE SMOOTH",
"574 47 LINE SMOOTH",
"574 23 OFFCURVE",
"552 14 OFFCURVE",
"513 14 CURVE SMOOTH",
"486 14 LINE",
"486 0 LINE"
);
},
{
closed = 1;
nodes = (
"379 -124 OFFCURVE",
"391 -113 OFFCURVE",
"391 -94 CURVE SMOOTH",
"391 -75 OFFCURVE",
"379 -64 OFFCURVE",
"362 -64 CURVE SMOOTH",
"345 -64 OFFCURVE",
"333 -75 OFFCURVE",
"333 -94 CURVE SMOOTH",
"333 -113 OFFCURVE",
"345 -124 OFFCURVE",
"362 -124 CURVE SMOOTH"
);
},
{
closed = 1;
nodes = (
"238 0 LINE",
"238 14 LINE",
"211 14 LINE SMOOTH",
"172 14 OFFCURVE",
"150 23 OFFCURVE",
"150 47 CURVE SMOOTH",
"150 653 LINE SMOOTH",
"150 677 OFFCURVE",
"172 686 OFFCURVE",
"211 686 CURVE SMOOTH",
"238 686 LINE",
"238 700 LINE",
"30 700 LINE",
"30 686 LINE",
"57 686 LINE SMOOTH",
"96 686 OFFCURVE",
"118 677 OFFCURVE",
"118 653 CURVE SMOOTH",
"118 47 LINE SMOOTH",
"118 23 OFFCURVE",
"96 14 OFFCURVE",
"57 14 CURVE SMOOTH",
"30 14 LINE",
"30 0 LINE"
);
},
{
closed = 1;
nodes = (
"593 365 LINE",
"593 389 LINE",
"133 389 LINE",
"133 365 LINE"
);
}
);
width = 724;
}
);
note = Hdotbelow;
unicode = 1E24;
},
{
glyphname = I;
lastChange = "2015-12-01 05:23:18 +0000";
layers = (
{
layerId = "DE721516-52ED-4FB4-A3DE-9EDE92CA8211";
name = Light;
paths = (
{
closed = 1;
nodes = (
"241 0 LINE",
"241 14 LINE",
"214 14 LINE SMOOTH",
"175 14 OFFCURVE",
"153 23 OFFCURVE",
"153 47 CURVE SMOOTH",
"153 653 LINE SMOOTH",
"153 677 OFFCURVE",
"175 686 OFFCURVE",
"214 686 CURVE SMOOTH",
"241 686 LINE",
"241 700 LINE",
"33 700 LINE",
"33 686 LINE",
"60 686 LINE SMOOTH",
"99 686 OFFCURVE",
"121 677 OFFCURVE",
"121 653 CURVE SMOOTH",
"121 47 LINE SMOOTH",
"121 23 OFFCURVE",
"99 14 OFFCURVE",
"60 14 CURVE SMOOTH",
"33 14 LINE",
"33 0 LINE"
);
}
);
width = 274;
}
);
note = I;
unicode = 0049;
},
{
glyphname = IJ;
lastChange = "2015-12-01 05:23:22 +0000";
layers = (
{
layerId = "DE721516-52ED-4FB4-A3DE-9EDE92CA8211";
name = Light;
paths = (
{
closed = 1;
nodes = (
"373 -114 OFFCURVE",
"435 -48 OFFCURVE",
"435 58 CURVE SMOOTH",
"435 653 LINE SMOOTH",
"435 677 OFFCURVE",
"457 686 OFFCURVE",
"496 686 CURVE SMOOTH",
"523 686 LINE",
"523 700 LINE",
"315 700 LINE",
"315 686 LINE",
"342 686 LINE SMOOTH",
"381 686 OFFCURVE",
"403 677 OFFCURVE",
"403 653 CURVE SMOOTH",
"403 57 LINE SMOOTH",
"403 -35 OFFCURVE",
"346 -90 OFFCURVE",
"274 -98 CURVE",
"277 -114 LINE"
);
},
{
closed = 1;
nodes = (
"241 0 LINE",
"241 14 LINE",
"214 14 LINE SMOOTH",
"175 14 OFFCURVE",
"153 23 OFFCURVE",
"153 47 CURVE SMOOTH",
"153 653 LINE SMOOTH",
"153 677 OFFCURVE",
"175 686 OFFCURVE",
"214 686 CURVE SMOOTH",
"241 686 LINE",
"241 700 LINE",
"33 700 LINE",
"33 686 LINE",
"60 686 LINE SMOOTH",
"99 686 OFFCURVE",
"121 677 OFFCURVE",
"121 653 CURVE SMOOTH",
"121 47 LINE SMOOTH",
"121 23 OFFCURVE",
"99 14 OFFCURVE",
"60 14 CURVE SMOOTH",
"33 14 LINE",
"33 0 LINE"
);
}
);
width = 556;
}
);
note = IJ;
rightKerningGroup = J;
unicode = 0132;
},
{
glyphname = Iacute;
lastChange = "2015-12-01 05:23:24 +0000";
layers = (
{
layerId = "DE721516-52ED-4FB4-A3DE-9EDE92CA8211";
name = Light;
paths = (
{
closed = 1;
nodes = (
"241 0 LINE",
"241 14 LINE",
"214 14 LINE SMOOTH",
"175 14 OFFCURVE",
"153 23 OFFCURVE",
"153 47 CURVE SMOOTH",
"153 653 LINE SMOOTH",
"153 677 OFFCURVE",
"175 686 OFFCURVE",
"214 686 CURVE SMOOTH",
"241 686 LINE",
"241 700 LINE",
"33 700 LINE",
"33 686 LINE",
"60 686 LINE SMOOTH",
"99 686 OFFCURVE",
"121 677 OFFCURVE",
"121 653 CURVE SMOOTH",
"121 47 LINE SMOOTH",
"121 23 OFFCURVE",
"99 14 OFFCURVE",
"60 14 CURVE SMOOTH",
"33 14 LINE",
"33 0 LINE"
);
},
{
closed = 1;
nodes = (
"196 860 LINE SMOOTH",
"207 866 OFFCURVE",
"212 875 OFFCURVE",
"212 883 CURVE SMOOTH",
"212 892 OFFCURVE",
"205 897 OFFCURVE",
"198 897 CURVE SMOOTH",
"188 897 OFFCURVE",
"180 891 OFFCURVE",
"172 885 CURVE",
"65 798 LINE",
"72 788 LINE"
);
}
);
width = 274;
}
);
note = Iacute;
unicode = 00CD;
},
{
glyphname = Ibreve;
lastChange = "2015-12-01 05:23:22 +0000";
layers = (
{
layerId = "DE721516-52ED-4FB4-A3DE-9EDE92CA8211";
name = Light;
paths = (
{
closed = 1;
nodes = (
"241 0 LINE",
"241 14 LINE",
"214 14 LINE SMOOTH",
"175 14 OFFCURVE",
"153 23 OFFCURVE",
"153 47 CURVE SMOOTH",
"153 653 LINE SMOOTH",
"153 677 OFFCURVE",
"175 686 OFFCURVE",
"214 686 CURVE SMOOTH",
"241 686 LINE",
"241 700 LINE",
"33 700 LINE",
"33 686 LINE",
"60 686 LINE SMOOTH",
"99 686 OFFCURVE",
"121 677 OFFCURVE",
"121 653 CURVE SMOOTH",
"121 47 LINE SMOOTH",
"121 23 OFFCURVE",
"99 14 OFFCURVE",
"60 14 CURVE SMOOTH",
"33 14 LINE",
"33 0 LINE"
);
},
{
closed = 1;
nodes = (
"208 776 OFFCURVE",
"260 811 OFFCURVE",
"266 889 CURVE",
"241 889 LINE",
"232 810 OFFCURVE",
"176 801 OFFCURVE",
"137 801 CURVE SMOOTH",
"98 801 OFFCURVE",
"42 810 OFFCURVE",
"33 889 CURVE",
"8 889 LINE",
"13 811 OFFCURVE",
"66 776 OFFCURVE",
"137 776 CURVE SMOOTH"
);
}
);
width = 274;
}
);
note = Ibreve;
unicode = 012C;
},
{
glyphname = Icaron;
lastChange = "2015-12-01 05:23:24 +0000";
layers = (
{
layerId = "DE721516-52ED-4FB4-A3DE-9EDE92CA8211";
name = Light;
paths = (
{
closed = 1;
nodes = (
"241 0 LINE",
"241 14 LINE",
"214 14 LINE SMOOTH",
"175 14 OFFCURVE",
"153 23 OFFCURVE",
"153 47 CURVE SMOOTH",
"153 653 LINE SMOOTH",
"153 677 OFFCURVE",
"175 686 OFFCURVE",
"214 686 CURVE SMOOTH",
"241 686 LINE",
"241 700 LINE",
"33 700 LINE",
"33 686 LINE",
"60 686 LINE SMOOTH",
"99 686 OFFCURVE",
"121 677 OFFCURVE",
"121 653 CURVE SMOOTH",
"121 47 LINE SMOOTH",
"121 23 OFFCURVE",
"99 14 OFFCURVE",
"60 14 CURVE SMOOTH",
"33 14 LINE",
"33 0 LINE"
);
},
{
closed = 1;
nodes = (
"149 787 LINE",
"250 883 LINE",
"236 899 LINE",
"148 824 LINE",
"144 821 OFFCURVE",
"140 819 OFFCURVE",
"137 819 CURVE SMOOTH",
"134 819 OFFCURVE",
"130 821 OFFCURVE",
"126 824 CURVE",
"38 899 LINE",
"24 883 LINE",
"125 787 LINE"
);
}
);
width = 274;
}
);
note = Icaron;
unicode = 01CF;
},
{
glyphname = Icircumflex;
lastChange = "2015-12-01 05:23:23 +0000";
layers = (
{
layerId = "DE721516-52ED-4FB4-A3DE-9EDE92CA8211";
name = Light;
paths = (
{
closed = 1;
nodes = (
"241 0 LINE",
"241 14 LINE",
"214 14 LINE SMOOTH",
"175 14 OFFCURVE",
"153 23 OFFCURVE",
"153 47 CURVE SMOOTH",
"153 653 LINE SMOOTH",
"153 677 OFFCURVE",
"175 686 OFFCURVE",
"214 686 CURVE SMOOTH",
"241 686 LINE",
"241 700 LINE",
"33 700 LINE",
"33 686 LINE",
"60 686 LINE SMOOTH",
"99 686 OFFCURVE",
"121 677 OFFCURVE",
"121 653 CURVE SMOOTH",
"121 47 LINE SMOOTH",
"121 23 OFFCURVE",
"99 14 OFFCURVE",
"60 14 CURVE SMOOTH",
"33 14 LINE",
"33 0 LINE"
);
},
{
closed = 1;
nodes = (
"126 862 LINE",
"130 865 OFFCURVE",
"134 867 OFFCURVE",
"137 867 CURVE SMOOTH",
"140 867 OFFCURVE",
"144 865 OFFCURVE",
"148 862 CURVE",
"236 787 LINE",
"250 803 LINE",
"149 899 LINE",
"125 899 LINE",
"24 803 LINE",
"38 787 LINE"
);
}
);
width = 274;
}
);
note = Icircumflex;
unicode = 00CE;
},
{
glyphname = Idieresis;
lastChange = "2015-12-01 05:23:24 +0000";
layers = (
{
layerId = "DE721516-52ED-4FB4-A3DE-9EDE92CA8211";
name = Light;
paths = (
{
closed = 1;
nodes = (
"241 0 LINE",
"241 14 LINE",
"214 14 LINE SMOOTH",
"175 14 OFFCURVE",
"153 23 OFFCURVE",
"153 47 CURVE SMOOTH",
"153 653 LINE SMOOTH",
"153 677 OFFCURVE",
"175 686 OFFCURVE",
"214 686 CURVE SMOOTH",
"241 686 LINE",
"241 700 LINE",
"33 700 LINE",
"33 686 LINE",
"60 686 LINE SMOOTH",
"99 686 OFFCURVE",
"121 677 OFFCURVE",
"121 653 CURVE SMOOTH",
"121 47 LINE SMOOTH",
"121 23 OFFCURVE",
"99 14 OFFCURVE",
"60 14 CURVE SMOOTH",
"33 14 LINE",
"33 0 LINE"
);
},
{
closed = 1;
nodes = (
"56 785 OFFCURVE",
"68 796 OFFCURVE",
"68 815 CURVE SMOOTH",
"68 834 OFFCURVE",
"56 845 OFFCURVE",
"39 845 CURVE SMOOTH",
"22 845 OFFCURVE",
"10 834 OFFCURVE",
"10 815 CURVE SMOOTH",
"10 796 OFFCURVE",
"22 785 OFFCURVE",
"39 785 CURVE SMOOTH"
);
},
{
closed = 1;
nodes = (
"252 785 OFFCURVE",
"264 796 OFFCURVE",
"264 815 CURVE SMOOTH",
"264 834 OFFCURVE",
"252 845 OFFCURVE",
"235 845 CURVE SMOOTH",
"218 845 OFFCURVE",
"206 834 OFFCURVE",
"206 815 CURVE SMOOTH",
"206 796 OFFCURVE",
"218 785 OFFCURVE",
"235 785 CURVE SMOOTH"
);
}
);
width = 274;
}
);
note = Idieresis;
unicode = 00CF;
},
{
glyphname = Idotaccent;
lastChange = "2015-12-01 05:23:22 +0000";
layers = (
{
layerId = "DE721516-52ED-4FB4-A3DE-9EDE92CA8211";
name = Light;
paths = (
{
closed = 1;
nodes = (
"241 0 LINE",
"241 14 LINE",
"214 14 LINE SMOOTH",
"175 14 OFFCURVE",
"153 23 OFFCURVE",
"153 47 CURVE SMOOTH",
"153 653 LINE SMOOTH",
"153 677 OFFCURVE",
"175 686 OFFCURVE",
"214 686 CURVE SMOOTH",
"241 686 LINE",
"241 700 LINE",
"33 700 LINE",
"33 686 LINE",
"60 686 LINE SMOOTH",
"99 686 OFFCURVE",
"121 677 OFFCURVE",
"121 653 CURVE SMOOTH",
"121 47 LINE SMOOTH",
"121 23 OFFCURVE",
"99 14 OFFCURVE",
"60 14 CURVE SMOOTH",
"33 14 LINE",
"33 0 LINE"
);
},
{
closed = 1;
nodes = (
"154 759 OFFCURVE",
"166 770 OFFCURVE",
"166 789 CURVE SMOOTH",
"166 808 OFFCURVE",
"154 819 OFFCURVE",
"137 819 CURVE SMOOTH",
"120 819 OFFCURVE",
"108 808 OFFCURVE",
"108 789 CURVE SMOOTH",
"108 770 OFFCURVE",
"120 759 OFFCURVE",
"137 759 CURVE SMOOTH"
);
}
);
width = 274;
}
);
note = Idotaccent;
unicode = 0130;
},
{
glyphname = Idotbelow;
lastChange = "2015-12-01 05:23:24 +0000";
layers = (
{
layerId = "DE721516-52ED-4FB4-A3DE-9EDE92CA8211";
name = Light;
paths = (
{
closed = 1;
nodes = (
"241 0 LINE",
"241 14 LINE",
"214 14 LINE SMOOTH",
"175 14 OFFCURVE",
"153 23 OFFCURVE",
"153 47 CURVE SMOOTH",
"153 653 LINE SMOOTH",
"153 677 OFFCURVE",
"175 686 OFFCURVE",
"214 686 CURVE SMOOTH",
"241 686 LINE",
"241 700 LINE",
"33 700 LINE",
"33 686 LINE",
"60 686 LINE SMOOTH",
"99 686 OFFCURVE",
"121 677 OFFCURVE",
"121 653 CURVE SMOOTH",
"121 47 LINE SMOOTH",
"121 23 OFFCURVE",
"99 14 OFFCURVE",
"60 14 CURVE SMOOTH",
"33 14 LINE",
"33 0 LINE"
);
},
{
closed = 1;
nodes = (
"154 -124 OFFCURVE",
"166 -113 OFFCURVE",
"166 -94 CURVE SMOOTH",
"166 -75 OFFCURVE",
"154 -64 OFFCURVE",
"137 -64 CURVE SMOOTH",
"120 -64 OFFCURVE",
"108 -75 OFFCURVE",
"108 -94 CURVE SMOOTH",
"108 -113 OFFCURVE",
"120 -124 OFFCURVE",
"137 -124 CURVE SMOOTH"
);
}
);
width = 274;
}
);
note = Idotbelow;
unicode = 1ECA;
},
{
glyphname = Igrave;
lastChange = "2015-12-01 05:23:21 +0000";
layers = (
{
layerId = "DE721516-52ED-4FB4-A3DE-9EDE92CA8211";
name = Light;
paths = (
{
closed = 1;
nodes = (
"241 0 LINE",
"241 14 LINE",
"214 14 LINE SMOOTH",
"175 14 OFFCURVE",
"153 23 OFFCURVE",
"153 47 CURVE SMOOTH",
"153 653 LINE SMOOTH",
"153 677 OFFCURVE",
"175 686 OFFCURVE",
"214 686 CURVE SMOOTH",
"241 686 LINE",
"241 700 LINE",
"33 700 LINE",
"33 686 LINE",
"60 686 LINE SMOOTH",
"99 686 OFFCURVE",
"121 677 OFFCURVE",
"121 653 CURVE SMOOTH",
"121 47 LINE SMOOTH",
"121 23 OFFCURVE",
"99 14 OFFCURVE",
"60 14 CURVE SMOOTH",
"33 14 LINE",
"33 0 LINE"
);
},
{
closed = 1;
nodes = (
"210 798 LINE",
"103 885 LINE",
"95 891 OFFCURVE",
"87 897 OFFCURVE",
"77 897 CURVE SMOOTH",
"70 897 OFFCURVE",
"63 892 OFFCURVE",
"63 883 CURVE SMOOTH",
"63 875 OFFCURVE",
"68 866 OFFCURVE",
"79 860 CURVE SMOOTH",
"203 788 LINE"
);
}
);
width = 274;
}
);
note = Igrave;
unicode = 00CC;
},
{
glyphname = Ihookabove;
lastChange = "2015-12-01 05:23:22 +0000";
layers = (
{
layerId = "DE721516-52ED-4FB4-A3DE-9EDE92CA8211";
name = Light;
paths = (
{
closed = 1;
nodes = (
"241 0 LINE",
"241 14 LINE",
"214 14 LINE SMOOTH",
"175 14 OFFCURVE",
"153 23 OFFCURVE",
"153 47 CURVE SMOOTH",
"153 653 LINE SMOOTH",
"153 677 OFFCURVE",
"175 686 OFFCURVE",
"214 686 CURVE SMOOTH",
"241 686 LINE",
"241 700 LINE",
"33 700 LINE",
"33 686 LINE",
"60 686 LINE SMOOTH",
"99 686 OFFCURVE",
"121 677 OFFCURVE",
"121 653 CURVE SMOOTH",
"121 47 LINE SMOOTH",
"121 23 OFFCURVE",
"99 14 OFFCURVE",
"60 14 CURVE SMOOTH",
"33 14 LINE",
"33 0 LINE"
);
},
{
closed = 1;
nodes = (
"172 794 LINE",
"155 799 OFFCURVE",
"145 802 OFFCURVE",
"145 821 CURVE SMOOTH",
"145 851 OFFCURVE",
"221 869 OFFCURVE",
"221 915 CURVE SMOOTH",
"221 951 OFFCURVE",
"190 966 OFFCURVE",
"151 966 CURVE SMOOTH",
"111 966 OFFCURVE",
"81 949 OFFCURVE",
"81 924 CURVE SMOOTH",
"81 910 OFFCURVE",
"86 905 OFFCURVE",
"95 905 CURVE SMOOTH",
"107 905 OFFCURVE",
"109 910 OFFCURVE",
"114 927 CURVE",
"119 942 OFFCURVE",
"137 947 OFFCURVE",
"153 947 CURVE SMOOTH",
"181 947 OFFCURVE",
"190 933 OFFCURVE",
"190 917 CURVE SMOOTH",
"190 876 OFFCURVE",
"115 863 OFFCURVE",
"115 821 CURVE SMOOTH",
"115 797 OFFCURVE",
"133 779 OFFCURVE",
"165 779 CURVE"
);
}
);
width = 274;
}
);
note = Ihookabove;
unicode = 1EC8;
},
{
glyphname = Imacron;
lastChange = "2015-12-01 05:23:41 +0000";
layers = (
{
layerId = "DE721516-52ED-4FB4-A3DE-9EDE92CA8211";
name = Light;
paths = (
{
closed = 1;
nodes = (
"241 0 LINE",
"241 14 LINE",
"214 14 LINE SMOOTH",
"175 14 OFFCURVE",
"153 23 OFFCURVE",
"153 47 CURVE SMOOTH",
"153 653 LINE SMOOTH",
"153 677 OFFCURVE",
"175 686 OFFCURVE",
"214 686 CURVE SMOOTH",
"241 686 LINE",
"241 700 LINE",
"33 700 LINE",
"33 686 LINE",
"60 686 LINE SMOOTH",
"99 686 OFFCURVE",
"121 677 OFFCURVE",
"121 653 CURVE SMOOTH",
"121 47 LINE SMOOTH",
"121 23 OFFCURVE",
"99 14 OFFCURVE",
"60 14 CURVE SMOOTH",
"33 14 LINE",
"33 0 LINE"
);
},
{
closed = 1;
nodes = (
"304 786 LINE",
"304 808 LINE",
"-29 808 LINE",
"-29 786 LINE"
);
}
);
width = 274;
}
);
note = Imacron;
unicode = 012A;
},
{
glyphname = Iogonek;
lastChange = "2015-12-01 05:23:23 +0000";
layers = (
{
layerId = "DE721516-52ED-4FB4-A3DE-9EDE92CA8211";
name = Light;
paths = (
{
closed = 1;
nodes = (
"241 0 LINE",
"241 14 LINE",
"214 14 LINE SMOOTH",
"175 14 OFFCURVE",
"153 23 OFFCURVE",
"153 47 CURVE SMOOTH",
"153 653 LINE SMOOTH",
"153 677 OFFCURVE",
"175 686 OFFCURVE",
"214 686 CURVE SMOOTH",
"241 686 LINE",
"241 700 LINE",
"33 700 LINE",
"33 686 LINE",
"60 686 LINE SMOOTH",
"99 686 OFFCURVE",
"121 677 OFFCURVE",
"121 653 CURVE SMOOTH",
"121 47 LINE SMOOTH",
"121 23 OFFCURVE",
"99 14 OFFCURVE",
"60 14 CURVE SMOOTH",
"33 14 LINE",
"33 0 LINE"
);
},
{
closed = 1;
nodes = (
"206 -166 OFFCURVE",
"219 -163 OFFCURVE",
"241 -157 CURVE",
"241 -141 LINE",
"225 -146 OFFCURVE",
"211 -148 OFFCURVE",
"198 -148 CURVE SMOOTH",
"167 -148 OFFCURVE",
"138 -135 OFFCURVE",
"138 -97 CURVE SMOOTH",
"138 -57 OFFCURVE",
"168 -20 OFFCURVE",
"209 0 CURVE",
"183 0 LINE",
"139 -20 OFFCURVE",
"111 -54 OFFCURVE",
"111 -98 CURVE SMOOTH",
"111 -128 OFFCURVE",
"129 -166 OFFCURVE",
"185 -166 CURVE SMOOTH"
);
}
);
width = 274;
}
);
note = Iogonek;
unicode = 012E;
},
{
glyphname = Itilde;
lastChange = "2015-12-01 05:23:24 +0000";
layers = (
{
layerId = "DE721516-52ED-4FB4-A3DE-9EDE92CA8211";
name = Light;
paths = (
{
closed = 1;
nodes = (
"241 0 LINE",
"241 14 LINE",
"214 14 LINE SMOOTH",
"175 14 OFFCURVE",
"153 23 OFFCURVE",
"153 47 CURVE SMOOTH",
"153 653 LINE SMOOTH",
"153 677 OFFCURVE",
"175 686 OFFCURVE",
"214 686 CURVE SMOOTH",
"241 686 LINE",
"241 700 LINE",
"33 700 LINE",
"33 686 LINE",
"60 686 LINE SMOOTH",
"99 686 OFFCURVE",
"121 677 OFFCURVE",
"121 653 CURVE SMOOTH",
"121 47 LINE SMOOTH",
"121 23 OFFCURVE",
"99 14 OFFCURVE",
"60 14 CURVE SMOOTH",
"33 14 LINE",
"33 0 LINE"
);
},
{
closed = 1;
nodes = (
"23 824 OFFCURVE",
"42 848 OFFCURVE",
"71 848 CURVE SMOOTH",
"112 848 OFFCURVE",
"156 788 OFFCURVE",
"199 788 CURVE SMOOTH",
"240 788 OFFCURVE",
"266 815 OFFCURVE",
"275 871 CURVE",
"260 878 LINE",
"250 838 OFFCURVE",
"234 812 OFFCURVE",
"202 812 CURVE SMOOTH",
"163 812 OFFCURVE",
"116 871 OFFCURVE",
"73 871 CURVE SMOOTH",
"37 871 OFFCURVE",
"6 849 OFFCURVE",
"-1 794 CURVE",
"13 786 LINE"
);
}
);
width = 274;
}
);
note = Itilde;
unicode = 0128;
},
{
glyphname = J;
lastChange = "2015-12-01 05:23:18 +0000";
layers = (
{
layerId = "DE721516-52ED-4FB4-A3DE-9EDE92CA8211";
name = Light;
paths = (
{
closed = 1;
nodes = (
"125 -114 OFFCURVE",
"187 -48 OFFCURVE",
"187 58 CURVE SMOOTH",
"187 653 LINE SMOOTH",
"187 677 OFFCURVE",
"209 686 OFFCURVE",
"248 686 CURVE SMOOTH",
"275 686 LINE",
"275 700 LINE",
"67 700 LINE",
"67 686 LINE",
"94 686 LINE SMOOTH",
"133 686 OFFCURVE",
"155 677 OFFCURVE",
"155 653 CURVE SMOOTH",
"155 57 LINE SMOOTH",
"155 -35 OFFCURVE",
"98 -90 OFFCURVE",
"26 -98 CURVE",
"29 -114 LINE"
);
}
);
width = 308;
}
);
leftKerningGroup = J;
note = J;
rightKerningGroup = J;
unicode = 004A;
},
{
glyphname = Jcircumflex;
lastChange = "2015-12-01 05:23:21 +0000";
layers = (
{
layerId = "DE721516-52ED-4FB4-A3DE-9EDE92CA8211";
name = Light;
paths = (
{
closed = 1;
nodes = (
"125 -114 OFFCURVE",
"187 -48 OFFCURVE",
"187 58 CURVE SMOOTH",
"187 653 LINE SMOOTH",
"187 677 OFFCURVE",
"209 686 OFFCURVE",
"248 686 CURVE SMOOTH",
"275 686 LINE",
"275 700 LINE",
"67 700 LINE",
"67 686 LINE",
"94 686 LINE SMOOTH",
"133 686 OFFCURVE",
"155 677 OFFCURVE",
"155 653 CURVE SMOOTH",
"155 57 LINE SMOOTH",
"155 -35 OFFCURVE",
"98 -90 OFFCURVE",
"26 -98 CURVE",
"29 -114 LINE"
);
},
{
closed = 1;
nodes = (
"161 890 LINE",
"165 893 OFFCURVE",
"169 895 OFFCURVE",
"172 895 CURVE SMOOTH",
"175 895 OFFCURVE",
"179 893 OFFCURVE",
"183 890 CURVE",
"271 815 LINE",
"285 831 LINE",
"184 927 LINE",
"160 927 LINE",
"59 831 LINE",
"73 815 LINE"
);
}
);
width = 308;
}
);
leftKerningGroup = J;
note = Jcircumflex;
rightKerningGroup = J;
unicode = 0134;
},
{
glyphname = K;
lastChange = "2015-12-01 05:23:24 +0000";
layers = (
{
layerId = "DE721516-52ED-4FB4-A3DE-9EDE92CA8211";
name = Light;
paths = (
{
closed = 1;
nodes = (
"602 0 LINE",
"602 14 LINE",
"572 14 LINE SMOOTH",
"539 14 OFFCURVE",
"526 27 OFFCURVE",
"511 42 CURVE SMOOTH",
"176 372 LINE",
"154 350 LINE",
"508 0 LINE"
);
},
{
closed = 1;
nodes = (
"238 0 LINE",
"238 14 LINE",
"211 14 LINE SMOOTH",
"172 14 OFFCURVE",
"150 23 OFFCURVE",
"150 47 CURVE SMOOTH",
"150 653 LINE SMOOTH",
"150 677 OFFCURVE",
"172 686 OFFCURVE",
"211 686 CURVE SMOOTH",
"238 686 LINE",
"238 700 LINE",
"30 700 LINE",
"30 686 LINE",
"57 686 LINE SMOOTH",
"96 686 OFFCURVE",
"118 677 OFFCURVE",
"118 653 CURVE SMOOTH",
"118 47 LINE SMOOTH",
"118 23 OFFCURVE",
"96 14 OFFCURVE",
"57 14 CURVE SMOOTH",
"30 14 LINE",
"30 0 LINE"
);
},
{
closed = 1;
nodes = (
"503 658 LINE",
"517 674 OFFCURVE",
"531 686 OFFCURVE",
"564 686 CURVE SMOOTH",
"578 686 LINE",
"578 700 LINE",
"412 700 LINE",
"412 686 LINE",
"427 686 LINE SMOOTH",
"452 686 OFFCURVE",
"467 681 OFFCURVE",
"467 667 CURVE SMOOTH",
"467 664 OFFCURVE",
"466 660 OFFCURVE",
"462 656 CURVE",
"154 387 LINE",
"154 350 LINE"
);
}
);
width = 619;
}
);
note = K;
rightKerningGroup = K;
unicode = 004B;
},
{
glyphname = Kcommaaccent;
lastChange = "2015-12-01 05:23:23 +0000";
layers = (
{
layerId = "DE721516-52ED-4FB4-A3DE-9EDE92CA8211";
name = Light;
paths = (
{
closed = 1;
nodes = (
"602 0 LINE",
"602 14 LINE",
"572 14 LINE SMOOTH",
"539 14 OFFCURVE",
"526 27 OFFCURVE",
"511 42 CURVE SMOOTH",
"176 372 LINE",
"154 350 LINE",
"508 0 LINE"
);
},
{
closed = 1;
nodes = (
"353 -194 OFFCURVE",
"373 -150 OFFCURVE",
"373 -102 CURVE SMOOTH",
"373 -67 OFFCURVE",
"358 -61 OFFCURVE",
"344 -61 CURVE SMOOTH",
"327 -61 OFFCURVE",
"318 -72 OFFCURVE",
"318 -90 CURVE SMOOTH",
"318 -116 OFFCURVE",
"345 -116 OFFCURVE",
"345 -144 CURVE SMOOTH",
"345 -174 OFFCURVE",
"319 -202 OFFCURVE",
"298 -222 CURVE",
"306 -232 LINE"
);
},
{
closed = 1;
nodes = (
"238 0 LINE",
"238 14 LINE",
"211 14 LINE SMOOTH",
"172 14 OFFCURVE",
"150 23 OFFCURVE",
"150 47 CURVE SMOOTH",
"150 653 LINE SMOOTH",
"150 677 OFFCURVE",
"172 686 OFFCURVE",
"211 686 CURVE SMOOTH",
"238 686 LINE",
"238 700 LINE",
"30 700 LINE",
"30 686 LINE",
"57 686 LINE SMOOTH",
"96 686 OFFCURVE",
"118 677 OFFCURVE",
"118 653 CURVE SMOOTH",
"118 47 LINE SMOOTH",
"118 23 OFFCURVE",
"96 14 OFFCURVE",
"57 14 CURVE SMOOTH",
"30 14 LINE",
"30 0 LINE"
);
},
{
closed = 1;
nodes = (
"503 658 LINE",
"517 674 OFFCURVE",
"531 686 OFFCURVE",
"564 686 CURVE SMOOTH",
"578 686 LINE",
"578 700 LINE",
"412 700 LINE",
"412 686 LINE",
"427 686 LINE SMOOTH",
"452 686 OFFCURVE",
"467 681 OFFCURVE",
"467 667 CURVE SMOOTH",
"467 664 OFFCURVE",
"466 660 OFFCURVE",
"462 656 CURVE",
"154 387 LINE",
"154 350 LINE"
);
}
);
width = 619;
}
);
note = Kcommaaccent;
rightKerningGroup = K;
unicode = 0136;
},
{
glyphname = L;
lastChange = "2015-12-01 05:23:18 +0000";
layers = (
{
layerId = "DE721516-52ED-4FB4-A3DE-9EDE92CA8211";
name = Light;
paths = (
{
closed = 1;
nodes = (
"491 0 LINE",
"505 166 LINE",
"492 166 LINE",
"489 123 OFFCURVE",
"472 24 OFFCURVE",
"414 24 CURVE SMOOTH",
"211 24 LINE SMOOTH",
"172 24 OFFCURVE",
"150 33 OFFCURVE",
"150 57 CURVE SMOOTH",
"150 653 LINE SMOOTH",
"150 677 OFFCURVE",
"172 686 OFFCURVE",
"211 686 CURVE SMOOTH",
"238 686 LINE",
"238 700 LINE",
"30 700 LINE",
"30 686 LINE",
"57 686 LINE SMOOTH",
"96 686 OFFCURVE",
"118 677 OFFCURVE",
"118 653 CURVE SMOOTH",
"118 47 LINE SMOOTH",
"118 23 OFFCURVE",
"96 14 OFFCURVE",
"57 14 CURVE SMOOTH",
"30 14 LINE",
"30 0 LINE"
);
}
);
width = 525;
}
);
note = L;
rightKerningGroup = L;
unicode = 004C;
},
{
glyphname = Lacute;
lastChange = "2015-12-01 05:23:21 +0000";
layers = (
{
layerId = "DE721516-52ED-4FB4-A3DE-9EDE92CA8211";
name = Light;
paths = (
{
closed = 1;
nodes = (
"491 0 LINE",
"505 166 LINE",
"492 166 LINE",
"489 123 OFFCURVE",
"472 24 OFFCURVE",
"414 24 CURVE SMOOTH",
"211 24 LINE SMOOTH",
"172 24 OFFCURVE",
"150 33 OFFCURVE",
"150 57 CURVE SMOOTH",
"150 653 LINE SMOOTH",
"150 677 OFFCURVE",
"172 686 OFFCURVE",
"211 686 CURVE SMOOTH",
"238 686 LINE",
"238 700 LINE",
"30 700 LINE",
"30 686 LINE",
"57 686 LINE SMOOTH",
"96 686 OFFCURVE",
"118 677 OFFCURVE",
"118 653 CURVE SMOOTH",
"118 47 LINE SMOOTH",
"118 23 OFFCURVE",
"96 14 OFFCURVE",
"57 14 CURVE SMOOTH",
"30 14 LINE",
"30 0 LINE"
);
},
{
closed = 1;
nodes = (
"257 860 LINE SMOOTH",
"268 866 OFFCURVE",
"273 875 OFFCURVE",
"273 883 CURVE SMOOTH",
"273 892 OFFCURVE",
"266 897 OFFCURVE",
"259 897 CURVE SMOOTH",
"249 897 OFFCURVE",
"241 891 OFFCURVE",
"233 885 CURVE",
"126 798 LINE",
"133 788 LINE"
);
}
);
width = 525;
}
);
note = Lacute;
rightKerningGroup = L;
unicode = 0139;
},
{
glyphname = Lcaron;
lastChange = "2015-12-01 05:23:22 +0000";
layers = (
{
layerId = "DE721516-52ED-4FB4-A3DE-9EDE92CA8211";
name = Light;
paths = (
{
closed = 1;
nodes = (
"491 0 LINE",
"505 166 LINE",
"492 166 LINE",
"489 123 OFFCURVE",
"472 24 OFFCURVE",
"414 24 CURVE SMOOTH",
"211 24 LINE SMOOTH",
"172 24 OFFCURVE",
"150 33 OFFCURVE",
"150 57 CURVE SMOOTH",
"150 653 LINE SMOOTH",
"150 677 OFFCURVE",
"172 686 OFFCURVE",
"211 686 CURVE SMOOTH",
"238 686 LINE",
"238 700 LINE",
"30 700 LINE",
"30 686 LINE",
"57 686 LINE SMOOTH",
"96 686 OFFCURVE",
"118 677 OFFCURVE",
"118 653 CURVE SMOOTH",
"118 47 LINE SMOOTH",
"118 23 OFFCURVE",
"96 14 OFFCURVE",
"57 14 CURVE SMOOTH",
"30 14 LINE",
"30 0 LINE"
);
},
{
closed = 1;
nodes = (
"372 572 OFFCURVE",
"392 616 OFFCURVE",
"392 664 CURVE SMOOTH",
"392 699 OFFCURVE",
"377 705 OFFCURVE",
"363 705 CURVE SMOOTH",
"346 705 OFFCURVE",
"337 694 OFFCURVE",
"337 676 CURVE SMOOTH",
"337 650 OFFCURVE",
"364 650 OFFCURVE",
"364 622 CURVE SMOOTH",
"364 592 OFFCURVE",
"338 564 OFFCURVE",
"317 544 CURVE",
"325 534 LINE"
);
}
);
width = 525;
}
);
note = Lcaron;
rightKerningGroup = L;
unicode = 013D;
},
{
glyphname = Lcommaaccent;
lastChange = "2015-12-01 05:23:22 +0000";
layers = (
{
layerId = "DE721516-52ED-4FB4-A3DE-9EDE92CA8211";
name = Light;
paths = (
{
closed = 1;
nodes = (
"491 0 LINE",
"505 166 LINE",
"492 166 LINE",
"489 123 OFFCURVE",
"472 24 OFFCURVE",
"414 24 CURVE SMOOTH",
"211 24 LINE SMOOTH",
"172 24 OFFCURVE",
"150 33 OFFCURVE",
"150 57 CURVE SMOOTH",
"150 653 LINE SMOOTH",
"150 677 OFFCURVE",
"172 686 OFFCURVE",
"211 686 CURVE SMOOTH",
"238 686 LINE",
"238 700 LINE",
"30 700 LINE",
"30 686 LINE",
"57 686 LINE SMOOTH",
"96 686 OFFCURVE",
"118 677 OFFCURVE",
"118 653 CURVE SMOOTH",
"118 47 LINE SMOOTH",
"118 23 OFFCURVE",
"96 14 OFFCURVE",
"57 14 CURVE SMOOTH",
"30 14 LINE",
"30 0 LINE"
);
},
{
closed = 1;
nodes = (
"277 -194 OFFCURVE",
"297 -150 OFFCURVE",
"297 -102 CURVE SMOOTH",
"297 -67 OFFCURVE",
"282 -61 OFFCURVE",
"268 -61 CURVE SMOOTH",
"251 -61 OFFCURVE",
"242 -72 OFFCURVE",
"242 -90 CURVE SMOOTH",
"242 -116 OFFCURVE",
"269 -116 OFFCURVE",
"269 -144 CURVE SMOOTH",
"269 -174 OFFCURVE",
"243 -202 OFFCURVE",
"222 -222 CURVE",
"230 -232 LINE"
);
}
);
width = 525;
}
);
note = Lcommaaccent;
rightKerningGroup = L;
unicode = 013B;
},
{
glyphname = Ldot;
lastChange = "2015-12-01 05:23:22 +0000";
layers = (
{
layerId = "DE721516-52ED-4FB4-A3DE-9EDE92CA8211";
name = Light;
paths = (
{
closed = 1;
nodes = (
"491 0 LINE",
"505 166 LINE",
"492 166 LINE",
"489 123 OFFCURVE",
"472 24 OFFCURVE",
"414 24 CURVE SMOOTH",
"211 24 LINE SMOOTH",
"172 24 OFFCURVE",
"150 33 OFFCURVE",
"150 57 CURVE SMOOTH",
"150 653 LINE SMOOTH",
"150 677 OFFCURVE",
"172 686 OFFCURVE",
"211 686 CURVE SMOOTH",
"238 686 LINE",
"238 700 LINE",
"30 700 LINE",
"30 686 LINE",
"57 686 LINE SMOOTH",
"96 686 OFFCURVE",
"118 677 OFFCURVE",
"118 653 CURVE SMOOTH",
"118 47 LINE SMOOTH",
"118 23 OFFCURVE",
"96 14 OFFCURVE",
"57 14 CURVE SMOOTH",
"30 14 LINE",
"30 0 LINE"
);
},
{
closed = 1;
nodes = (
"332 309 OFFCURVE",
"344 320 OFFCURVE",
"344 339 CURVE SMOOTH",
"344 358 OFFCURVE",
"332 369 OFFCURVE",
"315 369 CURVE SMOOTH",
"298 369 OFFCURVE",
"286 358 OFFCURVE",
"286 339 CURVE SMOOTH",
"286 320 OFFCURVE",
"298 309 OFFCURVE",
"315 309 CURVE SMOOTH"
);
}
);
width = 525;
}
);
note = Ldot;
rightKerningGroup = L;
unicode = 013F;
},
{
glyphname = Ldotbelow;
lastChange = "2015-12-01 05:23:53 +0000";
layers = (
{
layerId = "DE721516-52ED-4FB4-A3DE-9EDE92CA8211";
name = Light;
paths = (
{
closed = 1;
nodes = (
"491 0 LINE",
"505 166 LINE",
"492 166 LINE",
"489 123 OFFCURVE",
"472 24 OFFCURVE",
"414 24 CURVE SMOOTH",
"211 24 LINE SMOOTH",
"172 24 OFFCURVE",
"150 33 OFFCURVE",
"150 57 CURVE SMOOTH",
"150 653 LINE SMOOTH",
"150 677 OFFCURVE",
"172 686 OFFCURVE",
"211 686 CURVE SMOOTH",
"238 686 LINE",
"238 700 LINE",
"30 700 LINE",
"30 686 LINE",
"57 686 LINE SMOOTH",
"96 686 OFFCURVE",
"118 677 OFFCURVE",
"118 653 CURVE SMOOTH",
"118 47 LINE SMOOTH",
"118 23 OFFCURVE",
"96 14 OFFCURVE",
"57 14 CURVE SMOOTH",
"30 14 LINE",
"30 0 LINE"
);
},
{
closed = 1;
nodes = (
"318 -113 OFFCURVE",
"331 -102 OFFCURVE",
"331 -83 CURVE SMOOTH",
"331 -64 OFFCURVE",
"318 -53 OFFCURVE",
"301 -53 CURVE SMOOTH",
"285 -53 OFFCURVE",
"272 -64 OFFCURVE",
"272 -83 CURVE SMOOTH",
"272 -102 OFFCURVE",
"285 -113 OFFCURVE",
"301 -113 CURVE SMOOTH"
);
}
);
width = 525;
}
);
note = Ldotbelow;
rightKerningGroup = L;
unicode = 1E36;
},
{
glyphname = Ldotbelowmacron;
lastChange = "2015-12-01 05:23:23 +0000";
layers = (
{
layerId = "DE721516-52ED-4FB4-A3DE-9EDE92CA8211";
name = Light;
paths = (
{
closed = 1;
nodes = (
"491 0 LINE",
"505 166 LINE",
"492 166 LINE",
"489 123 OFFCURVE",
"472 24 OFFCURVE",
"414 24 CURVE SMOOTH",
"211 24 LINE SMOOTH",
"172 24 OFFCURVE",
"150 33 OFFCURVE",
"150 57 CURVE SMOOTH",
"150 653 LINE SMOOTH",
"150 677 OFFCURVE",
"172 686 OFFCURVE",
"211 686 CURVE SMOOTH",
"238 686 LINE",
"238 700 LINE",
"30 700 LINE",
"30 686 LINE",
"57 686 LINE SMOOTH",
"96 686 OFFCURVE",
"118 677 OFFCURVE",
"118 653 CURVE SMOOTH",
"118 47 LINE SMOOTH",
"118 23 OFFCURVE",
"96 14 OFFCURVE",
"57 14 CURVE SMOOTH",
"30 14 LINE",
"30 0 LINE"
);
},
{
closed = 1;
nodes = (
"318 -113 OFFCURVE",
"331 -102 OFFCURVE",
"331 -83 CURVE SMOOTH",
"331 -64 OFFCURVE",
"318 -53 OFFCURVE",
"301 -53 CURVE SMOOTH",
"285 -53 OFFCURVE",
"272 -64 OFFCURVE",
"272 -83 CURVE SMOOTH",
"272 -102 OFFCURVE",
"285 -113 OFFCURVE",
"301 -113 CURVE SMOOTH"
);
},
{
closed = 1;
nodes = (
"286 785 LINE",
"286 807 LINE",
"12 807 LINE",
"12 785 LINE"
);
}
);
width = 525;
}
);
note = Ldotbelowmacron;
rightKerningGroup = L;
unicode = 1E38;
},
{
glyphname = Llinebelow;
lastChange = "2015-12-01 05:23:22 +0000";
layers = (
{
layerId = "DE721516-52ED-4FB4-A3DE-9EDE92CA8211";
name = Light;
paths = (
{
closed = 1;
nodes = (
"491 0 LINE",
"505 166 LINE",
"492 166 LINE",
"489 123 OFFCURVE",
"472 24 OFFCURVE",
"414 24 CURVE SMOOTH",
"211 24 LINE SMOOTH",
"172 24 OFFCURVE",
"150 33 OFFCURVE",
"150 57 CURVE SMOOTH",
"150 653 LINE SMOOTH",
"150 677 OFFCURVE",
"172 686 OFFCURVE",
"211 686 CURVE SMOOTH",
"238 686 LINE",
"238 700 LINE",
"30 700 LINE",
"30 686 LINE",
"57 686 LINE SMOOTH",
"96 686 OFFCURVE",
"118 677 OFFCURVE",
"118 653 CURVE SMOOTH",
"118 47 LINE SMOOTH",
"118 23 OFFCURVE",
"96 14 OFFCURVE",
"57 14 CURVE SMOOTH",
"30 14 LINE",
"30 0 LINE"
);
},
{
closed = 1;
nodes = (
"410 -98 LINE",
"410 -76 LINE",
"136 -76 LINE",
"136 -98 LINE"
);
}
);
width = 525;
}
);
note = Llinebelow;
rightKerningGroup = L;
unicode = 1E3A;
},
{
glyphname = Lslash;
lastChange = "2015-12-01 05:23:22 +0000";
layers = (
{
layerId = "DE721516-52ED-4FB4-A3DE-9EDE92CA8211";
name = Light;
paths = (
{
closed = 1;
nodes = (
"491 0 LINE",
"505 166 LINE",
"492 166 LINE",
"489 123 OFFCURVE",
"472 24 OFFCURVE",
"414 24 CURVE SMOOTH",
"211 24 LINE SMOOTH",
"172 24 OFFCURVE",
"150 33 OFFCURVE",
"150 57 CURVE SMOOTH",
"150 653 LINE SMOOTH",
"150 677 OFFCURVE",
"172 686 OFFCURVE",
"211 686 CURVE SMOOTH",
"238 686 LINE",
"238 700 LINE",
"30 700 LINE",
"30 686 LINE",
"57 686 LINE SMOOTH",
"96 686 OFFCURVE",
"118 677 OFFCURVE",
"118 653 CURVE SMOOTH",
"118 47 LINE SMOOTH",
"118 23 OFFCURVE",
"96 14 OFFCURVE",
"57 14 CURVE SMOOTH",
"30 14 LINE",
"30 0 LINE"
);
},
{
closed = 1;
nodes = (
"372 388 LINE",
"372 416 LINE",
"30 290 LINE",
"30 262 LINE"
);
}
);
width = 525;
}
);
note = Lslash;
rightKerningGroup = L;
unicode = 0141;
},
{
glyphname = M;
lastChange = "2015-12-01 05:23:18 +0000";
layers = (
{
layerId = "DE721516-52ED-4FB4-A3DE-9EDE92CA8211";
name = Light;
paths = (
{
closed = 1;
nodes = (
"238 0 LINE",
"238 14 LINE",
"211 14 LINE SMOOTH",
"172 14 OFFCURVE",
"150 23 OFFCURVE",
"150 47 CURVE SMOOTH",
"150 653 LINE",
"151 656 LINE",
"413 79 LINE",
"433 79 LINE",
"694 656 LINE",
"696 653 LINE",
"696 47 LINE SMOOTH",
"696 23 OFFCURVE",
"674 14 OFFCURVE",
"635 14 CURVE SMOOTH",
"608 14 LINE",
"608 0 LINE",
"816 0 LINE",
"816 14 LINE",
"789 14 LINE SMOOTH",
"750 14 OFFCURVE",
"728 23 OFFCURVE",
"728 47 CURVE SMOOTH",
"728 653 LINE SMOOTH",
"728 677 OFFCURVE",
"750 686 OFFCURVE",
"789 686 CURVE SMOOTH",
"816 686 LINE",
"816 700 LINE",
"680 700 LINE",
"423 124 LINE",
"166 700 LINE",
"30 700 LINE",
"30 686 LINE",
"57 686 LINE SMOOTH",
"96 686 OFFCURVE",
"118 677 OFFCURVE",
"118 653 CURVE SMOOTH",
"118 47 LINE SMOOTH",
"118 23 OFFCURVE",
"96 14 OFFCURVE",
"57 14 CURVE SMOOTH",
"30 14 LINE",
"30 0 LINE"
);
}
);
width = 846;
}
);
note = M;
unicode = 004D;
},
{
glyphname = Mdotbelow;
lastChange = "2015-12-01 05:23:22 +0000";
layers = (
{
layerId = "DE721516-52ED-4FB4-A3DE-9EDE92CA8211";
name = Light;
paths = (
{
closed = 1;
nodes = (
"238 0 LINE",
"238 14 LINE",
"211 14 LINE SMOOTH",
"172 14 OFFCURVE",
"150 23 OFFCURVE",
"150 47 CURVE SMOOTH",
"150 653 LINE",
"151 656 LINE",
"413 79 LINE",
"433 79 LINE",
"694 656 LINE",
"696 653 LINE",
"696 47 LINE SMOOTH",
"696 23 OFFCURVE",
"674 14 OFFCURVE",
"635 14 CURVE SMOOTH",
"608 14 LINE",
"608 0 LINE",
"816 0 LINE",
"816 14 LINE",
"789 14 LINE SMOOTH",
"750 14 OFFCURVE",
"728 23 OFFCURVE",
"728 47 CURVE SMOOTH",
"728 653 LINE SMOOTH",
"728 677 OFFCURVE",
"750 686 OFFCURVE",
"789 686 CURVE SMOOTH",
"816 686 LINE",
"816 700 LINE",
"680 700 LINE",
"423 124 LINE",
"166 700 LINE",
"30 700 LINE",
"30 686 LINE",
"57 686 LINE SMOOTH",
"96 686 OFFCURVE",
"118 677 OFFCURVE",
"118 653 CURVE SMOOTH",
"118 47 LINE SMOOTH",
"118 23 OFFCURVE",
"96 14 OFFCURVE",
"57 14 CURVE SMOOTH",
"30 14 LINE",
"30 0 LINE"
);
},
{
closed = 1;
nodes = (
"440 -124 OFFCURVE",
"452 -113 OFFCURVE",
"452 -94 CURVE SMOOTH",
"452 -75 OFFCURVE",
"440 -64 OFFCURVE",
"423 -64 CURVE SMOOTH",
"406 -64 OFFCURVE",
"394 -75 OFFCURVE",
"394 -94 CURVE SMOOTH",
"394 -113 OFFCURVE",
"406 -124 OFFCURVE",
"423 -124 CURVE SMOOTH"
);
}
);
width = 846;
}
);
note = Mdotbelow;
unicode = 1E42;
},
{
glyphname = N;
lastChange = "2015-12-01 05:23:18 +0000";
layers = (
{
layerId = "DE721516-52ED-4FB4-A3DE-9EDE92CA8211";
name = Light;
paths = (
{
closed = 1;
nodes = (
"238 0 LINE",
"238 14 LINE",
"211 14 LINE SMOOTH",
"172 14 OFFCURVE",
"150 23 OFFCURVE",
"150 47 CURVE SMOOTH",
"150 677 LINE",
"156 677 LINE",
"578 0 LINE",
"609 0 LINE",
"609 653 LINE SMOOTH",
"609 677 OFFCURVE",
"631 686 OFFCURVE",
"670 686 CURVE SMOOTH",
"697 686 LINE",
"697 700 LINE",
"489 700 LINE",
"489 686 LINE",
"516 686 LINE SMOOTH",
"555 686 OFFCURVE",
"577 677 OFFCURVE",
"577 653 CURVE SMOOTH",
"577 51 LINE",
"175 700 LINE",
"30 700 LINE",
"30 686 LINE",
"57 686 LINE SMOOTH",
"96 686 OFFCURVE",
"118 677 OFFCURVE",
"118 653 CURVE SMOOTH",
"118 47 LINE SMOOTH",
"118 23 OFFCURVE",
"96 14 OFFCURVE",
"57 14 CURVE SMOOTH",
"30 14 LINE",
"30 0 LINE"
);
}
);
width = 727;
}
);
note = N;
unicode = 004E;
},
{
glyphname = Nacute;
lastChange = "2015-12-01 05:23:22 +0000";
layers = (
{
layerId = "DE721516-52ED-4FB4-A3DE-9EDE92CA8211";
name = Light;
paths = (
{
closed = 1;
nodes = (
"238 0 LINE",
"238 14 LINE",
"211 14 LINE SMOOTH",
"172 14 OFFCURVE",
"150 23 OFFCURVE",
"150 47 CURVE SMOOTH",
"150 677 LINE",
"156 677 LINE",
"578 0 LINE",
"609 0 LINE",
"609 653 LINE SMOOTH",
"609 677 OFFCURVE",
"631 686 OFFCURVE",
"670 686 CURVE SMOOTH",
"697 686 LINE",
"697 700 LINE",
"489 700 LINE",
"489 686 LINE",
"516 686 LINE SMOOTH",
"555 686 OFFCURVE",
"577 677 OFFCURVE",
"577 653 CURVE SMOOTH",
"577 51 LINE",
"175 700 LINE",
"30 700 LINE",
"30 686 LINE",
"57 686 LINE SMOOTH",
"96 686 OFFCURVE",
"118 677 OFFCURVE",
"118 653 CURVE SMOOTH",
"118 47 LINE SMOOTH",
"118 23 OFFCURVE",
"96 14 OFFCURVE",
"57 14 CURVE SMOOTH",
"30 14 LINE",
"30 0 LINE"
);
},
{
closed = 1;
nodes = (
"429 860 LINE SMOOTH",
"440 866 OFFCURVE",
"445 875 OFFCURVE",
"445 883 CURVE SMOOTH",
"445 892 OFFCURVE",
"438 897 OFFCURVE",
"431 897 CURVE SMOOTH",
"421 897 OFFCURVE",
"413 891 OFFCURVE",
"405 885 CURVE",
"298 798 LINE",
"305 788 LINE"
);
}
);
width = 727;
}
);
note = Nacute;
unicode = 0143;
},
{
glyphname = Ncaron;
lastChange = "2015-12-01 05:23:22 +0000";
layers = (
{
layerId = "DE721516-52ED-4FB4-A3DE-9EDE92CA8211";
name = Light;
paths = (
{
closed = 1;
nodes = (
"238 0 LINE",
"238 14 LINE",
"211 14 LINE SMOOTH",
"172 14 OFFCURVE",
"150 23 OFFCURVE",
"150 47 CURVE SMOOTH",
"150 677 LINE",
"156 677 LINE",
"578 0 LINE",
"609 0 LINE",
"609 653 LINE SMOOTH",
"609 677 OFFCURVE",
"631 686 OFFCURVE",
"670 686 CURVE SMOOTH",
"697 686 LINE",
"697 700 LINE",
"489 700 LINE",
"489 686 LINE",
"516 686 LINE SMOOTH",
"555 686 OFFCURVE",
"577 677 OFFCURVE",
"577 653 CURVE SMOOTH",
"577 51 LINE",
"175 700 LINE",
"30 700 LINE",
"30 686 LINE",
"57 686 LINE SMOOTH",
"96 686 OFFCURVE",
"118 677 OFFCURVE",
"118 653 CURVE SMOOTH",
"118 47 LINE SMOOTH",
"118 23 OFFCURVE",
"96 14 OFFCURVE",
"57 14 CURVE SMOOTH",
"30 14 LINE",
"30 0 LINE"
);
},
{
closed = 1;
nodes = (
"382 787 LINE",
"483 883 LINE",
"469 899 LINE",
"381 824 LINE",
"377 821 OFFCURVE",
"373 819 OFFCURVE",
"370 819 CURVE SMOOTH",
"367 819 OFFCURVE",
"363 821 OFFCURVE",
"359 824 CURVE",
"271 899 LINE",
"257 883 LINE",
"358 787 LINE"
);
}
);
width = 727;
}
);
note = Ncaron;
unicode = 0147;
},
{
glyphname = Ncommaaccent;
lastChange = "2015-12-01 05:23:23 +0000";
layers = (
{
layerId = "DE721516-52ED-4FB4-A3DE-9EDE92CA8211";
name = Light;
paths = (
{
closed = 1;
nodes = (
"238 0 LINE",
"238 14 LINE",
"211 14 LINE SMOOTH",
"172 14 OFFCURVE",
"150 23 OFFCURVE",
"150 47 CURVE SMOOTH",
"150 677 LINE",
"156 677 LINE",
"578 0 LINE",
"609 0 LINE",
"609 653 LINE SMOOTH",
"609 677 OFFCURVE",
"631 686 OFFCURVE",
"670 686 CURVE SMOOTH",
"697 686 LINE",
"697 700 LINE",
"489 700 LINE",
"489 686 LINE",
"516 686 LINE SMOOTH",
"555 686 OFFCURVE",
"577 677 OFFCURVE",
"577 653 CURVE SMOOTH",
"577 51 LINE",
"175 700 LINE",
"30 700 LINE",
"30 686 LINE",
"57 686 LINE SMOOTH",
"96 686 OFFCURVE",
"118 677 OFFCURVE",
"118 653 CURVE SMOOTH",
"118 47 LINE SMOOTH",
"118 23 OFFCURVE",
"96 14 OFFCURVE",
"57 14 CURVE SMOOTH",
"30 14 LINE",
"30 0 LINE"
);
},
{
closed = 1;
nodes = (
"349 -194 OFFCURVE",
"369 -150 OFFCURVE",
"369 -102 CURVE SMOOTH",
"369 -67 OFFCURVE",
"354 -61 OFFCURVE",
"340 -61 CURVE SMOOTH",
"323 -61 OFFCURVE",
"314 -72 OFFCURVE",
"314 -90 CURVE SMOOTH",
"314 -116 OFFCURVE",
"341 -116 OFFCURVE",
"341 -144 CURVE SMOOTH",
"341 -174 OFFCURVE",
"315 -202 OFFCURVE",
"294 -222 CURVE",
"302 -232 LINE"
);
}
);
width = 727;
}
);
note = Ncommaaccent;
unicode = 0145;
},
{
glyphname = Ndotaccent;
lastChange = "2015-12-01 05:23:24 +0000";
layers = (
{
layerId = "DE721516-52ED-4FB4-A3DE-9EDE92CA8211";
name = Light;
paths = (
{
closed = 1;
nodes = (
"238 0 LINE",
"238 14 LINE",
"211 14 LINE SMOOTH",
"172 14 OFFCURVE",
"150 23 OFFCURVE",
"150 47 CURVE SMOOTH",
"150 677 LINE",
"156 677 LINE",
"578 0 LINE",
"609 0 LINE",
"609 653 LINE SMOOTH",
"609 677 OFFCURVE",
"631 686 OFFCURVE",
"670 686 CURVE SMOOTH",
"697 686 LINE",
"697 700 LINE",
"489 700 LINE",
"489 686 LINE",
"516 686 LINE SMOOTH",
"555 686 OFFCURVE",
"577 677 OFFCURVE",
"577 653 CURVE SMOOTH",
"577 51 LINE",
"175 700 LINE",
"30 700 LINE",
"30 686 LINE",
"57 686 LINE SMOOTH",
"96 686 OFFCURVE",
"118 677 OFFCURVE",
"118 653 CURVE SMOOTH",
"118 47 LINE SMOOTH",
"118 23 OFFCURVE",
"96 14 OFFCURVE",
"57 14 CURVE SMOOTH",
"30 14 LINE",
"30 0 LINE"
);
},
{
closed = 1;
nodes = (
"380 759 OFFCURVE",
"392 770 OFFCURVE",
"392 789 CURVE SMOOTH",
"392 808 OFFCURVE",
"380 819 OFFCURVE",
"363 819 CURVE SMOOTH",
"346 819 OFFCURVE",
"334 808 OFFCURVE",
"334 789 CURVE SMOOTH",
"334 770 OFFCURVE",
"346 759 OFFCURVE",
"363 759 CURVE SMOOTH"
);
}
);
width = 727;
}
);
note = Ndotaccent;
unicode = 1E44;
},
{
glyphname = Ndotbelow;
lastChange = "2015-12-01 05:23:22 +0000";
layers = (
{
layerId = "DE721516-52ED-4FB4-A3DE-9EDE92CA8211";
name = Light;
paths = (
{
closed = 1;
nodes = (
"238 0 LINE",
"238 14 LINE",
"211 14 LINE SMOOTH",
"172 14 OFFCURVE",
"150 23 OFFCURVE",
"150 47 CURVE SMOOTH",
"150 677 LINE",
"156 677 LINE",
"578 0 LINE",
"609 0 LINE",
"609 653 LINE SMOOTH",
"609 677 OFFCURVE",
"631 686 OFFCURVE",
"670 686 CURVE SMOOTH",
"697 686 LINE",
"697 700 LINE",
"489 700 LINE",
"489 686 LINE",
"516 686 LINE SMOOTH",
"555 686 OFFCURVE",
"577 677 OFFCURVE",
"577 653 CURVE SMOOTH",
"577 51 LINE",
"175 700 LINE",
"30 700 LINE",
"30 686 LINE",
"57 686 LINE SMOOTH",
"96 686 OFFCURVE",
"118 677 OFFCURVE",
"118 653 CURVE SMOOTH",
"118 47 LINE SMOOTH",
"118 23 OFFCURVE",
"96 14 OFFCURVE",
"57 14 CURVE SMOOTH",
"30 14 LINE",
"30 0 LINE"
);
},
{
closed = 1;
nodes = (
"380 -124 OFFCURVE",
"392 -113 OFFCURVE",
"392 -94 CURVE SMOOTH",
"392 -75 OFFCURVE",
"380 -64 OFFCURVE",
"363 -64 CURVE SMOOTH",
"346 -64 OFFCURVE",
"334 -75 OFFCURVE",
"334 -94 CURVE SMOOTH",
"334 -113 OFFCURVE",
"346 -124 OFFCURVE",
"363 -124 CURVE SMOOTH"
);
}
);
width = 727;
}
);
note = Ndotbelow;
unicode = 1E46;
},
{
glyphname = Eng;
lastChange = "2015-12-01 05:23:18 +0000";
layers = (
{
layerId = "DE721516-52ED-4FB4-A3DE-9EDE92CA8211";
name = Light;
paths = (
{
closed = 1;
nodes = (
"547 -234 OFFCURVE",
"609 -168 OFFCURVE",
"609 -62 CURVE SMOOTH",
"609 653 LINE SMOOTH",
"609 677 OFFCURVE",
"631 686 OFFCURVE",
"670 686 CURVE SMOOTH",
"697 686 LINE",
"697 700 LINE",
"489 700 LINE",
"489 686 LINE",
"516 686 LINE SMOOTH",
"555 686 OFFCURVE",
"577 677 OFFCURVE",
"577 653 CURVE SMOOTH",
"577 51 LINE",
"175 700 LINE",
"30 700 LINE",
"30 686 LINE",
"57 686 LINE SMOOTH",
"96 686 OFFCURVE",
"118 677 OFFCURVE",
"118 653 CURVE SMOOTH",
"118 47 LINE SMOOTH",
"118 23 OFFCURVE",
"96 14 OFFCURVE",
"57 14 CURVE SMOOTH",
"30 14 LINE",
"30 0 LINE",
"238 0 LINE",
"238 14 LINE",
"211 14 LINE SMOOTH",
"172 14 OFFCURVE",
"150 23 OFFCURVE",
"150 47 CURVE SMOOTH",
"150 677 LINE",
"156 677 LINE",
"577 1 LINE",
"577 -63 LINE SMOOTH",
"577 -155 OFFCURVE",
"520 -210 OFFCURVE",
"448 -218 CURVE",
"451 -234 LINE"
);
}
);
width = 727;
}
);
note = Eng;
unicode = 014A;
},
{
glyphname = Nlinebelow;
lastChange = "2015-12-01 05:23:22 +0000";
layers = (
{
layerId = "DE721516-52ED-4FB4-A3DE-9EDE92CA8211";
name = Light;
paths = (
{
closed = 1;
nodes = (
"238 0 LINE",
"238 14 LINE",
"211 14 LINE SMOOTH",
"172 14 OFFCURVE",
"150 23 OFFCURVE",
"150 47 CURVE SMOOTH",
"150 677 LINE",
"156 677 LINE",
"578 0 LINE",
"609 0 LINE",
"609 653 LINE SMOOTH",
"609 677 OFFCURVE",
"631 686 OFFCURVE",
"670 686 CURVE SMOOTH",
"697 686 LINE",
"697 700 LINE",
"489 700 LINE",
"489 686 LINE",
"516 686 LINE SMOOTH",
"555 686 OFFCURVE",
"577 677 OFFCURVE",
"577 653 CURVE SMOOTH",
"577 51 LINE",
"175 700 LINE",
"30 700 LINE",
"30 686 LINE",
"57 686 LINE SMOOTH",
"96 686 OFFCURVE",
"118 677 OFFCURVE",
"118 653 CURVE SMOOTH",
"118 47 LINE SMOOTH",
"118 23 OFFCURVE",
"96 14 OFFCURVE",
"57 14 CURVE SMOOTH",
"30 14 LINE",
"30 0 LINE"
);
},
{
closed = 1;
nodes = (
"499 -98 LINE",
"499 -76 LINE",
"225 -76 LINE",
"225 -98 LINE"
);
}
);
width = 727;
}
);
note = Nlinebelow;
unicode = 1E48;
},
{
glyphname = Ntilde;
lastChange = "2015-12-01 05:23:22 +0000";
layers = (
{
layerId = "DE721516-52ED-4FB4-A3DE-9EDE92CA8211";
name = Light;
paths = (
{
closed = 1;
nodes = (
"238 0 LINE",
"238 14 LINE",
"211 14 LINE SMOOTH",
"172 14 OFFCURVE",
"150 23 OFFCURVE",
"150 47 CURVE SMOOTH",
"150 677 LINE",
"156 677 LINE",
"578 0 LINE",
"609 0 LINE",
"609 653 LINE SMOOTH",
"609 677 OFFCURVE",
"631 686 OFFCURVE",
"670 686 CURVE SMOOTH",
"697 686 LINE",
"697 700 LINE",
"489 700 LINE",
"489 686 LINE",
"516 686 LINE SMOOTH",
"555 686 OFFCURVE",
"577 677 OFFCURVE",
"577 653 CURVE SMOOTH",
"577 51 LINE",
"175 700 LINE",
"30 700 LINE",
"30 686 LINE",
"57 686 LINE SMOOTH",
"96 686 OFFCURVE",
"118 677 OFFCURVE",
"118 653 CURVE SMOOTH",
"118 47 LINE SMOOTH",
"118 23 OFFCURVE",
"96 14 OFFCURVE",
"57 14 CURVE SMOOTH",
"30 14 LINE",
"30 0 LINE"
);
},
{
closed = 1;
nodes = (
"256 824 OFFCURVE",
"275 848 OFFCURVE",
"304 848 CURVE SMOOTH",
"345 848 OFFCURVE",
"389 788 OFFCURVE",
"432 788 CURVE SMOOTH",
"473 788 OFFCURVE",
"499 815 OFFCURVE",
"508 871 CURVE",
"493 878 LINE",
"483 838 OFFCURVE",
"467 812 OFFCURVE",
"435 812 CURVE SMOOTH",
"396 812 OFFCURVE",
"349 871 OFFCURVE",
"306 871 CURVE SMOOTH",
"270 871 OFFCURVE",
"239 849 OFFCURVE",
"232 794 CURVE",
"246 786 LINE"
);
}
);
width = 727;
}
);
note = Ntilde;
unicode = 00D1;
},
{
glyphname = O;
lastChange = "2015-12-01 05:23:22 +0000";
layers = (
{
layerId = "DE721516-52ED-4FB4-A3DE-9EDE92CA8211";
name = Light;
paths = (
{
closed = 1;
nodes = (
"545 -10 OFFCURVE",
"664 117 OFFCURVE",
"664 350 CURVE SMOOTH",
"664 583 OFFCURVE",
"545 710 OFFCURVE",
"352 710 CURVE SMOOTH",
"159 710 OFFCURVE",
"40 583 OFFCURVE",
"40 350 CURVE SMOOTH",
"40 117 OFFCURVE",
"159 -10 OFFCURVE",
"352 -10 CURVE SMOOTH"
);
},
{
closed = 1;
nodes = (
"159 14 OFFCURVE",
"71 154 OFFCURVE",
"71 350 CURVE SMOOTH",
"71 546 OFFCURVE",
"159 686 OFFCURVE",
"352 686 CURVE SMOOTH",
"545 686 OFFCURVE",
"633 546 OFFCURVE",
"633 350 CURVE SMOOTH",
"633 154 OFFCURVE",
"545 14 OFFCURVE",
"352 14 CURVE SMOOTH"
);
}
);
width = 704;
}
);
leftKerningGroup = O;
note = O;
rightKerningGroup = O;
unicode = 004F;
},
{
glyphname = Oacute;
lastChange = "2015-12-01 05:23:23 +0000";
layers = (
{
layerId = "DE721516-52ED-4FB4-A3DE-9EDE92CA8211";
name = Light;
paths = (
{
closed = 1;
nodes = (
"545 -10 OFFCURVE",
"664 117 OFFCURVE",
"664 350 CURVE SMOOTH",
"664 583 OFFCURVE",
"545 710 OFFCURVE",
"352 710 CURVE SMOOTH",
"159 710 OFFCURVE",
"40 583 OFFCURVE",
"40 350 CURVE SMOOTH",
"40 117 OFFCURVE",
"159 -10 OFFCURVE",
"352 -10 CURVE SMOOTH"
);
},
{
closed = 1;
nodes = (
"159 14 OFFCURVE",
"71 154 OFFCURVE",
"71 350 CURVE SMOOTH",
"71 546 OFFCURVE",
"159 686 OFFCURVE",
"352 686 CURVE SMOOTH",
"545 686 OFFCURVE",
"633 546 OFFCURVE",
"633 350 CURVE SMOOTH",
"633 154 OFFCURVE",
"545 14 OFFCURVE",
"352 14 CURVE SMOOTH"
);
},
{
closed = 1;
nodes = (
"411 860 LINE SMOOTH",
"422 866 OFFCURVE",
"427 875 OFFCURVE",
"427 883 CURVE SMOOTH",
"427 892 OFFCURVE",
"420 897 OFFCURVE",
"413 897 CURVE SMOOTH",
"403 897 OFFCURVE",
"395 891 OFFCURVE",
"387 885 CURVE",
"280 798 LINE",
"287 788 LINE"
);
}
);
width = 704;
}
);
leftKerningGroup = O;
note = Oacute;
rightKerningGroup = O;
unicode = 00D3;
},
{
glyphname = Obreve;
lastChange = "2015-12-01 05:23:22 +0000";
layers = (
{
layerId = "DE721516-52ED-4FB4-A3DE-9EDE92CA8211";
name = Light;
paths = (
{
closed = 1;
nodes = (
"545 -10 OFFCURVE",
"664 117 OFFCURVE",
"664 350 CURVE SMOOTH",
"664 583 OFFCURVE",
"545 710 OFFCURVE",
"352 710 CURVE SMOOTH",
"159 710 OFFCURVE",
"40 583 OFFCURVE",
"40 350 CURVE SMOOTH",
"40 117 OFFCURVE",
"159 -10 OFFCURVE",
"352 -10 CURVE SMOOTH"
);
},
{
closed = 1;
nodes = (
"159 14 OFFCURVE",
"71 154 OFFCURVE",
"71 350 CURVE SMOOTH",
"71 546 OFFCURVE",
"159 686 OFFCURVE",
"352 686 CURVE SMOOTH",
"545 686 OFFCURVE",
"633 546 OFFCURVE",
"633 350 CURVE SMOOTH",
"633 154 OFFCURVE",
"545 14 OFFCURVE",
"352 14 CURVE SMOOTH"
);
},
{
closed = 1;
nodes = (
"423 774 OFFCURVE",
"475 809 OFFCURVE",
"481 887 CURVE",
"456 887 LINE",
"447 808 OFFCURVE",
"391 799 OFFCURVE",
"352 799 CURVE SMOOTH",
"313 799 OFFCURVE",
"257 808 OFFCURVE",
"248 887 CURVE",
"223 887 LINE",
"228 809 OFFCURVE",
"281 774 OFFCURVE",
"352 774 CURVE SMOOTH"
);
}
);
width = 704;
}
);
leftKerningGroup = O;
note = Obreve;
rightKerningGroup = O;
unicode = 014E;
},
{
glyphname = Ocaron;
lastChange = "2015-12-01 05:23:22 +0000";
layers = (
{
layerId = "DE721516-52ED-4FB4-A3DE-9EDE92CA8211";
name = Light;
paths = (
{
closed = 1;
nodes = (
"545 -10 OFFCURVE",
"664 117 OFFCURVE",
"664 350 CURVE SMOOTH",
"664 583 OFFCURVE",
"545 710 OFFCURVE",
"352 710 CURVE SMOOTH",
"159 710 OFFCURVE",
"40 583 OFFCURVE",
"40 350 CURVE SMOOTH",
"40 117 OFFCURVE",
"159 -10 OFFCURVE",
"352 -10 CURVE SMOOTH"
);
},
{
closed = 1;
nodes = (
"159 14 OFFCURVE",
"71 154 OFFCURVE",
"71 350 CURVE SMOOTH",
"71 546 OFFCURVE",
"159 686 OFFCURVE",
"352 686 CURVE SMOOTH",
"545 686 OFFCURVE",
"633 546 OFFCURVE",
"633 350 CURVE SMOOTH",
"633 154 OFFCURVE",
"545 14 OFFCURVE",
"352 14 CURVE SMOOTH"
);
},
{
closed = 1;
nodes = (
"364 787 LINE",
"465 883 LINE",
"451 899 LINE",
"363 824 LINE",
"359 821 OFFCURVE",
"355 819 OFFCURVE",
"352 819 CURVE SMOOTH",
"349 819 OFFCURVE",
"345 821 OFFCURVE",
"341 824 CURVE",
"253 899 LINE",
"239 883 LINE",
"340 787 LINE"
);
}
);
width = 704;
}
);
leftKerningGroup = O;
note = Ocaron;
rightKerningGroup = O;
unicode = 01D1;
},
{
glyphname = Ocircumflex;
lastChange = "2015-12-01 05:23:23 +0000";
layers = (
{
layerId = "DE721516-52ED-4FB4-A3DE-9EDE92CA8211";
name = Light;
paths = (
{
closed = 1;
nodes = (
"545 -10 OFFCURVE",
"664 117 OFFCURVE",
"664 350 CURVE SMOOTH",
"664 583 OFFCURVE",
"545 710 OFFCURVE",
"352 710 CURVE SMOOTH",
"159 710 OFFCURVE",
"40 583 OFFCURVE",
"40 350 CURVE SMOOTH",
"40 117 OFFCURVE",
"159 -10 OFFCURVE",
"352 -10 CURVE SMOOTH"
);
},
{
closed = 1;
nodes = (
"159 14 OFFCURVE",
"71 154 OFFCURVE",
"71 350 CURVE SMOOTH",
"71 546 OFFCURVE",
"159 686 OFFCURVE",
"352 686 CURVE SMOOTH",
"545 686 OFFCURVE",
"633 546 OFFCURVE",
"633 350 CURVE SMOOTH",
"633 154 OFFCURVE",
"545 14 OFFCURVE",
"352 14 CURVE SMOOTH"
);
},
{
closed = 1;
nodes = (
"341 862 LINE",
"345 865 OFFCURVE",
"349 867 OFFCURVE",
"352 867 CURVE SMOOTH",
"355 867 OFFCURVE",
"359 865 OFFCURVE",
"363 862 CURVE",
"451 787 LINE",
"465 803 LINE",
"364 899 LINE",
"340 899 LINE",
"239 803 LINE",
"253 787 LINE"
);
}
);
width = 704;
}
);
leftKerningGroup = O;
note = Ocircumflex;
rightKerningGroup = O;
unicode = 00D4;
},
{
glyphname = Ocircumflexacute;
lastChange = "2015-12-01 05:23:24 +0000";
layers = (
{
layerId = "DE721516-52ED-4FB4-A3DE-9EDE92CA8211";
name = Light;
paths = (
{
closed = 1;
nodes = (
"545 -10 OFFCURVE",
"664 117 OFFCURVE",
"664 350 CURVE SMOOTH",
"664 583 OFFCURVE",
"545 710 OFFCURVE",
"352 710 CURVE SMOOTH",
"159 710 OFFCURVE",
"40 583 OFFCURVE",
"40 350 CURVE SMOOTH",
"40 117 OFFCURVE",
"159 -10 OFFCURVE",
"352 -10 CURVE SMOOTH"
);
},
{
closed = 1;
nodes = (
"159 14 OFFCURVE",
"71 154 OFFCURVE",
"71 350 CURVE SMOOTH",
"71 546 OFFCURVE",
"159 686 OFFCURVE",
"352 686 CURVE SMOOTH",
"545 686 OFFCURVE",
"633 546 OFFCURVE",
"633 350 CURVE SMOOTH",
"633 154 OFFCURVE",
"545 14 OFFCURVE",
"352 14 CURVE SMOOTH"
);
},
{
closed = 1;
nodes = (
"341 862 LINE",
"345 865 OFFCURVE",
"349 867 OFFCURVE",
"352 867 CURVE SMOOTH",
"355 867 OFFCURVE",
"359 865 OFFCURVE",
"363 862 CURVE",
"451 787 LINE",
"465 803 LINE",
"364 899 LINE",
"340 899 LINE",
"239 803 LINE",
"253 787 LINE"
);
},
{
closed = 1;
nodes = (
"569 951 LINE SMOOTH",
"580 957 OFFCURVE",
"585 967 OFFCURVE",
"585 974 CURVE SMOOTH",
"585 983 OFFCURVE",
"578 988 OFFCURVE",
"570 988 CURVE SMOOTH",
"560 988 OFFCURVE",
"550 982 OFFCURVE",
"543 976 CURVE SMOOTH",
"437 888 LINE",
"445 878 LINE"
);
}
);
width = 704;
}
);
leftKerningGroup = O;
note = Ocircumflexacute;
rightKerningGroup = O;
unicode = 1ED0;
},
{
glyphname = Ocircumflexdotbelow;
lastChange = "2015-12-01 05:48:22 +0000";
layers = (
{
layerId = "DE721516-52ED-4FB4-A3DE-9EDE92CA8211";
name = Light;
paths = (
{
closed = 1;
nodes = (
"40 117 OFFCURVE",
"159 -10 OFFCURVE",
"352 -10 CURVE SMOOTH",
"545 -10 OFFCURVE",
"664 117 OFFCURVE",
"664 350 CURVE SMOOTH",
"664 583 OFFCURVE",
"545 710 OFFCURVE",
"352 710 CURVE SMOOTH",
"159 710 OFFCURVE",
"40 583 OFFCURVE",
"40 350 CURVE SMOOTH"
);
},
{
closed = 1;
nodes = (
"71 546 OFFCURVE",
"159 686 OFFCURVE",
"352 686 CURVE SMOOTH",
"545 686 OFFCURVE",
"633 546 OFFCURVE",
"633 350 CURVE SMOOTH",
"633 154 OFFCURVE",
"545 14 OFFCURVE",
"352 14 CURVE SMOOTH",
"159 14 OFFCURVE",
"71 154 OFFCURVE",
"71 350 CURVE SMOOTH"
);
},
{
closed = 1;
nodes = (
"253 787 LINE",
"341 862 LINE",
"345 865 OFFCURVE",
"349 867 OFFCURVE",
"352 867 CURVE SMOOTH",
"355 867 OFFCURVE",
"359 865 OFFCURVE",
"363 862 CURVE",
"451 787 LINE",
"465 803 LINE",
"364 899 LINE",
"340 899 LINE",
"239 803 LINE"
);
},
{
closed = 1;
nodes = (
"323 -113 OFFCURVE",
"335 -124 OFFCURVE",
"352 -124 CURVE SMOOTH",
"369 -124 OFFCURVE",
"381 -113 OFFCURVE",
"381 -94 CURVE SMOOTH",
"381 -75 OFFCURVE",
"369 -64 OFFCURVE",
"352 -64 CURVE SMOOTH",
"335 -64 OFFCURVE",
"323 -75 OFFCURVE",
"323 -94 CURVE SMOOTH"
);
}
);
width = 704;
}
);
leftKerningGroup = O;
note = Ocircumflexdotbelow;
rightKerningGroup = O;
unicode = 1ED8;
},
{
glyphname = Ocircumflexgrave;
lastChange = "2015-12-01 05:23:24 +0000";
layers = (
{
layerId = "DE721516-52ED-4FB4-A3DE-9EDE92CA8211";
name = Light;
paths = (
{
closed = 1;
nodes = (
"545 -10 OFFCURVE",
"664 117 OFFCURVE",
"664 350 CURVE SMOOTH",
"664 583 OFFCURVE",
"545 710 OFFCURVE",
"352 710 CURVE SMOOTH",
"159 710 OFFCURVE",
"40 583 OFFCURVE",
"40 350 CURVE SMOOTH",
"40 117 OFFCURVE",
"159 -10 OFFCURVE",
"352 -10 CURVE SMOOTH"
);
},
{
closed = 1;
nodes = (
"159 14 OFFCURVE",
"71 154 OFFCURVE",
"71 350 CURVE SMOOTH",
"71 546 OFFCURVE",
"159 686 OFFCURVE",
"352 686 CURVE SMOOTH",
"545 686 OFFCURVE",
"633 546 OFFCURVE",
"633 350 CURVE SMOOTH",
"633 154 OFFCURVE",
"545 14 OFFCURVE",
"352 14 CURVE SMOOTH"
);
},
{
closed = 1;
nodes = (
"279 888 LINE",
"173 976 LINE SMOOTH",
"166 982 OFFCURVE",
"156 988 OFFCURVE",
"146 988 CURVE SMOOTH",
"138 988 OFFCURVE",
"131 983 OFFCURVE",
"131 974 CURVE SMOOTH",
"131 967 OFFCURVE",
"136 958 OFFCURVE",
"147 951 CURVE SMOOTH",
"271 878 LINE"
);
},
{
closed = 1;
nodes = (
"341 862 LINE",
"345 865 OFFCURVE",
"349 867 OFFCURVE",
"352 867 CURVE SMOOTH",
"355 867 OFFCURVE",
"359 865 OFFCURVE",
"363 862 CURVE",
"451 787 LINE",
"465 803 LINE",
"364 899 LINE",
"340 899 LINE",
"239 803 LINE",
"253 787 LINE"
);
}
);
width = 704;
}
);
leftKerningGroup = O;
note = Ocircumflexgrave;
rightKerningGroup = O;
unicode = 1ED2;
},
{
glyphname = Ocircumflexhookabove;
lastChange = "2015-12-01 05:23:23 +0000";
layers = (
{
layerId = "DE721516-52ED-4FB4-A3DE-9EDE92CA8211";
name = Light;
paths = (
{
closed = 1;
nodes = (
"545 -10 OFFCURVE",
"664 117 OFFCURVE",
"664 350 CURVE SMOOTH",
"664 583 OFFCURVE",
"545 710 OFFCURVE",
"352 710 CURVE SMOOTH",
"159 710 OFFCURVE",
"40 583 OFFCURVE",
"40 350 CURVE SMOOTH",
"40 117 OFFCURVE",
"159 -10 OFFCURVE",
"352 -10 CURVE SMOOTH"
);
},
{
closed = 1;
nodes = (
"159 14 OFFCURVE",
"71 154 OFFCURVE",
"71 350 CURVE SMOOTH",
"71 546 OFFCURVE",
"159 686 OFFCURVE",
"352 686 CURVE SMOOTH",
"545 686 OFFCURVE",
"633 546 OFFCURVE",
"633 350 CURVE SMOOTH",
"633 154 OFFCURVE",
"545 14 OFFCURVE",
"352 14 CURVE SMOOTH"
);
},
{
closed = 1;
nodes = (
"341 862 LINE",
"345 865 OFFCURVE",
"349 867 OFFCURVE",
"352 867 CURVE SMOOTH",
"355 867 OFFCURVE",
"359 865 OFFCURVE",
"363 862 CURVE",
"451 787 LINE",
"465 803 LINE",
"364 899 LINE",
"340 899 LINE",
"239 803 LINE",
"253 787 LINE"
);
},
{
closed = 1;
nodes = (
"496 872 LINE",
"480 874 OFFCURVE",
"462 879 OFFCURVE",
"462 895 CURVE SMOOTH",
"462 920 OFFCURVE",
"532 935 OFFCURVE",
"532 973 CURVE SMOOTH",
"532 1003 OFFCURVE",
"502 1016 OFFCURVE",
"470 1016 CURVE SMOOTH",
"438 1016 OFFCURVE",
"404 1004 OFFCURVE",
"404 981 CURVE SMOOTH",
"404 972 OFFCURVE",
"411 967 OFFCURVE",
"418 967 CURVE SMOOTH",
"430 967 OFFCURVE",
"433 975 OFFCURVE",
"435 983 CURVE SMOOTH",
"437 992 OFFCURVE",
"443 999 OFFCURVE",
"471 1001 CURVE SMOOTH",
"494 1001 OFFCURVE",
"510 988 OFFCURVE",
"510 975 CURVE SMOOTH",
"510 941 OFFCURVE",
"440 932 OFFCURVE",
"440 897 CURVE SMOOTH",
"440 877 OFFCURVE",
"452 860 OFFCURVE",
"489 860 CURVE"
);
}
);
width = 704;
}
);
leftKerningGroup = O;
note = Ocircumflexhookabove;
rightKerningGroup = O;
unicode = 1ED4;
},
{
glyphname = Ocircumflextilde;
lastChange = "2015-12-01 05:23:24 +0000";
layers = (
{
layerId = "DE721516-52ED-4FB4-A3DE-9EDE92CA8211";
name = Light;
paths = (
{
closed = 1;
nodes = (
"545 -10 OFFCURVE",
"664 117 OFFCURVE",
"664 350 CURVE SMOOTH",
"664 583 OFFCURVE",
"545 710 OFFCURVE",
"352 710 CURVE SMOOTH",
"159 710 OFFCURVE",
"40 583 OFFCURVE",
"40 350 CURVE SMOOTH",
"40 117 OFFCURVE",
"159 -10 OFFCURVE",
"352 -10 CURVE SMOOTH"
);
},
{
closed = 1;
nodes = (
"159 14 OFFCURVE",
"71 154 OFFCURVE",
"71 350 CURVE SMOOTH",
"71 546 OFFCURVE",
"159 686 OFFCURVE",
"352 686 CURVE SMOOTH",
"545 686 OFFCURVE",
"633 546 OFFCURVE",
"633 350 CURVE SMOOTH",
"633 154 OFFCURVE",
"545 14 OFFCURVE",
"352 14 CURVE SMOOTH"
);
},
{
closed = 1;
nodes = (
"341 862 LINE",
"345 865 OFFCURVE",
"349 867 OFFCURVE",
"352 867 CURVE SMOOTH",
"355 867 OFFCURVE",
"359 865 OFFCURVE",
"363 862 CURVE",
"451 787 LINE",
"465 803 LINE",
"364 899 LINE",
"340 899 LINE",
"239 803 LINE",
"253 787 LINE"
);
},
{
closed = 1;
nodes = (
"242 970 OFFCURVE",
"261 994 OFFCURVE",
"290 994 CURVE SMOOTH",
"331 994 OFFCURVE",
"375 934 OFFCURVE",
"418 934 CURVE SMOOTH",
"459 934 OFFCURVE",
"485 961 OFFCURVE",
"494 1017 CURVE",
"479 1024 LINE",
"469 984 OFFCURVE",
"453 958 OFFCURVE",
"421 958 CURVE SMOOTH",
"382 958 OFFCURVE",
"335 1017 OFFCURVE",
"292 1017 CURVE SMOOTH",
"256 1017 OFFCURVE",
"225 995 OFFCURVE",
"218 940 CURVE",
"232 932 LINE"
);
}
);
width = 704;
}
);
leftKerningGroup = O;
note = Ocircumflextilde;
rightKerningGroup = O;
unicode = 1ED6;
},
{
glyphname = Odieresis;
lastChange = "2015-12-01 05:23:23 +0000";
layers = (
{
layerId = "DE721516-52ED-4FB4-A3DE-9EDE92CA8211";
name = Light;
paths = (
{
closed = 1;
nodes = (
"545 -10 OFFCURVE",
"664 117 OFFCURVE",
"664 350 CURVE SMOOTH",
"664 583 OFFCURVE",
"545 710 OFFCURVE",
"352 710 CURVE SMOOTH",
"159 710 OFFCURVE",
"40 583 OFFCURVE",
"40 350 CURVE SMOOTH",
"40 117 OFFCURVE",
"159 -10 OFFCURVE",
"352 -10 CURVE SMOOTH"
);
},
{
closed = 1;
nodes = (
"159 14 OFFCURVE",
"71 154 OFFCURVE",
"71 350 CURVE SMOOTH",
"71 546 OFFCURVE",
"159 686 OFFCURVE",
"352 686 CURVE SMOOTH",
"545 686 OFFCURVE",
"633 546 OFFCURVE",
"633 350 CURVE SMOOTH",
"633 154 OFFCURVE",
"545 14 OFFCURVE",
"352 14 CURVE SMOOTH"
);
},
{
closed = 1;
nodes = (
"271 785 OFFCURVE",
"283 796 OFFCURVE",
"283 815 CURVE SMOOTH",
"283 834 OFFCURVE",
"271 845 OFFCURVE",
"254 845 CURVE SMOOTH",
"237 845 OFFCURVE",
"225 834 OFFCURVE",
"225 815 CURVE SMOOTH",
"225 796 OFFCURVE",
"237 785 OFFCURVE",
"254 785 CURVE SMOOTH"
);
},
{
closed = 1;
nodes = (
"467 785 OFFCURVE",
"479 796 OFFCURVE",
"479 815 CURVE SMOOTH",
"479 834 OFFCURVE",
"467 845 OFFCURVE",
"450 845 CURVE SMOOTH",
"433 845 OFFCURVE",
"421 834 OFFCURVE",
"421 815 CURVE SMOOTH",
"421 796 OFFCURVE",
"433 785 OFFCURVE",
"450 785 CURVE SMOOTH"
);
}
);
width = 704;
}
);
leftKerningGroup = O;
note = Odieresis;
rightKerningGroup = O;
unicode = 00D6;
},
{
glyphname = Odotbelow;
lastChange = "2015-12-01 05:48:24 +0000";
layers = (
{
layerId = "DE721516-52ED-4FB4-A3DE-9EDE92CA8211";
name = Light;
paths = (
{
closed = 1;
nodes = (
"40 117 OFFCURVE",
"159 -10 OFFCURVE",
"352 -10 CURVE SMOOTH",
"545 -10 OFFCURVE",
"664 117 OFFCURVE",
"664 350 CURVE SMOOTH",
"664 583 OFFCURVE",
"545 710 OFFCURVE",
"352 710 CURVE SMOOTH",
"159 710 OFFCURVE",
"40 583 OFFCURVE",
"40 350 CURVE SMOOTH"
);
},
{
closed = 1;
nodes = (
"71 546 OFFCURVE",
"159 686 OFFCURVE",
"352 686 CURVE SMOOTH",
"545 686 OFFCURVE",
"633 546 OFFCURVE",
"633 350 CURVE SMOOTH",
"633 154 OFFCURVE",
"545 14 OFFCURVE",
"352 14 CURVE SMOOTH",
"159 14 OFFCURVE",
"71 154 OFFCURVE",
"71 350 CURVE SMOOTH"
);
},
{
closed = 1;
nodes = (
"323 -113 OFFCURVE",
"335 -124 OFFCURVE",
"352 -124 CURVE SMOOTH",
"369 -124 OFFCURVE",
"381 -113 OFFCURVE",
"381 -94 CURVE SMOOTH",
"381 -75 OFFCURVE",
"369 -64 OFFCURVE",
"352 -64 CURVE SMOOTH",
"335 -64 OFFCURVE",
"323 -75 OFFCURVE",
"323 -94 CURVE SMOOTH"
);
}
);
width = 704;
}
);
leftKerningGroup = O;
note = Odotbelow;
rightKerningGroup = O;
unicode = 1ECC;
},
{
glyphname = Ograve;
lastChange = "2015-12-01 05:23:24 +0000";
layers = (
{
layerId = "DE721516-52ED-4FB4-A3DE-9EDE92CA8211";
name = Light;
paths = (
{
closed = 1;
nodes = (
"545 -10 OFFCURVE",
"664 117 OFFCURVE",
"664 350 CURVE SMOOTH",
"664 583 OFFCURVE",
"545 710 OFFCURVE",
"352 710 CURVE SMOOTH",
"159 710 OFFCURVE",
"40 583 OFFCURVE",
"40 350 CURVE SMOOTH",
"40 117 OFFCURVE",
"159 -10 OFFCURVE",
"352 -10 CURVE SMOOTH"
);
},
{
closed = 1;
nodes = (
"159 14 OFFCURVE",
"71 154 OFFCURVE",
"71 350 CURVE SMOOTH",
"71 546 OFFCURVE",
"159 686 OFFCURVE",
"352 686 CURVE SMOOTH",
"545 686 OFFCURVE",
"633 546 OFFCURVE",
"633 350 CURVE SMOOTH",
"633 154 OFFCURVE",
"545 14 OFFCURVE",
"352 14 CURVE SMOOTH"
);
},
{
closed = 1;
nodes = (
"403 798 LINE",
"296 885 LINE",
"288 891 OFFCURVE",
"280 897 OFFCURVE",
"270 897 CURVE SMOOTH",
"263 897 OFFCURVE",
"256 892 OFFCURVE",
"256 883 CURVE SMOOTH",
"256 875 OFFCURVE",
"261 866 OFFCURVE",
"272 860 CURVE SMOOTH",
"396 788 LINE"
);
}
);
width = 704;
}
);
leftKerningGroup = O;
note = Ograve;
rightKerningGroup = O;
unicode = 00D2;
},
{
glyphname = Ohookabove;
lastChange = "2015-12-01 05:23:23 +0000";
layers = (
{
layerId = "DE721516-52ED-4FB4-A3DE-9EDE92CA8211";
name = Light;
paths = (
{
closed = 1;
nodes = (
"545 -10 OFFCURVE",
"664 117 OFFCURVE",
"664 350 CURVE SMOOTH",
"664 583 OFFCURVE",
"545 710 OFFCURVE",
"352 710 CURVE SMOOTH",
"159 710 OFFCURVE",
"40 583 OFFCURVE",
"40 350 CURVE SMOOTH",
"40 117 OFFCURVE",
"159 -10 OFFCURVE",
"352 -10 CURVE SMOOTH"
);
},
{
closed = 1;
nodes = (
"159 14 OFFCURVE",
"71 154 OFFCURVE",
"71 350 CURVE SMOOTH",
"71 546 OFFCURVE",
"159 686 OFFCURVE",
"352 686 CURVE SMOOTH",
"545 686 OFFCURVE",
"633 546 OFFCURVE",
"633 350 CURVE SMOOTH",
"633 154 OFFCURVE",
"545 14 OFFCURVE",
"352 14 CURVE SMOOTH"
);
},
{
closed = 1;
nodes = (
"367 794 LINE",
"350 799 OFFCURVE",
"340 802 OFFCURVE",
"340 821 CURVE SMOOTH",
"340 851 OFFCURVE",
"416 869 OFFCURVE",
"416 915 CURVE SMOOTH",
"416 951 OFFCURVE",
"385 966 OFFCURVE",
"346 966 CURVE SMOOTH",
"306 966 OFFCURVE",
"276 949 OFFCURVE",
"276 924 CURVE SMOOTH",
"276 910 OFFCURVE",
"281 905 OFFCURVE",
"290 905 CURVE SMOOTH",
"302 905 OFFCURVE",
"304 910 OFFCURVE",
"309 927 CURVE",
"314 942 OFFCURVE",
"332 947 OFFCURVE",
"348 947 CURVE SMOOTH",
"376 947 OFFCURVE",
"385 933 OFFCURVE",
"385 917 CURVE SMOOTH",
"385 876 OFFCURVE",
"310 863 OFFCURVE",
"310 821 CURVE SMOOTH",
"310 797 OFFCURVE",
"328 779 OFFCURVE",
"360 779 CURVE"
);
}
);
width = 704;
}
);
leftKerningGroup = O;
note = Ohookabove;
rightKerningGroup = O;
unicode = 1ECE;
},
{
glyphname = Ohorn;
lastChange = "2015-12-01 05:23:23 +0000";
layers = (
{
layerId = "DE721516-52ED-4FB4-A3DE-9EDE92CA8211";
name = Light;
paths = (
{
closed = 1;
nodes = (
"545 -10 OFFCURVE",
"664 117 OFFCURVE",
"664 350 CURVE SMOOTH",
"664 583 OFFCURVE",
"545 710 OFFCURVE",
"352 710 CURVE SMOOTH",
"159 710 OFFCURVE",
"40 583 OFFCURVE",
"40 350 CURVE SMOOTH",
"40 117 OFFCURVE",
"159 -10 OFFCURVE",
"352 -10 CURVE SMOOTH"
);
},
{
closed = 1;
nodes = (
"159 14 OFFCURVE",
"71 154 OFFCURVE",
"71 350 CURVE SMOOTH",
"71 546 OFFCURVE",
"159 686 OFFCURVE",
"352 686 CURVE SMOOTH",
"545 686 OFFCURVE",
"633 546 OFFCURVE",
"633 350 CURVE SMOOTH",
"633 154 OFFCURVE",
"545 14 OFFCURVE",
"352 14 CURVE SMOOTH"
);
},
{
closed = 1;
nodes = (
"635 623 OFFCURVE",
"664 672 OFFCURVE",
"664 720 CURVE SMOOTH",
"664 755 OFFCURVE",
"646 763 OFFCURVE",
"632 763 CURVE SMOOTH",
"615 763 OFFCURVE",
"606 750 OFFCURVE",
"606 735 CURVE SMOOTH",
"606 707 OFFCURVE",
"632 708 OFFCURVE",
"632 680 CURVE SMOOTH",
"632 650 OFFCURVE",
"602 624 OFFCURVE",
"581 609 CURVE",
"581 592 LINE"
);
}
);
width = 704;
}
);
leftKerningGroup = O;
note = Ohorn;
rightKerningGroup = O;
unicode = 01A0;
},
{
glyphname = Ohornacute;
lastChange = "2015-12-01 05:23:21 +0000";
layers = (
{
layerId = "DE721516-52ED-4FB4-A3DE-9EDE92CA8211";
name = Light;
paths = (
{
closed = 1;
nodes = (
"545 -10 OFFCURVE",
"664 117 OFFCURVE",
"664 350 CURVE SMOOTH",
"664 583 OFFCURVE",
"545 710 OFFCURVE",
"352 710 CURVE SMOOTH",
"159 710 OFFCURVE",
"40 583 OFFCURVE",
"40 350 CURVE SMOOTH",
"40 117 OFFCURVE",
"159 -10 OFFCURVE",
"352 -10 CURVE SMOOTH"
);
},
{
closed = 1;
nodes = (
"159 14 OFFCURVE",
"71 154 OFFCURVE",
"71 350 CURVE SMOOTH",
"71 546 OFFCURVE",
"159 686 OFFCURVE",
"352 686 CURVE SMOOTH",
"545 686 OFFCURVE",
"633 546 OFFCURVE",
"633 350 CURVE SMOOTH",
"633 154 OFFCURVE",
"545 14 OFFCURVE",
"352 14 CURVE SMOOTH"
);
},
{
closed = 1;
nodes = (
"390 859 LINE SMOOTH",
"401 865 OFFCURVE",
"406 874 OFFCURVE",
"406 882 CURVE SMOOTH",
"406 891 OFFCURVE",
"399 896 OFFCURVE",
"392 896 CURVE SMOOTH",
"382 896 OFFCURVE",
"374 890 OFFCURVE",
"366 884 CURVE",
"259 797 LINE",
"266 787 LINE"
);
},
{
closed = 1;
nodes = (
"635 623 OFFCURVE",
"664 672 OFFCURVE",
"664 720 CURVE SMOOTH",
"664 755 OFFCURVE",
"646 763 OFFCURVE",
"632 763 CURVE SMOOTH",
"615 763 OFFCURVE",
"606 750 OFFCURVE",
"606 735 CURVE SMOOTH",
"606 707 OFFCURVE",
"632 708 OFFCURVE",
"632 680 CURVE SMOOTH",
"632 650 OFFCURVE",
"602 624 OFFCURVE",
"581 609 CURVE",
"581 592 LINE"
);
}
);
width = 704;
}
);
leftKerningGroup = O;
note = Ohornacute;
rightKerningGroup = O;
unicode = 1EDA;
},
{
glyphname = Ohorndotbelow;
lastChange = "2015-12-01 05:48:38 +0000";
layers = (
{
layerId = "DE721516-52ED-4FB4-A3DE-9EDE92CA8211";
name = Light;
paths = (
{
closed = 1;
nodes = (
"545 -10 OFFCURVE",
"664 117 OFFCURVE",
"664 350 CURVE SMOOTH",
"664 583 OFFCURVE",
"545 710 OFFCURVE",
"352 710 CURVE SMOOTH",
"159 710 OFFCURVE",
"40 583 OFFCURVE",
"40 350 CURVE SMOOTH",
"40 117 OFFCURVE",
"159 -10 OFFCURVE",
"352 -10 CURVE SMOOTH"
);
},
{
closed = 1;
nodes = (
"159 14 OFFCURVE",
"71 154 OFFCURVE",
"71 350 CURVE SMOOTH",
"71 546 OFFCURVE",
"159 686 OFFCURVE",
"352 686 CURVE SMOOTH",
"545 686 OFFCURVE",
"633 546 OFFCURVE",
"633 350 CURVE SMOOTH",
"633 154 OFFCURVE",
"545 14 OFFCURVE",
"352 14 CURVE SMOOTH"
);
},
{
closed = 1;
nodes = (
"635 623 OFFCURVE",
"664 672 OFFCURVE",
"664 720 CURVE SMOOTH",
"664 755 OFFCURVE",
"646 763 OFFCURVE",
"632 763 CURVE SMOOTH",
"615 763 OFFCURVE",
"606 750 OFFCURVE",
"606 735 CURVE SMOOTH",
"606 707 OFFCURVE",
"632 708 OFFCURVE",
"632 680 CURVE SMOOTH",
"632 650 OFFCURVE",
"602 624 OFFCURVE",
"581 609 CURVE",
"581 592 LINE"
);
},
{
closed = 1;
nodes = (
"323 -113 OFFCURVE",
"335 -124 OFFCURVE",
"352 -124 CURVE SMOOTH",
"369 -124 OFFCURVE",
"381 -113 OFFCURVE",
"381 -94 CURVE SMOOTH",
"381 -75 OFFCURVE",
"369 -64 OFFCURVE",
"352 -64 CURVE SMOOTH",
"335 -64 OFFCURVE",
"323 -75 OFFCURVE",
"323 -94 CURVE SMOOTH"
);
}
);
width = 704;
}
);
leftKerningGroup = O;
note = Ohorndotbelow;
rightKerningGroup = O;
unicode = 1EE2;
},
{
glyphname = Ohorngrave;
lastChange = "2015-12-01 05:23:24 +0000";
layers = (
{
layerId = "DE721516-52ED-4FB4-A3DE-9EDE92CA8211";
name = Light;
paths = (
{
closed = 1;
nodes = (
"545 -10 OFFCURVE",
"664 117 OFFCURVE",
"664 350 CURVE SMOOTH",
"664 583 OFFCURVE",
"545 710 OFFCURVE",
"352 710 CURVE SMOOTH",
"159 710 OFFCURVE",
"40 583 OFFCURVE",
"40 350 CURVE SMOOTH",
"40 117 OFFCURVE",
"159 -10 OFFCURVE",
"352 -10 CURVE SMOOTH"
);
},
{
closed = 1;
nodes = (
"159 14 OFFCURVE",
"71 154 OFFCURVE",
"71 350 CURVE SMOOTH",
"71 546 OFFCURVE",
"159 686 OFFCURVE",
"352 686 CURVE SMOOTH",
"545 686 OFFCURVE",
"633 546 OFFCURVE",
"633 350 CURVE SMOOTH",
"633 154 OFFCURVE",
"545 14 OFFCURVE",
"352 14 CURVE SMOOTH"
);
},
{
closed = 1;
nodes = (
"404 797 LINE",
"297 884 LINE",
"289 890 OFFCURVE",
"281 896 OFFCURVE",
"271 896 CURVE SMOOTH",
"264 896 OFFCURVE",
"257 891 OFFCURVE",
"257 882 CURVE SMOOTH",
"257 874 OFFCURVE",
"262 865 OFFCURVE",
"273 859 CURVE SMOOTH",
"397 787 LINE"
);
},
{
closed = 1;
nodes = (
"635 623 OFFCURVE",
"664 672 OFFCURVE",
"664 720 CURVE SMOOTH",
"664 755 OFFCURVE",
"646 763 OFFCURVE",
"632 763 CURVE SMOOTH",
"615 763 OFFCURVE",
"606 750 OFFCURVE",
"606 735 CURVE SMOOTH",
"606 707 OFFCURVE",
"632 708 OFFCURVE",
"632 680 CURVE SMOOTH",
"632 650 OFFCURVE",
"602 624 OFFCURVE",
"581 609 CURVE",
"581 592 LINE"
);
}
);
width = 704;
}
);
leftKerningGroup = O;
note = Ohorngrave;
rightKerningGroup = O;
unicode = 1EDC;
},
{
glyphname = Ohornhookabove;
lastChange = "2015-12-01 05:23:23 +0000";
layers = (
{
layerId = "DE721516-52ED-4FB4-A3DE-9EDE92CA8211";
name = Light;
paths = (
{
closed = 1;
nodes = (
"545 -10 OFFCURVE",
"664 117 OFFCURVE",
"664 350 CURVE SMOOTH",
"664 583 OFFCURVE",
"545 710 OFFCURVE",
"352 710 CURVE SMOOTH",
"159 710 OFFCURVE",
"40 583 OFFCURVE",
"40 350 CURVE SMOOTH",
"40 117 OFFCURVE",
"159 -10 OFFCURVE",
"352 -10 CURVE SMOOTH"
);
},
{
closed = 1;
nodes = (
"159 14 OFFCURVE",
"71 154 OFFCURVE",
"71 350 CURVE SMOOTH",
"71 546 OFFCURVE",
"159 686 OFFCURVE",
"352 686 CURVE SMOOTH",
"545 686 OFFCURVE",
"633 546 OFFCURVE",
"633 350 CURVE SMOOTH",
"633 154 OFFCURVE",
"545 14 OFFCURVE",
"352 14 CURVE SMOOTH"
);
},
{
closed = 1;
nodes = (
"381 794 LINE",
"364 799 OFFCURVE",
"354 802 OFFCURVE",
"354 821 CURVE SMOOTH",
"354 851 OFFCURVE",
"430 869 OFFCURVE",
"430 915 CURVE SMOOTH",
"430 951 OFFCURVE",
"399 966 OFFCURVE",
"360 966 CURVE SMOOTH",
"320 966 OFFCURVE",
"290 949 OFFCURVE",
"290 924 CURVE SMOOTH",
"290 910 OFFCURVE",
"295 905 OFFCURVE",
"304 905 CURVE SMOOTH",
"316 905 OFFCURVE",
"318 910 OFFCURVE",
"323 927 CURVE",
"328 942 OFFCURVE",
"346 947 OFFCURVE",
"362 947 CURVE SMOOTH",
"390 947 OFFCURVE",
"399 933 OFFCURVE",
"399 917 CURVE SMOOTH",
"399 876 OFFCURVE",
"324 863 OFFCURVE",
"324 821 CURVE SMOOTH",
"324 797 OFFCURVE",
"342 779 OFFCURVE",
"374 779 CURVE"
);
},
{
closed = 1;
nodes = (
"635 623 OFFCURVE",
"664 672 OFFCURVE",
"664 720 CURVE SMOOTH",
"664 755 OFFCURVE",
"646 763 OFFCURVE",
"632 763 CURVE SMOOTH",
"615 763 OFFCURVE",
"606 750 OFFCURVE",
"606 735 CURVE SMOOTH",
"606 707 OFFCURVE",
"632 708 OFFCURVE",
"632 680 CURVE SMOOTH",
"632 650 OFFCURVE",
"602 624 OFFCURVE",
"581 609 CURVE",
"581 592 LINE"
);
}
);
width = 704;
}
);
leftKerningGroup = O;
note = Ohornhookabove;
rightKerningGroup = O;
unicode = 1EDE;
},
{
glyphname = Ohorntilde;
lastChange = "2015-12-01 05:23:22 +0000";
layers = (
{
layerId = "DE721516-52ED-4FB4-A3DE-9EDE92CA8211";
name = Light;
paths = (
{
closed = 1;
nodes = (
"545 -10 OFFCURVE",
"664 117 OFFCURVE",
"664 350 CURVE SMOOTH",
"664 583 OFFCURVE",
"545 710 OFFCURVE",
"352 710 CURVE SMOOTH",
"159 710 OFFCURVE",
"40 583 OFFCURVE",
"40 350 CURVE SMOOTH",
"40 117 OFFCURVE",
"159 -10 OFFCURVE",
"352 -10 CURVE SMOOTH"
);
},
{
closed = 1;
nodes = (
"159 14 OFFCURVE",
"71 154 OFFCURVE",
"71 350 CURVE SMOOTH",
"71 546 OFFCURVE",
"159 686 OFFCURVE",
"352 686 CURVE SMOOTH",
"545 686 OFFCURVE",
"633 546 OFFCURVE",
"633 350 CURVE SMOOTH",
"633 154 OFFCURVE",
"545 14 OFFCURVE",
"352 14 CURVE SMOOTH"
);
},
{
closed = 1;
nodes = (
"217 824 OFFCURVE",
"236 848 OFFCURVE",
"265 848 CURVE SMOOTH",
"306 848 OFFCURVE",
"350 788 OFFCURVE",
"393 788 CURVE SMOOTH",
"434 788 OFFCURVE",
"460 815 OFFCURVE",
"469 871 CURVE",
"454 878 LINE",
"444 838 OFFCURVE",
"428 812 OFFCURVE",
"396 812 CURVE SMOOTH",
"357 812 OFFCURVE",
"310 871 OFFCURVE",
"267 871 CURVE SMOOTH",
"231 871 OFFCURVE",
"200 849 OFFCURVE",
"193 794 CURVE",
"207 786 LINE"
);
},
{
closed = 1;
nodes = (
"635 623 OFFCURVE",
"664 672 OFFCURVE",
"664 720 CURVE SMOOTH",
"664 755 OFFCURVE",
"646 763 OFFCURVE",
"632 763 CURVE SMOOTH",
"615 763 OFFCURVE",
"606 750 OFFCURVE",
"606 735 CURVE SMOOTH",
"606 707 OFFCURVE",
"632 708 OFFCURVE",
"632 680 CURVE SMOOTH",
"632 650 OFFCURVE",
"602 624 OFFCURVE",
"581 609 CURVE",
"581 592 LINE"
);
}
);
width = 704;
}
);
leftKerningGroup = O;
note = Ohorntilde;
rightKerningGroup = O;
unicode = 1EE0;
},
{
glyphname = Ohungarumlaut;
lastChange = "2015-12-01 05:23:22 +0000";
layers = (
{
layerId = "DE721516-52ED-4FB4-A3DE-9EDE92CA8211";
name = Light;
paths = (
{
closed = 1;
nodes = (
"545 -10 OFFCURVE",
"664 117 OFFCURVE",
"664 350 CURVE SMOOTH",
"664 583 OFFCURVE",
"545 710 OFFCURVE",
"352 710 CURVE SMOOTH",
"159 710 OFFCURVE",
"40 583 OFFCURVE",
"40 350 CURVE SMOOTH",
"40 117 OFFCURVE",
"159 -10 OFFCURVE",
"352 -10 CURVE SMOOTH"
);
},
{
closed = 1;
nodes = (
"159 14 OFFCURVE",
"71 154 OFFCURVE",
"71 350 CURVE SMOOTH",
"71 546 OFFCURVE",
"159 686 OFFCURVE",
"352 686 CURVE SMOOTH",
"545 686 OFFCURVE",
"633 546 OFFCURVE",
"633 350 CURVE SMOOTH",
"633 154 OFFCURVE",
"545 14 OFFCURVE",
"352 14 CURVE SMOOTH"
);
},
{
closed = 1;
nodes = (
"381 861 LINE SMOOTH",
"392 867 OFFCURVE",
"397 876 OFFCURVE",
"397 884 CURVE SMOOTH",
"397 893 OFFCURVE",
"390 898 OFFCURVE",
"383 898 CURVE SMOOTH",
"373 898 OFFCURVE",
"365 892 OFFCURVE",
"357 886 CURVE",
"250 799 LINE",
"257 789 LINE"
);
},
{
closed = 1;
nodes = (
"500 861 LINE SMOOTH",
"511 867 OFFCURVE",
"516 876 OFFCURVE",
"516 884 CURVE SMOOTH",
"516 893 OFFCURVE",
"509 898 OFFCURVE",
"502 898 CURVE SMOOTH",
"492 898 OFFCURVE",
"484 892 OFFCURVE",
"476 886 CURVE",
"369 799 LINE",
"376 789 LINE"
);
}
);
width = 704;
}
);
leftKerningGroup = O;
note = Ohungarumlaut;
rightKerningGroup = O;
unicode = 0150;
},
{
glyphname = Omacron;
lastChange = "2015-12-01 05:23:22 +0000";
layers = (
{
layerId = "DE721516-52ED-4FB4-A3DE-9EDE92CA8211";
name = Light;
paths = (
{
closed = 1;
nodes = (
"545 -10 OFFCURVE",
"664 117 OFFCURVE",
"664 350 CURVE SMOOTH",
"664 583 OFFCURVE",
"545 710 OFFCURVE",
"352 710 CURVE SMOOTH",
"159 710 OFFCURVE",
"40 583 OFFCURVE",
"40 350 CURVE SMOOTH",
"40 117 OFFCURVE",
"159 -10 OFFCURVE",
"352 -10 CURVE SMOOTH"
);
},
{
closed = 1;
nodes = (
"159 14 OFFCURVE",
"71 154 OFFCURVE",
"71 350 CURVE SMOOTH",
"71 546 OFFCURVE",
"159 686 OFFCURVE",
"352 686 CURVE SMOOTH",
"545 686 OFFCURVE",
"633 546 OFFCURVE",
"633 350 CURVE SMOOTH",
"633 154 OFFCURVE",
"545 14 OFFCURVE",
"352 14 CURVE SMOOTH"
);
},
{
closed = 1;
nodes = (
"488 806 LINE",
"488 828 LINE",
"214 828 LINE",
"214 806 LINE"
);
}
);
width = 704;
}
);
leftKerningGroup = O;
note = Omacron;
rightKerningGroup = O;
unicode = 014C;
},
{
glyphname = Oslash;
lastChange = "2015-12-01 05:23:22 +0000";
layers = (
{
layerId = "DE721516-52ED-4FB4-A3DE-9EDE92CA8211";
name = Light;
paths = (
{
closed = 1;
nodes = (
"545 -10 OFFCURVE",
"664 117 OFFCURVE",
"664 350 CURVE SMOOTH",
"664 583 OFFCURVE",
"545 710 OFFCURVE",
"352 710 CURVE SMOOTH",
"159 710 OFFCURVE",
"40 583 OFFCURVE",
"40 350 CURVE SMOOTH",
"40 117 OFFCURVE",
"159 -10 OFFCURVE",
"352 -10 CURVE SMOOTH"
);
},
{
closed = 1;
nodes = (
"159 14 OFFCURVE",
"71 154 OFFCURVE",
"71 350 CURVE SMOOTH",
"71 546 OFFCURVE",
"159 686 OFFCURVE",
"352 686 CURVE SMOOTH",
"545 686 OFFCURVE",
"633 546 OFFCURVE",
"633 350 CURVE SMOOTH",
"633 154 OFFCURVE",
"545 14 OFFCURVE",
"352 14 CURVE SMOOTH"
);
},
{
closed = 1;
nodes = (
"633 709 LINE",
"605 722 LINE",
"71 4 LINE",
"98 -10 LINE"
);
}
);
width = 704;
}
);
leftKerningGroup = O;
note = Oslash;
rightKerningGroup = O;
unicode = 00D8;
},
{
glyphname = Oslashacute;
lastChange = "2015-12-01 05:23:24 +0000";
layers = (
{
layerId = "DE721516-52ED-4FB4-A3DE-9EDE92CA8211";
name = Light;
paths = (
{
closed = 1;
nodes = (
"545 -10 OFFCURVE",
"664 117 OFFCURVE",
"664 350 CURVE SMOOTH",
"664 583 OFFCURVE",
"545 710 OFFCURVE",
"352 710 CURVE SMOOTH",
"159 710 OFFCURVE",
"40 583 OFFCURVE",
"40 350 CURVE SMOOTH",
"40 117 OFFCURVE",
"159 -10 OFFCURVE",
"352 -10 CURVE SMOOTH"
);
},
{
closed = 1;
nodes = (
"159 14 OFFCURVE",
"71 154 OFFCURVE",
"71 350 CURVE SMOOTH",
"71 546 OFFCURVE",
"159 686 OFFCURVE",
"352 686 CURVE SMOOTH",
"545 686 OFFCURVE",
"633 546 OFFCURVE",
"633 350 CURVE SMOOTH",
"633 154 OFFCURVE",
"545 14 OFFCURVE",
"352 14 CURVE SMOOTH"
);
},
{
closed = 1;
nodes = (
"633 709 LINE",
"605 722 LINE",
"71 4 LINE",
"98 -10 LINE"
);
},
{
closed = 1;
nodes = (
"419 860 LINE SMOOTH",
"430 866 OFFCURVE",
"435 875 OFFCURVE",
"435 883 CURVE SMOOTH",
"435 892 OFFCURVE",
"428 897 OFFCURVE",
"421 897 CURVE SMOOTH",
"411 897 OFFCURVE",
"403 891 OFFCURVE",
"395 885 CURVE",
"288 798 LINE",
"295 788 LINE"
);
}
);
width = 704;
}
);
leftKerningGroup = O;
note = Oslashacute;
rightKerningGroup = O;
unicode = 01FE;
},
{
glyphname = Otilde;
lastChange = "2015-12-01 05:23:23 +0000";
layers = (
{
layerId = "DE721516-52ED-4FB4-A3DE-9EDE92CA8211";
name = Light;
paths = (
{
closed = 1;
nodes = (
"545 -10 OFFCURVE",
"664 117 OFFCURVE",
"664 350 CURVE SMOOTH",
"664 583 OFFCURVE",
"545 710 OFFCURVE",
"352 710 CURVE SMOOTH",
"159 710 OFFCURVE",
"40 583 OFFCURVE",
"40 350 CURVE SMOOTH",
"40 117 OFFCURVE",
"159 -10 OFFCURVE",
"352 -10 CURVE SMOOTH"
);
},
{
closed = 1;
nodes = (
"159 14 OFFCURVE",
"71 154 OFFCURVE",
"71 350 CURVE SMOOTH",
"71 546 OFFCURVE",
"159 686 OFFCURVE",
"352 686 CURVE SMOOTH",
"545 686 OFFCURVE",
"633 546 OFFCURVE",
"633 350 CURVE SMOOTH",
"633 154 OFFCURVE",
"545 14 OFFCURVE",
"352 14 CURVE SMOOTH"
);
},
{
closed = 1;
nodes = (
"238 824 OFFCURVE",
"257 848 OFFCURVE",
"286 848 CURVE SMOOTH",
"327 848 OFFCURVE",
"371 788 OFFCURVE",
"414 788 CURVE SMOOTH",
"455 788 OFFCURVE",
"481 815 OFFCURVE",
"490 871 CURVE",
"475 878 LINE",
"465 838 OFFCURVE",
"449 812 OFFCURVE",
"417 812 CURVE SMOOTH",
"378 812 OFFCURVE",
"331 871 OFFCURVE",
"288 871 CURVE SMOOTH",
"252 871 OFFCURVE",
"221 849 OFFCURVE",
"214 794 CURVE",
"228 786 LINE"
);
}
);
width = 704;
}
);
leftKerningGroup = O;
note = Otilde;
rightKerningGroup = O;
unicode = 00D5;
},
{
glyphname = OE;
lastChange = "2015-12-01 05:23:24 +0000";
layers = (
{
layerId = "DE721516-52ED-4FB4-A3DE-9EDE92CA8211";
name = Light;
paths = (
{
closed = 1;
nodes = (
"448 -10 OFFCURVE",
"523 18 OFFCURVE",
"578 72 CURVE",
"569 104 LINE",
"522 47 OFFCURVE",
"451 14 OFFCURVE",
"357 14 CURVE SMOOTH",
"164 14 OFFCURVE",
"71 154 OFFCURVE",
"71 350 CURVE SMOOTH",
"71 546 OFFCURVE",
"164 686 OFFCURVE",
"357 686 CURVE SMOOTH",
"450 686 OFFCURVE",
"521 653 OFFCURVE",
"568 597 CURVE",
"573 633 LINE",
"519 684 OFFCURVE",
"445 710 OFFCURVE",
"357 710 CURVE SMOOTH",
"164 710 OFFCURVE",
"40 583 OFFCURVE",
"40 350 CURVE SMOOTH",
"40 117 OFFCURVE",
"164 -10 OFFCURVE",
"357 -10 CURVE SMOOTH"
);
},
{
closed = 1;
nodes = (
"836 258 LINE",
"836 488 LINE",
"822 488 LINE",
"818 434 OFFCURVE",
"815 385 OFFCURVE",
"771 385 CURVE SMOOTH",
"576 385 LINE",
"576 361 LINE",
"771 361 LINE SMOOTH",
"815 361 OFFCURVE",
"818 312 OFFCURVE",
"822 258 CURVE"
);
},
{
closed = 1;
nodes = (
"922 0 LINE",
"936 166 LINE",
"923 166 LINE",
"920 123 OFFCURVE",
"903 24 OFFCURVE",
"845 24 CURVE SMOOTH",
"588 24 LINE",
"588 676 LINE",
"840 676 LINE SMOOTH",
"900 676 OFFCURVE",
"907 589 OFFCURVE",
"909 546 CURVE",
"922 546 LINE",
"922 700 LINE",
"556 700 LINE",
"556 0 LINE"
);
}
);
width = 976;
}
);
note = OE;
unicode = 0152;
},
{
glyphname = P;
lastChange = "2015-12-01 05:23:24 +0000";
layers = (
{
layerId = "DE721516-52ED-4FB4-A3DE-9EDE92CA8211";
name = Light;
paths = (
{
closed = 1;
nodes = (
"238 0 LINE",
"238 14 LINE",
"211 14 LINE SMOOTH",
"172 14 OFFCURVE",
"150 23 OFFCURVE",
"150 47 CURVE SMOOTH",
"150 281 LINE",
"331 281 LINE SMOOTH",
"474 281 OFFCURVE",
"529 369 OFFCURVE",
"529 491 CURVE SMOOTH",
"529 614 OFFCURVE",
"474 700 OFFCURVE",
"331 700 CURVE SMOOTH",
"30 700 LINE",
"30 686 LINE",
"57 686 LINE SMOOTH",
"96 686 OFFCURVE",
"118 677 OFFCURVE",
"118 653 CURVE SMOOTH",
"118 47 LINE SMOOTH",
"118 23 OFFCURVE",
"96 14 OFFCURVE",
"57 14 CURVE SMOOTH",
"30 14 LINE",
"30 0 LINE"
);
},
{
closed = 1;
nodes = (
"150 676 LINE",
"332 676 LINE SMOOTH",
"452 676 OFFCURVE",
"498 599 OFFCURVE",
"498 491 CURVE SMOOTH",
"498 384 OFFCURVE",
"452 305 OFFCURVE",
"332 305 CURVE SMOOTH",
"150 305 LINE"
);
}
);
width = 548;
}
);
note = P;
unicode = 0050;
},
{
glyphname = Thorn;
lastChange = "2015-12-01 05:23:23 +0000";
layers = (
{
layerId = "DE721516-52ED-4FB4-A3DE-9EDE92CA8211";
name = Light;
paths = (
{
closed = 1;
nodes = (
"238 0 LINE",
"238 14 LINE",
"211 14 LINE SMOOTH",
"172 14 OFFCURVE",
"150 23 OFFCURVE",
"150 47 CURVE SMOOTH",
"150 165 LINE",
"331 165 LINE SMOOTH",
"474 165 OFFCURVE",
"529 253 OFFCURVE",
"529 375 CURVE SMOOTH",
"529 498 OFFCURVE",
"474 584 OFFCURVE",
"331 584 CURVE SMOOTH",
"150 584 LINE",
"150 700 LINE",
"30 700 LINE",
"30 686 LINE",
"57 686 LINE SMOOTH",
"96 686 OFFCURVE",
"118 677 OFFCURVE",
"118 653 CURVE SMOOTH",
"118 47 LINE SMOOTH",
"118 23 OFFCURVE",
"96 14 OFFCURVE",
"57 14 CURVE SMOOTH",
"30 14 LINE",
"30 0 LINE"
);
},
{
closed = 1;
nodes = (
"150 560 LINE",
"332 560 LINE SMOOTH",
"452 560 OFFCURVE",
"498 483 OFFCURVE",
"498 375 CURVE SMOOTH",
"498 268 OFFCURVE",
"452 189 OFFCURVE",
"332 189 CURVE SMOOTH",
"150 189 LINE"
);
}
);
width = 548;
}
);
note = Thorn;
unicode = 00DE;
},
{
glyphname = Q;
lastChange = "2015-12-01 05:48:53 +0000";
layers = (
{
layerId = "DE721516-52ED-4FB4-A3DE-9EDE92CA8211";
name = Light;
paths = (
{
closed = 1;
nodes = (
"545 -10 OFFCURVE",
"664 117 OFFCURVE",
"664 350 CURVE SMOOTH",
"664 583 OFFCURVE",
"545 710 OFFCURVE",
"352 710 CURVE SMOOTH",
"159 710 OFFCURVE",
"40 583 OFFCURVE",
"40 350 CURVE SMOOTH",
"40 117 OFFCURVE",
"159 -10 OFFCURVE",
"352 -10 CURVE SMOOTH"
);
},
{
closed = 1;
nodes = (
"159 14 OFFCURVE",
"71 154 OFFCURVE",
"71 350 CURVE SMOOTH",
"71 546 OFFCURVE",
"159 686 OFFCURVE",
"352 686 CURVE SMOOTH",
"545 686 OFFCURVE",
"633 546 OFFCURVE",
"633 350 CURVE SMOOTH",
"633 154 OFFCURVE",
"545 14 OFFCURVE",
"352 14 CURVE SMOOTH"
);
},
{
closed = 1;
nodes = (
"627 -138 OFFCURVE",
"665 -88 OFFCURVE",
"678 -39 CURVE",
"680 -33 OFFCURVE",
"681 -26 OFFCURVE",
"682 -20 CURVE",
"663 -20 LINE",
"649 -71 OFFCURVE",
"605 -117 OFFCURVE",
"559 -117 CURVE SMOOTH",
"473 -117 OFFCURVE",
"388 -32 OFFCURVE",
"316 -32 CURVE SMOOTH",
"304 -32 LINE",
"326 -17 OFFCURVE",
"340 -9 OFFCURVE",
"360 0 CURVE",
"360 4 LINE",
"325 4 LINE",
"266 -19 OFFCURVE",
"226 -50 OFFCURVE",
"190 -81 CURVE",
"198 -95 LINE",
"224 -74 OFFCURVE",
"266 -48 OFFCURVE",
"294 -48 CURVE SMOOTH",
"370 -48 OFFCURVE",
"444 -138 OFFCURVE",
"554 -138 CURVE SMOOTH"
);
}
);
width = 704;
}
);
leftKerningGroup = O;
note = Q;
rightKerningGroup = O;
unicode = 0051;
},
{
glyphname = R;
lastChange = "2015-12-01 05:48:57 +0000";
layers = (
{
layerId = "DE721516-52ED-4FB4-A3DE-9EDE92CA8211";
name = Light;
paths = (
{
closed = 1;
nodes = (
"238 0 LINE",
"238 14 LINE",
"211 14 LINE SMOOTH",
"172 14 OFFCURVE",
"150 23 OFFCURVE",
"150 47 CURVE SMOOTH",
"150 295 LINE",
"324 295 LINE SMOOTH",
"467 295 OFFCURVE",
"525 376 OFFCURVE",
"525 498 CURVE SMOOTH",
"525 621 OFFCURVE",
"467 700 OFFCURVE",
"324 700 CURVE SMOOTH",
"30 700 LINE",
"30 686 LINE",
"57 686 LINE SMOOTH",
"96 686 OFFCURVE",
"118 677 OFFCURVE",
"118 653 CURVE SMOOTH",
"118 47 LINE SMOOTH",
"118 23 OFFCURVE",
"96 14 OFFCURVE",
"57 14 CURVE SMOOTH",
"30 14 LINE",
"30 0 LINE"
);
},
{
closed = 1;
nodes = (
"150 676 LINE",
"325 676 LINE SMOOTH",
"445 676 OFFCURVE",
"494 606 OFFCURVE",
"494 498 CURVE SMOOTH",
"494 391 OFFCURVE",
"445 319 OFFCURVE",
"325 319 CURVE SMOOTH",
"150 319 LINE"
);
},
{
closed = 1;
nodes = (
"574 0 LINE",
"574 14 LINE",
"493 14 OFFCURVE",
"472 95 OFFCURVE",
"451 173 CURVE SMOOTH",
"436 230 OFFCURVE",
"421 286 OFFCURVE",
"381 306 CURVE",
"357 306 LINE",
"357 302 LINE",
"400 265 OFFCURVE",
"416 177 OFFCURVE",
"436 105 CURVE SMOOTH",
"452 47 OFFCURVE",
"484 0 OFFCURVE",
"533 0 CURVE SMOOTH"
);
}
);
width = 614;
}
);
note = R;
rightKerningGroup = R;
unicode = 0052;
},
{
glyphname = Racute;
lastChange = "2015-12-01 05:49:01 +0000";
layers = (
{
layerId = "DE721516-52ED-4FB4-A3DE-9EDE92CA8211";
name = Light;
paths = (
{
closed = 1;
nodes = (
"238 0 LINE",
"238 14 LINE",
"211 14 LINE SMOOTH",
"172 14 OFFCURVE",
"150 23 OFFCURVE",
"150 47 CURVE SMOOTH",
"150 295 LINE",
"324 295 LINE SMOOTH",
"467 295 OFFCURVE",
"525 376 OFFCURVE",
"525 498 CURVE SMOOTH",
"525 621 OFFCURVE",
"467 700 OFFCURVE",
"324 700 CURVE SMOOTH",
"30 700 LINE",
"30 686 LINE",
"57 686 LINE SMOOTH",
"96 686 OFFCURVE",
"118 677 OFFCURVE",
"118 653 CURVE SMOOTH",
"118 47 LINE SMOOTH",
"118 23 OFFCURVE",
"96 14 OFFCURVE",
"57 14 CURVE SMOOTH",
"30 14 LINE",
"30 0 LINE"
);
},
{
closed = 1;
nodes = (
"150 676 LINE",
"325 676 LINE SMOOTH",
"445 676 OFFCURVE",
"494 606 OFFCURVE",
"494 498 CURVE SMOOTH",
"494 391 OFFCURVE",
"445 319 OFFCURVE",
"325 319 CURVE SMOOTH",
"150 319 LINE"
);
},
{
closed = 1;
nodes = (
"574 0 LINE",
"574 14 LINE",
"493 14 OFFCURVE",
"472 95 OFFCURVE",
"451 173 CURVE SMOOTH",
"436 230 OFFCURVE",
"421 286 OFFCURVE",
"381 306 CURVE",
"357 306 LINE",
"357 302 LINE",
"400 265 OFFCURVE",
"416 177 OFFCURVE",
"436 105 CURVE SMOOTH",
"452 47 OFFCURVE",
"484 0 OFFCURVE",
"533 0 CURVE SMOOTH"
);
},
{
closed = 1;
nodes = (
"370 860 LINE SMOOTH",
"381 866 OFFCURVE",
"386 875 OFFCURVE",
"386 883 CURVE SMOOTH",
"386 892 OFFCURVE",
"379 897 OFFCURVE",
"372 897 CURVE SMOOTH",
"362 897 OFFCURVE",
"354 891 OFFCURVE",
"346 885 CURVE",
"239 798 LINE",
"246 788 LINE"
);
}
);
width = 614;
}
);
note = Racute;
rightKerningGroup = R;
unicode = 0154;
},
{
glyphname = Rcaron;
lastChange = "2015-12-01 05:49:05 +0000";
layers = (
{
layerId = "DE721516-52ED-4FB4-A3DE-9EDE92CA8211";
name = Light;
paths = (
{
closed = 1;
nodes = (
"238 0 LINE",
"238 14 LINE",
"211 14 LINE SMOOTH",
"172 14 OFFCURVE",
"150 23 OFFCURVE",
"150 47 CURVE SMOOTH",
"150 295 LINE",
"324 295 LINE SMOOTH",
"467 295 OFFCURVE",
"525 376 OFFCURVE",
"525 498 CURVE SMOOTH",
"525 621 OFFCURVE",
"467 700 OFFCURVE",
"324 700 CURVE SMOOTH",
"30 700 LINE",
"30 686 LINE",
"57 686 LINE SMOOTH",
"96 686 OFFCURVE",
"118 677 OFFCURVE",
"118 653 CURVE SMOOTH",
"118 47 LINE SMOOTH",
"118 23 OFFCURVE",
"96 14 OFFCURVE",
"57 14 CURVE SMOOTH",
"30 14 LINE",
"30 0 LINE"
);
},
{
closed = 1;
nodes = (
"150 676 LINE",
"325 676 LINE SMOOTH",
"445 676 OFFCURVE",
"494 606 OFFCURVE",
"494 498 CURVE SMOOTH",
"494 391 OFFCURVE",
"445 319 OFFCURVE",
"325 319 CURVE SMOOTH",
"150 319 LINE"
);
},
{
closed = 1;
nodes = (
"574 0 LINE",
"574 14 LINE",
"493 14 OFFCURVE",
"472 95 OFFCURVE",
"451 173 CURVE SMOOTH",
"436 230 OFFCURVE",
"421 286 OFFCURVE",
"381 306 CURVE",
"357 306 LINE",
"357 302 LINE",
"400 265 OFFCURVE",
"416 177 OFFCURVE",
"436 105 CURVE SMOOTH",
"452 47 OFFCURVE",
"484 0 OFFCURVE",
"533 0 CURVE SMOOTH"
);
},
{
closed = 1;
nodes = (
"324 787 LINE",
"425 883 LINE",
"411 899 LINE",
"323 824 LINE",
"319 821 OFFCURVE",
"315 819 OFFCURVE",
"312 819 CURVE SMOOTH",
"309 819 OFFCURVE",
"305 821 OFFCURVE",
"301 824 CURVE",
"213 899 LINE",
"199 883 LINE",
"300 787 LINE"
);
}
);
width = 614;
}
);
note = Rcaron;
rightKerningGroup = R;
unicode = 0158;
},
{
glyphname = Rcommaaccent;
lastChange = "2015-12-01 05:49:08 +0000";
layers = (
{
layerId = "DE721516-52ED-4FB4-A3DE-9EDE92CA8211";
name = Light;
paths = (
{
closed = 1;
nodes = (
"238 0 LINE",
"238 14 LINE",
"211 14 LINE SMOOTH",
"172 14 OFFCURVE",
"150 23 OFFCURVE",
"150 47 CURVE SMOOTH",
"150 295 LINE",
"324 295 LINE SMOOTH",
"467 295 OFFCURVE",
"525 376 OFFCURVE",
"525 498 CURVE SMOOTH",
"525 621 OFFCURVE",
"467 700 OFFCURVE",
"324 700 CURVE SMOOTH",
"30 700 LINE",
"30 686 LINE",
"57 686 LINE SMOOTH",
"96 686 OFFCURVE",
"118 677 OFFCURVE",
"118 653 CURVE SMOOTH",
"118 47 LINE SMOOTH",
"118 23 OFFCURVE",
"96 14 OFFCURVE",
"57 14 CURVE SMOOTH",
"30 14 LINE",
"30 0 LINE"
);
},
{
closed = 1;
nodes = (
"150 676 LINE",
"325 676 LINE SMOOTH",
"445 676 OFFCURVE",
"494 606 OFFCURVE",
"494 498 CURVE SMOOTH",
"494 391 OFFCURVE",
"445 319 OFFCURVE",
"325 319 CURVE SMOOTH",
"150 319 LINE"
);
},
{
closed = 1;
nodes = (
"326 -194 OFFCURVE",
"346 -150 OFFCURVE",
"346 -102 CURVE SMOOTH",
"346 -67 OFFCURVE",
"331 -61 OFFCURVE",
"317 -61 CURVE SMOOTH",
"300 -61 OFFCURVE",
"291 -72 OFFCURVE",
"291 -90 CURVE SMOOTH",
"291 -116 OFFCURVE",
"318 -116 OFFCURVE",
"318 -144 CURVE SMOOTH",
"318 -174 OFFCURVE",
"292 -202 OFFCURVE",
"271 -222 CURVE",
"279 -232 LINE"
);
},
{
closed = 1;
nodes = (
"574 0 LINE",
"574 14 LINE",
"493 14 OFFCURVE",
"472 95 OFFCURVE",
"451 173 CURVE SMOOTH",
"436 230 OFFCURVE",
"421 286 OFFCURVE",
"381 306 CURVE",
"357 306 LINE",
"357 302 LINE",
"400 265 OFFCURVE",
"416 177 OFFCURVE",
"436 105 CURVE SMOOTH",
"452 47 OFFCURVE",
"484 0 OFFCURVE",
"533 0 CURVE SMOOTH"
);
}
);
width = 614;
}
);
note = Rcommaaccent;
rightKerningGroup = R;
unicode = 0156;
},
{
glyphname = Rdotbelow;
lastChange = "2015-12-01 05:49:12 +0000";
layers = (
{
layerId = "DE721516-52ED-4FB4-A3DE-9EDE92CA8211";
name = Light;
paths = (
{
closed = 1;
nodes = (
"238 0 LINE",
"238 14 LINE",
"211 14 LINE SMOOTH",
"172 14 OFFCURVE",
"150 23 OFFCURVE",
"150 47 CURVE SMOOTH",
"150 295 LINE",
"324 295 LINE SMOOTH",
"467 295 OFFCURVE",
"525 376 OFFCURVE",
"525 498 CURVE SMOOTH",
"525 621 OFFCURVE",
"467 700 OFFCURVE",
"324 700 CURVE SMOOTH",
"30 700 LINE",
"30 686 LINE",
"57 686 LINE SMOOTH",
"96 686 OFFCURVE",
"118 677 OFFCURVE",
"118 653 CURVE SMOOTH",
"118 47 LINE SMOOTH",
"118 23 OFFCURVE",
"96 14 OFFCURVE",
"57 14 CURVE SMOOTH",
"30 14 LINE",
"30 0 LINE"
);
},
{
closed = 1;
nodes = (
"150 676 LINE",
"325 676 LINE SMOOTH",
"445 676 OFFCURVE",
"494 606 OFFCURVE",
"494 498 CURVE SMOOTH",
"494 391 OFFCURVE",
"445 319 OFFCURVE",
"325 319 CURVE SMOOTH",
"150 319 LINE"
);
},
{
closed = 1;
nodes = (
"348 -124 OFFCURVE",
"360 -113 OFFCURVE",
"360 -94 CURVE SMOOTH",
"360 -75 OFFCURVE",
"348 -64 OFFCURVE",
"331 -64 CURVE SMOOTH",
"314 -64 OFFCURVE",
"302 -75 OFFCURVE",
"302 -94 CURVE SMOOTH",
"302 -113 OFFCURVE",
"314 -124 OFFCURVE",
"331 -124 CURVE SMOOTH"
);
},
{
closed = 1;
nodes = (
"574 0 LINE",
"574 14 LINE",
"493 14 OFFCURVE",
"472 95 OFFCURVE",
"451 173 CURVE SMOOTH",
"436 230 OFFCURVE",
"421 286 OFFCURVE",
"381 306 CURVE",
"357 306 LINE",
"357 302 LINE",
"400 265 OFFCURVE",
"416 177 OFFCURVE",
"436 105 CURVE SMOOTH",
"452 47 OFFCURVE",
"484 0 OFFCURVE",
"533 0 CURVE SMOOTH"
);
}
);
width = 614;
}
);
note = Rdotbelow;
rightKerningGroup = R;
unicode = 1E5A;
},
{
glyphname = Rdotbelowmacron;
lastChange = "2015-12-01 05:49:20 +0000";
layers = (
{
layerId = "DE721516-52ED-4FB4-A3DE-9EDE92CA8211";
name = Light;
paths = (
{
closed = 1;
nodes = (
"238 0 LINE",
"238 14 LINE",
"211 14 LINE SMOOTH",
"172 14 OFFCURVE",
"150 23 OFFCURVE",
"150 47 CURVE SMOOTH",
"150 295 LINE",
"324 295 LINE SMOOTH",
"467 295 OFFCURVE",
"525 376 OFFCURVE",
"525 498 CURVE SMOOTH",
"525 621 OFFCURVE",
"467 700 OFFCURVE",
"324 700 CURVE SMOOTH",
"30 700 LINE",
"30 686 LINE",
"57 686 LINE SMOOTH",
"96 686 OFFCURVE",
"118 677 OFFCURVE",
"118 653 CURVE SMOOTH",
"118 47 LINE SMOOTH",
"118 23 OFFCURVE",
"96 14 OFFCURVE",
"57 14 CURVE SMOOTH",
"30 14 LINE",
"30 0 LINE"
);
},
{
closed = 1;
nodes = (
"150 676 LINE",
"325 676 LINE SMOOTH",
"445 676 OFFCURVE",
"494 606 OFFCURVE",
"494 498 CURVE SMOOTH",
"494 391 OFFCURVE",
"445 319 OFFCURVE",
"325 319 CURVE SMOOTH",
"150 319 LINE"
);
},
{
closed = 1;
nodes = (
"348 -124 OFFCURVE",
"360 -113 OFFCURVE",
"360 -94 CURVE SMOOTH",
"360 -75 OFFCURVE",
"348 -64 OFFCURVE",
"331 -64 CURVE SMOOTH",
"314 -64 OFFCURVE",
"302 -75 OFFCURVE",
"302 -94 CURVE SMOOTH",
"302 -113 OFFCURVE",
"314 -124 OFFCURVE",
"331 -124 CURVE SMOOTH"
);
},
{
closed = 1;
nodes = (
"574 0 LINE",
"574 14 LINE",
"493 14 OFFCURVE",
"472 95 OFFCURVE",
"451 173 CURVE SMOOTH",
"436 230 OFFCURVE",
"421 286 OFFCURVE",
"381 306 CURVE",
"357 306 LINE",
"357 302 LINE",
"400 265 OFFCURVE",
"416 177 OFFCURVE",
"436 105 CURVE SMOOTH",
"452 47 OFFCURVE",
"484 0 OFFCURVE",
"533 0 CURVE SMOOTH"
);
},
{
closed = 1;
nodes = (
"419 785 LINE",
"419 807 LINE",
"145 807 LINE",
"145 785 LINE"
);
}
);
width = 614;
}
);
note = Rdotbelowmacron;
rightKerningGroup = R;
unicode = 1E5C;
},
{
glyphname = Rlinebelow;
lastChange = "2015-12-01 05:49:24 +0000";
layers = (
{
layerId = "DE721516-52ED-4FB4-A3DE-9EDE92CA8211";
name = Light;
paths = (
{
closed = 1;
nodes = (
"238 0 LINE",
"238 14 LINE",
"211 14 LINE SMOOTH",
"172 14 OFFCURVE",
"150 23 OFFCURVE",
"150 47 CURVE SMOOTH",
"150 295 LINE",
"324 295 LINE SMOOTH",
"467 295 OFFCURVE",
"525 376 OFFCURVE",
"525 498 CURVE SMOOTH",
"525 621 OFFCURVE",
"467 700 OFFCURVE",
"324 700 CURVE SMOOTH",
"30 700 LINE",
"30 686 LINE",
"57 686 LINE SMOOTH",
"96 686 OFFCURVE",
"118 677 OFFCURVE",
"118 653 CURVE SMOOTH",
"118 47 LINE SMOOTH",
"118 23 OFFCURVE",
"96 14 OFFCURVE",
"57 14 CURVE SMOOTH",
"30 14 LINE",
"30 0 LINE"
);
},
{
closed = 1;
nodes = (
"150 676 LINE",
"325 676 LINE SMOOTH",
"445 676 OFFCURVE",
"494 606 OFFCURVE",
"494 498 CURVE SMOOTH",
"494 391 OFFCURVE",
"445 319 OFFCURVE",
"325 319 CURVE SMOOTH",
"150 319 LINE"
);
},
{
closed = 1;
nodes = (
"436 -98 LINE",
"436 -76 LINE",
"162 -76 LINE",
"162 -98 LINE"
);
},
{
closed = 1;
nodes = (
"574 0 LINE",
"574 14 LINE",
"493 14 OFFCURVE",
"472 95 OFFCURVE",
"451 173 CURVE SMOOTH",
"436 230 OFFCURVE",
"421 286 OFFCURVE",
"381 306 CURVE",
"357 306 LINE",
"357 302 LINE",
"400 265 OFFCURVE",
"416 177 OFFCURVE",
"436 105 CURVE SMOOTH",
"452 47 OFFCURVE",
"484 0 OFFCURVE",
"533 0 CURVE SMOOTH"
);
}
);
width = 614;
}
);
note = Rlinebelow;
rightKerningGroup = R;
unicode = 1E5E;
},
{
glyphname = S;
lastChange = "2015-12-01 05:23:18 +0000";
layers = (
{
layerId = "DE721516-52ED-4FB4-A3DE-9EDE92CA8211";
name = Light;
paths = (
{
closed = 1;
nodes = (
"396 -10 OFFCURVE",
"485 65 OFFCURVE",
"485 175 CURVE SMOOTH",
"485 393 OFFCURVE",
"89 375 OFFCURVE",
"89 558 CURVE SMOOTH",
"89 634 OFFCURVE",
"145 686 OFFCURVE",
"265 686 CURVE SMOOTH",
"368 686 OFFCURVE",
"435 619 OFFCURVE",
"443 533 CURVE",
"456 533 LINE",
"456 707 LINE",
"436 707 LINE",
"436 670 LINE SMOOTH",
"436 656 OFFCURVE",
"432 654 OFFCURVE",
"427 654 CURVE SMOOTH",
"419 654 OFFCURVE",
"359 710 OFFCURVE",
"261 710 CURVE SMOOTH",
"146 710 OFFCURVE",
"58 660 OFFCURVE",
"58 558 CURVE SMOOTH",
"58 358 OFFCURVE",
"453 369 OFFCURVE",
"453 173 CURVE SMOOTH",
"453 78 OFFCURVE",
"380 14 OFFCURVE",
"263 14 CURVE SMOOTH",
"160 14 OFFCURVE",
"62 92 OFFCURVE",
"53 177 CURVE",
"40 177 LINE",
"40 3 LINE",
"60 3 LINE",
"60 42 LINE SMOOTH",
"60 56 OFFCURVE",
"64 67 OFFCURVE",
"69 67 CURVE SMOOTH",
"76 67 OFFCURVE",
"164 -10 OFFCURVE",
"276 -10 CURVE SMOOTH"
);
}
);
width = 525;
}
);
leftKerningGroup = S;
note = S;
rightKerningGroup = S;
unicode = 0053;
},
{
glyphname = Sacute;
lastChange = "2015-12-01 05:23:21 +0000";
layers = (
{
layerId = "DE721516-52ED-4FB4-A3DE-9EDE92CA8211";
name = Light;
paths = (
{
closed = 1;
nodes = (
"396 -10 OFFCURVE",
"485 65 OFFCURVE",
"485 175 CURVE SMOOTH",
"485 393 OFFCURVE",
"89 375 OFFCURVE",
"89 558 CURVE SMOOTH",
"89 634 OFFCURVE",
"145 686 OFFCURVE",
"265 686 CURVE SMOOTH",
"368 686 OFFCURVE",
"435 619 OFFCURVE",
"443 533 CURVE",
"456 533 LINE",
"456 707 LINE",
"436 707 LINE",
"436 670 LINE SMOOTH",
"436 656 OFFCURVE",
"432 654 OFFCURVE",
"427 654 CURVE SMOOTH",
"419 654 OFFCURVE",
"359 710 OFFCURVE",
"261 710 CURVE SMOOTH",
"146 710 OFFCURVE",
"58 660 OFFCURVE",
"58 558 CURVE SMOOTH",
"58 358 OFFCURVE",
"453 369 OFFCURVE",
"453 173 CURVE SMOOTH",
"453 78 OFFCURVE",
"380 14 OFFCURVE",
"263 14 CURVE SMOOTH",
"160 14 OFFCURVE",
"62 92 OFFCURVE",
"53 177 CURVE",
"40 177 LINE",
"40 3 LINE",
"60 3 LINE",
"60 42 LINE SMOOTH",
"60 56 OFFCURVE",
"64 67 OFFCURVE",
"69 67 CURVE SMOOTH",
"76 67 OFFCURVE",
"164 -10 OFFCURVE",
"276 -10 CURVE SMOOTH"
);
},
{
closed = 1;
nodes = (
"321 860 LINE SMOOTH",
"332 866 OFFCURVE",
"337 875 OFFCURVE",
"337 883 CURVE SMOOTH",
"337 892 OFFCURVE",
"330 897 OFFCURVE",
"323 897 CURVE SMOOTH",
"313 897 OFFCURVE",
"305 891 OFFCURVE",
"297 885 CURVE",
"190 798 LINE",
"197 788 LINE"
);
}
);
width = 525;
}
);
leftKerningGroup = S;
note = Sacute;
rightKerningGroup = S;
unicode = 015A;
},
{
glyphname = Scaron;
lastChange = "2015-12-01 05:23:22 +0000";
layers = (
{
layerId = "DE721516-52ED-4FB4-A3DE-9EDE92CA8211";
name = Light;
paths = (
{
closed = 1;
nodes = (
"396 -10 OFFCURVE",
"485 65 OFFCURVE",
"485 175 CURVE SMOOTH",
"485 393 OFFCURVE",
"89 375 OFFCURVE",
"89 558 CURVE SMOOTH",
"89 634 OFFCURVE",
"145 686 OFFCURVE",
"265 686 CURVE SMOOTH",
"368 686 OFFCURVE",
"435 619 OFFCURVE",
"443 533 CURVE",
"456 533 LINE",
"456 707 LINE",
"436 707 LINE",
"436 670 LINE SMOOTH",
"436 656 OFFCURVE",
"432 654 OFFCURVE",
"427 654 CURVE SMOOTH",
"419 654 OFFCURVE",
"359 710 OFFCURVE",
"261 710 CURVE SMOOTH",
"146 710 OFFCURVE",
"58 660 OFFCURVE",
"58 558 CURVE SMOOTH",
"58 358 OFFCURVE",
"453 369 OFFCURVE",
"453 173 CURVE SMOOTH",
"453 78 OFFCURVE",
"380 14 OFFCURVE",
"263 14 CURVE SMOOTH",
"160 14 OFFCURVE",
"62 92 OFFCURVE",
"53 177 CURVE",
"40 177 LINE",
"40 3 LINE",
"60 3 LINE",
"60 42 LINE SMOOTH",
"60 56 OFFCURVE",
"64 67 OFFCURVE",
"69 67 CURVE SMOOTH",
"76 67 OFFCURVE",
"164 -10 OFFCURVE",
"276 -10 CURVE SMOOTH"
);
},
{
closed = 1;
nodes = (
"264 787 LINE",
"365 883 LINE",
"351 899 LINE",
"263 824 LINE",
"259 821 OFFCURVE",
"255 819 OFFCURVE",
"252 819 CURVE SMOOTH",
"249 819 OFFCURVE",
"245 821 OFFCURVE",
"241 824 CURVE",
"153 899 LINE",
"139 883 LINE",
"240 787 LINE"
);
}
);
width = 525;
}
);
leftKerningGroup = S;
note = Scaron;
rightKerningGroup = S;
unicode = 0160;
},
{
glyphname = Scedilla;
lastChange = "2015-12-01 05:23:21 +0000";
layers = (
{
layerId = "DE721516-52ED-4FB4-A3DE-9EDE92CA8211";
name = Light;
paths = (
{
closed = 1;
nodes = (
"396 -10 OFFCURVE",
"485 65 OFFCURVE",
"485 175 CURVE SMOOTH",
"485 393 OFFCURVE",
"89 375 OFFCURVE",
"89 558 CURVE SMOOTH",
"89 634 OFFCURVE",
"145 686 OFFCURVE",
"265 686 CURVE SMOOTH",
"368 686 OFFCURVE",
"435 619 OFFCURVE",
"443 533 CURVE",
"456 533 LINE",
"456 707 LINE",
"436 707 LINE",
"436 670 LINE SMOOTH",
"436 656 OFFCURVE",
"432 654 OFFCURVE",
"427 654 CURVE SMOOTH",
"419 654 OFFCURVE",
"359 710 OFFCURVE",
"261 710 CURVE SMOOTH",
"146 710 OFFCURVE",
"58 660 OFFCURVE",
"58 558 CURVE SMOOTH",
"58 358 OFFCURVE",
"453 369 OFFCURVE",
"453 173 CURVE SMOOTH",
"453 78 OFFCURVE",
"380 14 OFFCURVE",
"263 14 CURVE SMOOTH",
"160 14 OFFCURVE",
"62 92 OFFCURVE",
"53 177 CURVE",
"40 177 LINE",
"40 3 LINE",
"60 3 LINE",
"60 42 LINE SMOOTH",
"60 56 OFFCURVE",
"64 67 OFFCURVE",
"69 67 CURVE SMOOTH",
"76 67 OFFCURVE",
"164 -10 OFFCURVE",
"276 -10 CURVE SMOOTH"
);
},
{
closed = 1;
nodes = (
"284 -186 OFFCURVE",
"325 -167 OFFCURVE",
"325 -121 CURVE SMOOTH",
"325 -85 OFFCURVE",
"292 -67 OFFCURVE",
"256 -67 CURVE SMOOTH",
"248 -67 OFFCURVE",
"240 -67 OFFCURVE",
"233 -68 CURVE",
"264 0 LINE",
"236 0 LINE",
"198 -79 LINE",
"206 -89 LINE",
"215 -88 OFFCURVE",
"228 -87 OFFCURVE",
"242 -87 CURVE SMOOTH",
"269 -87 OFFCURVE",
"297 -93 OFFCURVE",
"297 -119 CURVE SMOOTH",
"297 -153 OFFCURVE",
"271 -166 OFFCURVE",
"232 -166 CURVE SMOOTH",
"217 -166 OFFCURVE",
"200 -165 OFFCURVE",
"183 -162 CURVE",
"174 -180 LINE",
"192 -184 OFFCURVE",
"212 -186 OFFCURVE",
"229 -186 CURVE SMOOTH"
);
}
);
width = 525;
}
);
leftKerningGroup = S;
note = Scedilla;
rightKerningGroup = S;
unicode = 015E;
},
{
glyphname = Scircumflex;
lastChange = "2015-12-01 05:23:21 +0000";
layers = (
{
layerId = "DE721516-52ED-4FB4-A3DE-9EDE92CA8211";
name = Light;
paths = (
{
closed = 1;
nodes = (
"396 -10 OFFCURVE",
"485 65 OFFCURVE",
"485 175 CURVE SMOOTH",
"485 393 OFFCURVE",
"89 375 OFFCURVE",
"89 558 CURVE SMOOTH",
"89 634 OFFCURVE",
"145 686 OFFCURVE",
"265 686 CURVE SMOOTH",
"368 686 OFFCURVE",
"435 619 OFFCURVE",
"443 533 CURVE",
"456 533 LINE",
"456 707 LINE",
"436 707 LINE",
"436 670 LINE SMOOTH",
"436 656 OFFCURVE",
"432 654 OFFCURVE",
"427 654 CURVE SMOOTH",
"419 654 OFFCURVE",
"359 710 OFFCURVE",
"261 710 CURVE SMOOTH",
"146 710 OFFCURVE",
"58 660 OFFCURVE",
"58 558 CURVE SMOOTH",
"58 358 OFFCURVE",
"453 369 OFFCURVE",
"453 173 CURVE SMOOTH",
"453 78 OFFCURVE",
"380 14 OFFCURVE",
"263 14 CURVE SMOOTH",
"160 14 OFFCURVE",
"62 92 OFFCURVE",
"53 177 CURVE",
"40 177 LINE",
"40 3 LINE",
"60 3 LINE",
"60 42 LINE SMOOTH",
"60 56 OFFCURVE",
"64 67 OFFCURVE",
"69 67 CURVE SMOOTH",
"76 67 OFFCURVE",
"164 -10 OFFCURVE",
"276 -10 CURVE SMOOTH"
);
},
{
closed = 1;
nodes = (
"241 862 LINE",
"245 865 OFFCURVE",
"249 867 OFFCURVE",
"252 867 CURVE SMOOTH",
"255 867 OFFCURVE",
"259 865 OFFCURVE",
"263 862 CURVE",
"351 787 LINE",
"365 803 LINE",
"264 899 LINE",
"240 899 LINE",
"139 803 LINE",
"153 787 LINE"
);
}
);
width = 525;
}
);
leftKerningGroup = S;
note = Scircumflex;
rightKerningGroup = S;
unicode = 015C;
},
{
glyphname = Scommaaccent;
lastChange = "2015-12-01 05:23:22 +0000";
layers = (
{
layerId = "DE721516-52ED-4FB4-A3DE-9EDE92CA8211";
name = Light;
paths = (
{
closed = 1;
nodes = (
"396 -10 OFFCURVE",
"485 65 OFFCURVE",
"485 175 CURVE SMOOTH",
"485 393 OFFCURVE",
"89 375 OFFCURVE",
"89 558 CURVE SMOOTH",
"89 634 OFFCURVE",
"145 686 OFFCURVE",
"265 686 CURVE SMOOTH",
"368 686 OFFCURVE",
"435 619 OFFCURVE",
"443 533 CURVE",
"456 533 LINE",
"456 707 LINE",
"436 707 LINE",
"436 670 LINE SMOOTH",
"436 656 OFFCURVE",
"432 654 OFFCURVE",
"427 654 CURVE SMOOTH",
"419 654 OFFCURVE",
"359 710 OFFCURVE",
"261 710 CURVE SMOOTH",
"146 710 OFFCURVE",
"58 660 OFFCURVE",
"58 558 CURVE SMOOTH",
"58 358 OFFCURVE",
"453 369 OFFCURVE",
"453 173 CURVE SMOOTH",
"453 78 OFFCURVE",
"380 14 OFFCURVE",
"263 14 CURVE SMOOTH",
"160 14 OFFCURVE",
"62 92 OFFCURVE",
"53 177 CURVE",
"40 177 LINE",
"40 3 LINE",
"60 3 LINE",
"60 42 LINE SMOOTH",
"60 56 OFFCURVE",
"64 67 OFFCURVE",
"69 67 CURVE SMOOTH",
"76 67 OFFCURVE",
"164 -10 OFFCURVE",
"276 -10 CURVE SMOOTH"
);
},
{
closed = 1;
nodes = (
"231 -194 OFFCURVE",
"251 -150 OFFCURVE",
"251 -102 CURVE SMOOTH",
"251 -67 OFFCURVE",
"236 -61 OFFCURVE",
"222 -61 CURVE SMOOTH",
"205 -61 OFFCURVE",
"196 -72 OFFCURVE",
"196 -90 CURVE SMOOTH",
"196 -116 OFFCURVE",
"223 -116 OFFCURVE",
"223 -144 CURVE SMOOTH",
"223 -174 OFFCURVE",
"197 -202 OFFCURVE",
"176 -222 CURVE",
"184 -232 LINE"
);
}
);
width = 525;
}
);
leftKerningGroup = S;
note = Scommaaccent;
rightKerningGroup = S;
unicode = 0218;
},
{
glyphname = Sdotaccent;
lastChange = "2015-12-01 05:23:22 +0000";
layers = (
{
layerId = "DE721516-52ED-4FB4-A3DE-9EDE92CA8211";
name = Light;
paths = (
{
closed = 1;
nodes = (
"396 -10 OFFCURVE",
"485 65 OFFCURVE",
"485 175 CURVE SMOOTH",
"485 393 OFFCURVE",
"89 375 OFFCURVE",
"89 558 CURVE SMOOTH",
"89 634 OFFCURVE",
"145 686 OFFCURVE",
"265 686 CURVE SMOOTH",
"368 686 OFFCURVE",
"435 619 OFFCURVE",
"443 533 CURVE",
"456 533 LINE",
"456 707 LINE",
"436 707 LINE",
"436 670 LINE SMOOTH",
"436 656 OFFCURVE",
"432 654 OFFCURVE",
"427 654 CURVE SMOOTH",
"419 654 OFFCURVE",
"359 710 OFFCURVE",
"261 710 CURVE SMOOTH",
"146 710 OFFCURVE",
"58 660 OFFCURVE",
"58 558 CURVE SMOOTH",
"58 358 OFFCURVE",
"453 369 OFFCURVE",
"453 173 CURVE SMOOTH",
"453 78 OFFCURVE",
"380 14 OFFCURVE",
"263 14 CURVE SMOOTH",
"160 14 OFFCURVE",
"62 92 OFFCURVE",
"53 177 CURVE",
"40 177 LINE",
"40 3 LINE",
"60 3 LINE",
"60 42 LINE SMOOTH",
"60 56 OFFCURVE",
"64 67 OFFCURVE",
"69 67 CURVE SMOOTH",
"76 67 OFFCURVE",
"164 -10 OFFCURVE",
"276 -10 CURVE SMOOTH"
);
},
{
closed = 1;
nodes = (
"279 787 OFFCURVE",
"291 798 OFFCURVE",
"291 817 CURVE SMOOTH",
"291 836 OFFCURVE",
"279 847 OFFCURVE",
"262 847 CURVE SMOOTH",
"245 847 OFFCURVE",
"233 836 OFFCURVE",
"233 817 CURVE SMOOTH",
"233 798 OFFCURVE",
"245 787 OFFCURVE",
"262 787 CURVE SMOOTH"
);
}
);
width = 525;
}
);
leftKerningGroup = S;
note = Sdotaccent;
rightKerningGroup = S;
unicode = 1E60;
},
{
glyphname = Sdotbelow;
lastChange = "2015-12-01 05:23:21 +0000";
layers = (
{
layerId = "DE721516-52ED-4FB4-A3DE-9EDE92CA8211";
name = Light;
paths = (
{
closed = 1;
nodes = (
"396 -10 OFFCURVE",
"485 65 OFFCURVE",
"485 175 CURVE SMOOTH",
"485 393 OFFCURVE",
"89 375 OFFCURVE",
"89 558 CURVE SMOOTH",
"89 634 OFFCURVE",
"145 686 OFFCURVE",
"265 686 CURVE SMOOTH",
"368 686 OFFCURVE",
"435 619 OFFCURVE",
"443 533 CURVE",
"456 533 LINE",
"456 707 LINE",
"436 707 LINE",
"436 670 LINE SMOOTH",
"436 656 OFFCURVE",
"432 654 OFFCURVE",
"427 654 CURVE SMOOTH",
"419 654 OFFCURVE",
"359 710 OFFCURVE",
"261 710 CURVE SMOOTH",
"146 710 OFFCURVE",
"58 660 OFFCURVE",
"58 558 CURVE SMOOTH",
"58 358 OFFCURVE",
"453 369 OFFCURVE",
"453 173 CURVE SMOOTH",
"453 78 OFFCURVE",
"380 14 OFFCURVE",
"263 14 CURVE SMOOTH",
"160 14 OFFCURVE",
"62 92 OFFCURVE",
"53 177 CURVE",
"40 177 LINE",
"40 3 LINE",
"60 3 LINE",
"60 42 LINE SMOOTH",
"60 56 OFFCURVE",
"64 67 OFFCURVE",
"69 67 CURVE SMOOTH",
"76 67 OFFCURVE",
"164 -10 OFFCURVE",
"276 -10 CURVE SMOOTH"
);
},
{
closed = 1;
nodes = (
"279 -124 OFFCURVE",
"291 -113 OFFCURVE",
"291 -94 CURVE SMOOTH",
"291 -75 OFFCURVE",
"279 -64 OFFCURVE",
"262 -64 CURVE SMOOTH",
"245 -64 OFFCURVE",
"233 -75 OFFCURVE",
"233 -94 CURVE SMOOTH",
"233 -113 OFFCURVE",
"245 -124 OFFCURVE",
"262 -124 CURVE SMOOTH"
);
}
);
width = 525;
}
);
leftKerningGroup = S;
note = Sdotbelow;
rightKerningGroup = S;
unicode = 1E62;
},
{
glyphname = Germandbls;
lastChange = "2015-12-01 05:23:18 +0000";
layers = (
{
layerId = "DE721516-52ED-4FB4-A3DE-9EDE92CA8211";
name = Light;
paths = (
{
closed = 1;
nodes = (
"546 -10 OFFCURVE",
"613 87 OFFCURVE",
"613 200 CURVE SMOOTH",
"613 315 OFFCURVE",
"523 389 OFFCURVE",
"379 394 CURVE",
"530 557 LINE",
"509 630 OFFCURVE",
"439 710 OFFCURVE",
"325 710 CURVE SMOOTH",
"168 710 OFFCURVE",
"90 609 OFFCURVE",
"90 458 CURVE SMOOTH",
"90 47 LINE SMOOTH",
"90 23 OFFCURVE",
"68 14 OFFCURVE",
"29 14 CURVE SMOOTH",
"2 14 LINE",
"2 0 LINE",
"210 0 LINE",
"210 14 LINE",
"183 14 LINE SMOOTH",
"144 14 OFFCURVE",
"122 23 OFFCURVE",
"122 47 CURVE SMOOTH",
"122 468 LINE SMOOTH",
"122 600 OFFCURVE",
"192 686 OFFCURVE",
"320 686 CURVE SMOOTH",
"413 686 OFFCURVE",
"474 629 OFFCURVE",
"502 561 CURVE",
"345 392 LINE",
"345 371 LINE",
"376 371 LINE SMOOTH",
"513 371 OFFCURVE",
"581 301 OFFCURVE",
"581 200 CURVE SMOOTH",
"581 89 OFFCURVE",
"513 12 OFFCURVE",
"388 12 CURVE SMOOTH",
"334 12 OFFCURVE",
"274 23 OFFCURVE",
"220 49 CURVE",
"220 23 LINE",
"266 1 OFFCURVE",
"324 -10 OFFCURVE",
"392 -10 CURVE SMOOTH"
);
}
);
width = 640;
}
);
note = uni1E9E;
unicode = 1E9E;
},
{
glyphname = Schwa;
lastChange = "2015-12-01 05:23:18 +0000";
layers = (
{
layerId = "DE721516-52ED-4FB4-A3DE-9EDE92CA8211";
name = Light;
paths = (
{
closed = 1;
nodes = (
"491 -10 OFFCURVE",
"613 111 OFFCURVE",
"613 344 CURVE SMOOTH",
"613 559 OFFCURVE",
"492 710 OFFCURVE",
"297 710 CURVE SMOOTH",
"163 710 OFFCURVE",
"65 636 OFFCURVE",
"49 535 CURVE",
"76 535 LINE",
"104 644 OFFCURVE",
"202 685 OFFCURVE",
"284 685 CURVE SMOOTH",
"493 685 OFFCURVE",
"581 525 OFFCURVE",
"581 335 CURVE SMOOTH",
"581 171 OFFCURVE",
"491 12 OFFCURVE",
"299 12 CURVE SMOOTH",
"129 12 OFFCURVE",
"69 171 OFFCURVE",
"66 307 CURVE",
"585 307 LINE",
"585 331 LINE",
"37 331 LINE",
"37 311 LINE SMOOTH",
"37 138 OFFCURVE",
"119 -10 OFFCURVE",
"304 -10 CURVE SMOOTH"
);
}
);
width = 650;
}
);
note = uni018F;
unicode = 018F;
},
{
glyphname = T;
lastChange = "2015-12-01 05:23:18 +0000";
layers = (
{
layerId = "DE721516-52ED-4FB4-A3DE-9EDE92CA8211";
name = Light;
paths = (
{
closed = 1;
nodes = (
"399 0 LINE",
"399 14 LINE",
"372 14 LINE SMOOTH",
"333 14 OFFCURVE",
"311 23 OFFCURVE",
"311 47 CURVE SMOOTH",
"311 676 LINE",
"458 676 LINE SMOOTH",
"518 676 OFFCURVE",
"525 589 OFFCURVE",
"527 546 CURVE",
"540 546 LINE",
"540 700 LINE",
"50 700 LINE",
"50 546 LINE",
"63 546 LINE",
"65 589 OFFCURVE",
"72 676 OFFCURVE",
"132 676 CURVE SMOOTH",
"279 676 LINE",
"279 47 LINE SMOOTH",
"279 23 OFFCURVE",
"257 14 OFFCURVE",
"218 14 CURVE SMOOTH",
"191 14 LINE",
"191 0 LINE"
);
}
);
width = 590;
}
);
leftKerningGroup = T;
note = T;
rightKerningGroup = T;
unicode = 0054;
},
